<svg xmlns="http://www.w3.org/2000/svg" xmlns:xlink="http://www.w3.org/1999/xlink" viewBox="0 0 1366 475"><defs><style>.cls-1,.cls-2,.cls-3,.cls-4,.cls-5,.cls-9{fill:none;}.cls-2,.cls-3,.cls-4,.cls-5,.cls-6,.cls-7,.cls-9{stroke:#fff;stroke-miterlimit:10;}.cls-2{stroke-width:0.25px;}.cls-3{stroke-width:0.5px;}.cls-4,.cls-6,.cls-7{stroke-width:2px;}.cls-6{fill:url(#corsshatch-white);}.cls-7{fill:url(#line-sadingwhite);}.cls-8{fill:#f7c319;}.cls-9{stroke-width:0.75px;}</style><pattern id="corsshatch-white" data-name="corsshatch-white" width="40" height="40" patternTransform="translate(821 -11)" patternUnits="userSpaceOnUse" viewBox="0 0 40 40"><rect class="cls-1" width="40" height="40"/><line class="cls-2" x1="32.97" y1="72.86" x2="73.38" y2="32.38"/><line class="cls-2" x1="36.03" y1="68.93" x2="76.45" y2="28.45"/><line class="cls-2" x1="35.1" y1="69" x2="75.52" y2="28.52"/><line class="cls-2" x1="38.17" y1="65.07" x2="78.59" y2="24.59"/><line class="cls-2" x1="30.88" y1="71.78" x2="71.3" y2="31.3"/><line class="cls-2" x1="33.95" y1="67.84" x2="74.37" y2="27.37"/><line class="cls-2" x1="33.02" y1="67.91" x2="73.43" y2="27.43"/><line class="cls-2" x1="36.08" y1="63.98" x2="76.5" y2="23.5"/><line class="cls-2" x1="39.78" y1="72.68" x2="80.2" y2="32.2"/><line class="cls-2" x1="37.7" y1="71.59" x2="78.11" y2="31.11"/><line class="cls-2" x1="39.83" y1="67.73" x2="80.25" y2="27.25"/><line class="cls-2" x1="39.96" y1="75.85" x2="80.37" y2="35.37"/><line class="cls-2" x1="-7.03" y1="72.86" x2="33.38" y2="32.38"/><line class="cls-2" x1="-3.97" y1="68.93" x2="36.45" y2="28.45"/><line class="cls-2" x1="-4.9" y1="69" x2="35.52" y2="28.52"/><line class="cls-2" x1="-1.83" y1="65.07" x2="38.59" y2="24.59"/><line class="cls-2" x1="-9.12" y1="71.78" x2="31.3" y2="31.3"/><line class="cls-2" x1="-6.05" y1="67.84" x2="34.37" y2="27.37"/><line class="cls-2" x1="-6.98" y1="67.91" x2="33.43" y2="27.43"/><line class="cls-2" x1="-3.92" y1="63.98" x2="36.5" y2="23.5"/><line class="cls-2" x1="-0.22" y1="72.68" x2="40.2" y2="32.2"/><line class="cls-2" x1="2.85" y1="68.75" x2="43.27" y2="28.27"/><line class="cls-2" x1="1.92" y1="68.81" x2="42.33" y2="28.34"/><line class="cls-2" x1="4.98" y1="64.88" x2="45.4" y2="24.4"/><line class="cls-2" x1="-2.3" y1="71.59" x2="38.11" y2="31.11"/><line class="cls-2" x1="0.76" y1="67.66" x2="41.18" y2="27.18"/><line class="cls-2" x1="-0.17" y1="67.73" x2="40.25" y2="27.25"/><line class="cls-2" x1="2.9" y1="63.8" x2="43.32" y2="23.32"/><line class="cls-2" x1="2.04" y1="76.94" x2="42.46" y2="36.46"/><line class="cls-2" x1="5.11" y1="73.01" x2="45.53" y2="32.53"/><line class="cls-2" x1="4.18" y1="73.07" x2="44.6" y2="32.6"/><line class="cls-2" x1="7.25" y1="69.14" x2="47.66" y2="28.66"/><line class="cls-2" x1="-0.04" y1="75.85" x2="40.37" y2="35.37"/><line class="cls-2" x1="3.02" y1="71.92" x2="43.44" y2="31.44"/><line class="cls-2" x1="2.09" y1="71.99" x2="42.51" y2="31.51"/><line class="cls-2" x1="5.16" y1="68.06" x2="45.58" y2="27.58"/><line class="cls-2" x1="8.86" y1="76.76" x2="49.28" y2="36.28"/><line class="cls-2" x1="11.93" y1="72.82" x2="52.34" y2="32.34"/><line class="cls-2" x1="10.99" y1="72.89" x2="51.41" y2="32.41"/><line class="cls-2" x1="14.06" y1="68.96" x2="54.48" y2="28.48"/><line class="cls-2" x1="6.77" y1="75.67" x2="47.19" y2="35.19"/><line class="cls-2" x1="9.84" y1="71.74" x2="50.26" y2="31.26"/><line class="cls-2" x1="8.91" y1="71.8" x2="49.33" y2="31.33"/><line class="cls-2" x1="11.98" y1="67.87" x2="52.39" y2="27.39"/><line class="cls-2" x1="7.71" y1="78.6" x2="48.12" y2="38.12"/><line class="cls-2" x1="9.55" y1="77.45" x2="49.97" y2="36.97"/><line class="cls-2" x1="12.31" y1="78.21" x2="52.8" y2="37.8"/><line class="cls-2" x1="12.3" y1="79.19" x2="52.78" y2="38.78"/><line class="cls-2" x1="16.28" y1="76.18" x2="56.77" y2="35.77"/><line class="cls-2" x1="13.59" y1="80.49" x2="54.07" y2="40.07"/><line class="cls-2" x1="17.56" y1="78.46" x2="58.04" y2="38.05"/><line class="cls-2" x1="7.55" y1="80.45" x2="48.03" y2="40.03"/><line class="cls-2" x1="53.09" y1="59.48" x2="21.49" y2="35.54"/><line class="cls-2" x1="51.13" y1="56.38" x2="19.53" y2="32.44"/><line class="cls-2" x1="52.3" y1="55.65" x2="20.7" y2="31.71"/><line class="cls-2" x1="42.44" y1="62.21" x2="10.84" y2="38.27"/><line class="cls-2" x1="43.61" y1="61.47" x2="12.01" y2="37.53"/><line class="cls-2" x1="41.64" y1="58.38" x2="10.05" y2="34.44"/><line class="cls-2" x1="47.64" y1="61.82" x2="16.04" y2="37.88"/><line class="cls-2" x1="45.68" y1="58.73" x2="14.08" y2="34.79"/><line class="cls-2" x1="46.84" y1="57.99" x2="15.25" y2="34.06"/><line class="cls-2" x1="44.88" y1="54.9" x2="13.28" y2="30.96"/><line class="cls-2" x1="-40.22" y1="72.68" x2="0.2" y2="32.2"/><line class="cls-2" x1="-37.15" y1="68.75" x2="3.27" y2="28.27"/><line class="cls-2" x1="-38.08" y1="68.81" x2="2.33" y2="28.34"/><line class="cls-2" x1="-35.02" y1="64.88" x2="5.4" y2="24.4"/><line class="cls-2" x1="-39.24" y1="67.66" x2="1.18" y2="27.18"/><line class="cls-2" x1="-40.17" y1="67.73" x2="0.25" y2="27.25"/><line class="cls-2" x1="-37.1" y1="63.8" x2="3.32" y2="23.32"/><line class="cls-2" x1="-37.96" y1="76.94" x2="2.46" y2="36.46"/><line class="cls-2" x1="-34.89" y1="73.01" x2="5.53" y2="32.53"/><line class="cls-2" x1="-35.82" y1="73.07" x2="4.6" y2="32.6"/><line class="cls-2" x1="-32.75" y1="69.14" x2="7.66" y2="28.66"/><line class="cls-2" x1="-40.04" y1="75.85" x2="0.37" y2="35.37"/><line class="cls-2" x1="-36.98" y1="71.92" x2="3.44" y2="31.44"/><line class="cls-2" x1="-37.91" y1="71.99" x2="2.51" y2="31.51"/><line class="cls-2" x1="-34.84" y1="68.06" x2="5.58" y2="27.58"/><line class="cls-2" x1="-31.14" y1="76.76" x2="9.28" y2="36.28"/><line class="cls-2" x1="-28.07" y1="72.82" x2="12.34" y2="32.34"/><line class="cls-2" x1="-29.01" y1="72.89" x2="11.41" y2="32.41"/><line class="cls-2" x1="-25.94" y1="68.96" x2="14.48" y2="28.48"/><line class="cls-2" x1="-33.23" y1="75.67" x2="7.19" y2="35.19"/><line class="cls-2" x1="-30.16" y1="71.74" x2="10.26" y2="31.26"/><line class="cls-2" x1="-31.09" y1="71.8" x2="9.33" y2="31.33"/><line class="cls-2" x1="-28.02" y1="67.87" x2="12.39" y2="27.39"/><line class="cls-2" x1="-32.29" y1="78.6" x2="8.12" y2="38.12"/><line class="cls-2" x1="-30.45" y1="77.45" x2="9.97" y2="36.97"/><line class="cls-2" x1="-27.69" y1="78.21" x2="12.8" y2="37.8"/><line class="cls-2" x1="-27.7" y1="79.19" x2="12.78" y2="38.78"/><line class="cls-2" x1="-23.72" y1="76.18" x2="16.77" y2="35.77"/><line class="cls-2" x1="-26.41" y1="80.49" x2="14.07" y2="40.07"/><line class="cls-2" x1="-22.44" y1="78.46" x2="18.04" y2="38.05"/><line class="cls-2" x1="-32.45" y1="80.45" x2="8.03" y2="40.03"/><line class="cls-2" x1="13.09" y1="59.48" x2="-18.51" y2="35.54"/><line class="cls-2" x1="11.13" y1="56.38" x2="-20.47" y2="32.44"/><line class="cls-2" x1="12.3" y1="55.65" x2="-19.3" y2="31.71"/><line class="cls-2" x1="2.44" y1="62.21" x2="-29.16" y2="38.27"/><line class="cls-2" x1="3.61" y1="61.47" x2="-27.99" y2="37.53"/><line class="cls-2" x1="1.64" y1="58.38" x2="-29.95" y2="34.44"/><line class="cls-2" x1="7.64" y1="61.82" x2="-23.96" y2="37.88"/><line class="cls-2" x1="5.68" y1="58.73" x2="-25.92" y2="34.79"/><line class="cls-2" x1="6.84" y1="57.99" x2="-24.75" y2="34.06"/><line class="cls-2" x1="4.88" y1="54.9" x2="-26.72" y2="30.96"/><line class="cls-2" x1="32.97" y1="32.86" x2="73.38" y2="-7.62"/><line class="cls-2" x1="36.03" y1="28.93" x2="76.45" y2="-11.55"/><line class="cls-2" x1="35.1" y1="29" x2="75.52" y2="-11.48"/><line class="cls-2" x1="38.17" y1="25.07" x2="78.59" y2="-15.41"/><line class="cls-2" x1="30.88" y1="31.78" x2="71.3" y2="-8.7"/><line class="cls-2" x1="33.95" y1="27.84" x2="74.37" y2="-12.63"/><line class="cls-2" x1="33.02" y1="27.91" x2="73.43" y2="-12.57"/><line class="cls-2" x1="36.08" y1="23.98" x2="76.5" y2="-16.5"/><line class="cls-2" x1="39.78" y1="32.68" x2="80.2" y2="-7.8"/><line class="cls-2" x1="37.7" y1="31.59" x2="78.11" y2="-8.89"/><line class="cls-2" x1="39.83" y1="27.73" x2="80.25" y2="-12.75"/><line class="cls-2" x1="39.96" y1="35.85" x2="80.37" y2="-4.63"/><line class="cls-2" x1="68.16" y1="52.54" x2="36.46" y2="28.74"/><line class="cls-2" x1="64.73" y1="51.39" x2="33.03" y2="27.59"/><line class="cls-2" x1="64.43" y1="52.6" x2="32.73" y2="28.8"/><line class="cls-2" x1="61" y1="51.45" x2="29.3" y2="27.65"/><line class="cls-2" x1="66.02" y1="56.2" x2="34.32" y2="32.4"/><line class="cls-2" x1="62.59" y1="55.05" x2="30.89" y2="31.25"/><line class="cls-2" x1="62.29" y1="56.26" x2="30.58" y2="32.46"/><line class="cls-2" x1="58.86" y1="55.11" x2="27.15" y2="31.31"/><line class="cls-2" x1="70.73" y1="43.43" x2="39.03" y2="19.63"/><line class="cls-2" x1="67.3" y1="42.29" x2="35.6" y2="18.49"/><line class="cls-2" x1="67" y1="43.5" x2="35.3" y2="19.7"/><line class="cls-2" x1="63.57" y1="42.35" x2="31.87" y2="18.55"/><line class="cls-2" x1="68.58" y1="47.09" x2="36.88" y2="23.29"/><line class="cls-2" x1="65.15" y1="45.95" x2="33.45" y2="22.15"/><line class="cls-2" x1="64.85" y1="47.16" x2="33.15" y2="23.36"/><line class="cls-2" x1="61.42" y1="46.01" x2="29.72" y2="22.21"/><line class="cls-2" x1="69.57" y1="36.02" x2="37.87" y2="12.22"/><line class="cls-2" x1="71.15" y1="39.62" x2="39.45" y2="15.82"/><line class="cls-2" x1="70.85" y1="40.83" x2="39.15" y2="17.03"/><line class="cls-2" x1="67.42" y1="39.68" x2="35.72" y2="15.88"/><line class="cls-2" x1="69.99" y1="30.58" x2="38.29" y2="6.78"/><line class="cls-2" x1="-7.03" y1="32.86" x2="33.38" y2="-7.62"/><line class="cls-2" x1="-3.97" y1="28.93" x2="36.45" y2="-11.55"/><line class="cls-2" x1="-4.9" y1="29" x2="35.52" y2="-11.48"/><line class="cls-2" x1="-1.83" y1="25.07" x2="38.59" y2="-15.41"/><line class="cls-2" x1="-9.12" y1="31.78" x2="31.3" y2="-8.7"/><line class="cls-2" x1="-6.05" y1="27.84" x2="34.37" y2="-12.63"/><line class="cls-2" x1="-6.98" y1="27.91" x2="33.43" y2="-12.57"/><line class="cls-2" x1="-3.92" y1="23.98" x2="36.5" y2="-16.5"/><line class="cls-2" x1="-0.22" y1="32.68" x2="40.2" y2="-7.8"/><line class="cls-2" x1="2.85" y1="28.75" x2="43.27" y2="-11.73"/><line class="cls-2" x1="1.92" y1="28.81" x2="42.33" y2="-11.66"/><line class="cls-2" x1="4.98" y1="24.88" x2="45.4" y2="-15.6"/><line class="cls-2" x1="-2.3" y1="31.59" x2="38.11" y2="-8.89"/><line class="cls-2" x1="0.76" y1="27.66" x2="41.18" y2="-12.82"/><line class="cls-2" x1="-0.17" y1="27.73" x2="40.25" y2="-12.75"/><line class="cls-2" x1="2.9" y1="23.8" x2="43.32" y2="-16.68"/><line class="cls-2" x1="2.04" y1="36.94" x2="42.46" y2="-3.54"/><line class="cls-2" x1="5.11" y1="33.01" x2="45.53" y2="-7.47"/><line class="cls-2" x1="4.18" y1="33.07" x2="44.6" y2="-7.4"/><line class="cls-2" x1="7.25" y1="29.14" x2="47.66" y2="-11.34"/><line class="cls-2" x1="-0.04" y1="35.85" x2="40.37" y2="-4.63"/><line class="cls-2" x1="3.02" y1="31.92" x2="43.44" y2="-8.56"/><line class="cls-2" x1="2.09" y1="31.99" x2="42.51" y2="-8.49"/><line class="cls-2" x1="5.16" y1="28.06" x2="45.58" y2="-12.42"/><line class="cls-2" x1="8.86" y1="36.76" x2="49.28" y2="-3.72"/><line class="cls-2" x1="11.93" y1="32.82" x2="52.34" y2="-7.66"/><line class="cls-2" x1="10.99" y1="32.89" x2="51.41" y2="-7.59"/><line class="cls-2" x1="14.06" y1="28.96" x2="54.48" y2="-11.52"/><line class="cls-2" x1="6.77" y1="35.67" x2="47.19" y2="-4.81"/><line class="cls-2" x1="9.84" y1="31.74" x2="50.26" y2="-8.74"/><line class="cls-2" x1="8.91" y1="31.8" x2="49.33" y2="-8.67"/><line class="cls-2" x1="11.98" y1="27.87" x2="52.39" y2="-12.61"/><line class="cls-2" x1="7.71" y1="38.6" x2="48.12" y2="-1.88"/><line class="cls-2" x1="9.55" y1="37.45" x2="49.97" y2="-3.03"/><line class="cls-2" x1="8.55" y1="48.44" x2="49.03" y2="8.03"/><line class="cls-2" x1="12.53" y1="45.43" x2="53.01" y2="5.02"/><line class="cls-2" x1="12.52" y1="46.41" x2="53" y2="6"/><line class="cls-2" x1="8.33" y1="41.22" x2="48.81" y2="0.81"/><line class="cls-2" x1="12.31" y1="38.21" x2="52.8" y2="-2.2"/><line class="cls-2" x1="12.3" y1="39.19" x2="52.78" y2="-1.22"/><line class="cls-2" x1="16.28" y1="36.18" x2="56.77" y2="-4.23"/><line class="cls-2" x1="9.61" y1="43.5" x2="50.09" y2="3.09"/><line class="cls-2" x1="13.59" y1="40.49" x2="54.07" y2="0.07"/><line class="cls-2" x1="13.58" y1="41.47" x2="54.06" y2="1.06"/><line class="cls-2" x1="17.56" y1="38.46" x2="58.04" y2="-1.95"/><line class="cls-2" x1="6.44" y1="42.34" x2="46.92" y2="1.92"/><line class="cls-2" x1="7.55" y1="40.45" x2="48.03" y2="0.03"/><line class="cls-2" x1="28.16" y1="52.54" x2="-3.54" y2="28.74"/><line class="cls-2" x1="24.73" y1="51.39" x2="-6.97" y2="27.59"/><line class="cls-2" x1="24.43" y1="52.6" x2="-7.27" y2="28.8"/><line class="cls-2" x1="21" y1="51.45" x2="-10.7" y2="27.65"/><line class="cls-2" x1="26.02" y1="56.2" x2="-5.68" y2="32.4"/><line class="cls-2" x1="22.59" y1="55.05" x2="-9.11" y2="31.25"/><line class="cls-2" x1="22.29" y1="56.26" x2="-9.42" y2="32.46"/><line class="cls-2" x1="18.86" y1="55.11" x2="-12.85" y2="31.31"/><line class="cls-2" x1="30.73" y1="43.43" x2="-0.97" y2="19.63"/><line class="cls-2" x1="27.3" y1="42.29" x2="-4.4" y2="18.49"/><line class="cls-2" x1="27" y1="43.5" x2="-4.7" y2="19.7"/><line class="cls-2" x1="23.57" y1="42.35" x2="-8.13" y2="18.55"/><line class="cls-2" x1="28.58" y1="47.09" x2="-3.12" y2="23.29"/><line class="cls-2" x1="25.15" y1="45.95" x2="-6.55" y2="22.15"/><line class="cls-2" x1="24.85" y1="47.16" x2="-6.85" y2="23.36"/><line class="cls-2" x1="21.42" y1="46.01" x2="-10.28" y2="22.21"/><line class="cls-2" x1="36.73" y1="37.11" x2="5.03" y2="13.31"/><line class="cls-2" x1="33.3" y1="35.96" x2="1.6" y2="12.16"/><line class="cls-2" x1="33" y1="37.17" x2="1.3" y2="13.37"/><line class="cls-2" x1="29.57" y1="36.02" x2="-2.13" y2="12.22"/><line class="cls-2" x1="34.58" y1="40.77" x2="2.88" y2="16.97"/><line class="cls-2" x1="31.15" y1="39.62" x2="-0.55" y2="15.82"/><line class="cls-2" x1="30.85" y1="40.83" x2="-0.85" y2="17.03"/><line class="cls-2" x1="27.42" y1="39.68" x2="-4.28" y2="15.88"/><line class="cls-2" x1="39.3" y1="28" x2="7.59" y2="4.2"/><line class="cls-2" x1="35.87" y1="26.86" x2="4.16" y2="3.06"/><line class="cls-2" x1="35.56" y1="28.07" x2="3.86" y2="4.27"/><line class="cls-2" x1="32.13" y1="26.92" x2="0.43" y2="3.12"/><line class="cls-2" x1="37.15" y1="31.66" x2="5.45" y2="7.86"/><line class="cls-2" x1="33.72" y1="30.52" x2="2.02" y2="6.72"/><line class="cls-2" x1="33.42" y1="31.73" x2="1.72" y2="7.93"/><line class="cls-2" x1="29.99" y1="30.58" x2="-1.71" y2="6.78"/><line class="cls-2" x1="41.02" y1="28.15" x2="9.32" y2="4.35"/><line class="cls-2" x1="40.4" y1="26.54" x2="8.7" y2="2.74"/><line class="cls-2" x1="53.09" y1="19.48" x2="21.49" y2="-4.46"/><line class="cls-2" x1="51.13" y1="16.38" x2="19.53" y2="-7.56"/><line class="cls-2" x1="52.3" y1="15.65" x2="20.7" y2="-8.29"/><line class="cls-2" x1="44.4" y1="25.3" x2="12.81" y2="1.36"/><line class="cls-2" x1="42.44" y1="22.21" x2="10.84" y2="-1.73"/><line class="cls-2" x1="43.61" y1="21.47" x2="12.01" y2="-2.47"/><line class="cls-2" x1="41.64" y1="18.38" x2="10.05" y2="-5.56"/><line class="cls-2" x1="47.64" y1="21.82" x2="16.04" y2="-2.12"/><line class="cls-2" x1="45.68" y1="18.73" x2="14.08" y2="-5.21"/><line class="cls-2" x1="46.84" y1="17.99" x2="15.25" y2="-5.94"/><line class="cls-2" x1="44.88" y1="14.9" x2="13.28" y2="-9.04"/><line class="cls-2" x1="44.96" y1="27.01" x2="13.36" y2="3.07"/><line class="cls-2" x1="43.16" y1="26.95" x2="11.56" y2="3.01"/><line class="cls-2" x1="-40.22" y1="32.68" x2="0.2" y2="-7.8"/><line class="cls-2" x1="-37.15" y1="28.75" x2="3.27" y2="-11.73"/><line class="cls-2" x1="-38.08" y1="28.81" x2="2.33" y2="-11.66"/><line class="cls-2" x1="-35.02" y1="24.88" x2="5.4" y2="-15.6"/><line class="cls-2" x1="-39.24" y1="27.66" x2="1.18" y2="-12.82"/><line class="cls-2" x1="-40.17" y1="27.73" x2="0.25" y2="-12.75"/><line class="cls-2" x1="-37.1" y1="23.8" x2="3.32" y2="-16.68"/><line class="cls-2" x1="-37.96" y1="36.94" x2="2.46" y2="-3.54"/><line class="cls-2" x1="-34.89" y1="33.01" x2="5.53" y2="-7.47"/><line class="cls-2" x1="-35.82" y1="33.07" x2="4.6" y2="-7.4"/><line class="cls-2" x1="-32.75" y1="29.14" x2="7.66" y2="-11.34"/><line class="cls-2" x1="-40.04" y1="35.85" x2="0.37" y2="-4.63"/><line class="cls-2" x1="-36.98" y1="31.92" x2="3.44" y2="-8.56"/><line class="cls-2" x1="-37.91" y1="31.99" x2="2.51" y2="-8.49"/><line class="cls-2" x1="-34.84" y1="28.06" x2="5.58" y2="-12.42"/><line class="cls-2" x1="-31.14" y1="36.76" x2="9.28" y2="-3.72"/><line class="cls-2" x1="-28.07" y1="32.82" x2="12.34" y2="-7.66"/><line class="cls-2" x1="-29.01" y1="32.89" x2="11.41" y2="-7.59"/><line class="cls-2" x1="-25.94" y1="28.96" x2="14.48" y2="-11.52"/><line class="cls-2" x1="-33.23" y1="35.67" x2="7.19" y2="-4.81"/><line class="cls-2" x1="-30.16" y1="31.74" x2="10.26" y2="-8.74"/><line class="cls-2" x1="-31.09" y1="31.8" x2="9.33" y2="-8.67"/><line class="cls-2" x1="-28.02" y1="27.87" x2="12.39" y2="-12.61"/><line class="cls-2" x1="-32.29" y1="38.6" x2="8.12" y2="-1.88"/><line class="cls-2" x1="-30.45" y1="37.45" x2="9.97" y2="-3.03"/><line class="cls-2" x1="-31.45" y1="48.44" x2="9.03" y2="8.03"/><line class="cls-2" x1="-27.47" y1="45.43" x2="13.01" y2="5.02"/><line class="cls-2" x1="-27.48" y1="46.41" x2="13" y2="6"/><line class="cls-2" x1="-31.67" y1="41.22" x2="8.81" y2="0.81"/><line class="cls-2" x1="-27.69" y1="38.21" x2="12.8" y2="-2.2"/><line class="cls-2" x1="-27.7" y1="39.19" x2="12.78" y2="-1.22"/><line class="cls-2" x1="-23.72" y1="36.18" x2="16.77" y2="-4.23"/><line class="cls-2" x1="-30.39" y1="43.5" x2="10.09" y2="3.09"/><line class="cls-2" x1="-26.41" y1="40.49" x2="14.07" y2="0.07"/><line class="cls-2" x1="-26.42" y1="41.47" x2="14.06" y2="1.06"/><line class="cls-2" x1="-22.44" y1="38.46" x2="18.04" y2="-1.95"/><line class="cls-2" x1="-33.56" y1="42.34" x2="6.92" y2="1.92"/><line class="cls-2" x1="-32.45" y1="40.45" x2="8.03" y2="0.03"/><line class="cls-2" x1="1.02" y1="28.15" x2="-30.68" y2="4.35"/><line class="cls-2" x1="0.4" y1="26.54" x2="-31.3" y2="2.74"/><line class="cls-2" x1="13.09" y1="19.48" x2="-18.51" y2="-4.46"/><line class="cls-2" x1="11.13" y1="16.38" x2="-20.47" y2="-7.56"/><line class="cls-2" x1="12.3" y1="15.65" x2="-19.3" y2="-8.29"/><line class="cls-2" x1="4.4" y1="25.3" x2="-27.19" y2="1.36"/><line class="cls-2" x1="2.44" y1="22.21" x2="-29.16" y2="-1.73"/><line class="cls-2" x1="3.61" y1="21.47" x2="-27.99" y2="-2.47"/><line class="cls-2" x1="1.64" y1="18.38" x2="-29.95" y2="-5.56"/><line class="cls-2" x1="7.64" y1="21.82" x2="-23.96" y2="-2.12"/><line class="cls-2" x1="5.68" y1="18.73" x2="-25.92" y2="-5.21"/><line class="cls-2" x1="6.84" y1="17.99" x2="-24.75" y2="-5.94"/><line class="cls-2" x1="4.88" y1="14.9" x2="-26.72" y2="-9.04"/><line class="cls-2" x1="4.96" y1="27.01" x2="-26.64" y2="3.07"/><line class="cls-2" x1="3.16" y1="26.95" x2="-28.44" y2="3.01"/><line class="cls-2" x1="68.16" y1="12.54" x2="36.46" y2="-11.26"/><line class="cls-2" x1="64.73" y1="11.39" x2="33.03" y2="-12.41"/><line class="cls-2" x1="64.43" y1="12.6" x2="32.73" y2="-11.2"/><line class="cls-2" x1="61" y1="11.45" x2="29.3" y2="-12.35"/><line class="cls-2" x1="66.02" y1="16.2" x2="34.32" y2="-7.6"/><line class="cls-2" x1="62.59" y1="15.05" x2="30.89" y2="-8.75"/><line class="cls-2" x1="62.29" y1="16.26" x2="30.58" y2="-7.54"/><line class="cls-2" x1="58.86" y1="15.11" x2="27.15" y2="-8.69"/><line class="cls-2" x1="70.73" y1="3.43" x2="39.03" y2="-20.37"/><line class="cls-2" x1="67.3" y1="2.29" x2="35.6" y2="-21.51"/><line class="cls-2" x1="67" y1="3.5" x2="35.3" y2="-20.3"/><line class="cls-2" x1="63.57" y1="2.35" x2="31.87" y2="-21.45"/><line class="cls-2" x1="68.58" y1="7.09" x2="36.88" y2="-16.71"/><line class="cls-2" x1="65.15" y1="5.95" x2="33.45" y2="-17.85"/><line class="cls-2" x1="64.85" y1="7.16" x2="33.15" y2="-16.64"/><line class="cls-2" x1="61.42" y1="6.01" x2="29.72" y2="-17.79"/><line class="cls-2" x1="70.85" y1="0.83" x2="39.15" y2="-22.97"/><line class="cls-2" x1="8.55" y1="8.44" x2="49.03" y2="-31.97"/><line class="cls-2" x1="12.53" y1="5.43" x2="53.01" y2="-34.98"/><line class="cls-2" x1="12.52" y1="6.41" x2="53" y2="-34"/><line class="cls-2" x1="8.33" y1="1.22" x2="48.81" y2="-39.19"/><line class="cls-2" x1="9.61" y1="3.5" x2="50.09" y2="-36.91"/><line class="cls-2" x1="13.59" y1="0.49" x2="54.07" y2="-39.93"/><line class="cls-2" x1="13.58" y1="1.47" x2="54.06" y2="-38.94"/><line class="cls-2" x1="6.44" y1="2.34" x2="46.92" y2="-38.08"/><line class="cls-2" x1="7.55" y1="0.45" x2="48.03" y2="-39.97"/><line class="cls-2" x1="28.16" y1="12.54" x2="-3.54" y2="-11.26"/><line class="cls-2" x1="24.73" y1="11.39" x2="-6.97" y2="-12.41"/><line class="cls-2" x1="24.43" y1="12.6" x2="-7.27" y2="-11.2"/><line class="cls-2" x1="21" y1="11.45" x2="-10.7" y2="-12.35"/><line class="cls-2" x1="26.02" y1="16.2" x2="-5.68" y2="-7.6"/><line class="cls-2" x1="22.59" y1="15.05" x2="-9.11" y2="-8.75"/><line class="cls-2" x1="22.29" y1="16.26" x2="-9.42" y2="-7.54"/><line class="cls-2" x1="18.86" y1="15.11" x2="-12.85" y2="-8.69"/><line class="cls-2" x1="30.73" y1="3.43" x2="-0.97" y2="-20.37"/><line class="cls-2" x1="27.3" y1="2.29" x2="-4.4" y2="-21.51"/><line class="cls-2" x1="27" y1="3.5" x2="-4.7" y2="-20.3"/><line class="cls-2" x1="23.57" y1="2.35" x2="-8.13" y2="-21.45"/><line class="cls-2" x1="28.58" y1="7.09" x2="-3.12" y2="-16.71"/><line class="cls-2" x1="25.15" y1="5.95" x2="-6.55" y2="-17.85"/><line class="cls-2" x1="24.85" y1="7.16" x2="-6.85" y2="-16.64"/><line class="cls-2" x1="21.42" y1="6.01" x2="-10.28" y2="-17.79"/><line class="cls-2" x1="34.58" y1="0.77" x2="2.88" y2="-23.03"/><line class="cls-2" x1="30.85" y1="0.83" x2="-0.85" y2="-22.97"/><line class="cls-2" x1="-31.45" y1="8.44" x2="9.03" y2="-31.97"/><line class="cls-2" x1="-27.47" y1="5.43" x2="13.01" y2="-34.98"/><line class="cls-2" x1="-27.48" y1="6.41" x2="13" y2="-34"/><line class="cls-2" x1="-31.67" y1="1.22" x2="8.81" y2="-39.19"/><line class="cls-2" x1="-30.39" y1="3.5" x2="10.09" y2="-36.91"/><line class="cls-2" x1="-26.41" y1="0.49" x2="14.07" y2="-39.93"/><line class="cls-2" x1="-26.42" y1="1.47" x2="14.06" y2="-38.94"/><line class="cls-2" x1="-33.56" y1="2.34" x2="6.92" y2="-38.08"/><line class="cls-2" x1="-32.45" y1="0.45" x2="8.03" y2="-39.97"/></pattern><pattern id="line-sadingwhite" data-name="line-sadingwhite" width="100" height="100" patternTransform="translate(1281 69)" patternUnits="userSpaceOnUse" viewBox="0 0 100 100"><rect class="cls-1" width="100" height="100"/><line class="cls-3" x1="99.88" y1="242.88" x2="259.78" y2="82.99"/><line class="cls-3" x1="88.48" y1="183.54" x2="190.51" y2="81.51"/><line class="cls-3" x1="83.27" y1="191.87" x2="192.95" y2="82.18"/><line class="cls-3" x1="85.07" y1="193.19" x2="197.35" y2="80.91"/><line class="cls-3" x1="78.68" y1="202.18" x2="203.26" y2="77.59"/><line class="cls-3" x1="80.99" y1="180.11" x2="182.55" y2="78.55"/><line class="cls-3" x1="75.78" y1="188.44" x2="185.47" y2="78.76"/><line class="cls-3" x1="77.58" y1="189.76" x2="189.86" y2="77.48"/><line class="cls-3" x1="71.19" y1="198.75" x2="195.77" y2="74.17"/><line class="cls-3" x1="89.78" y1="204.07" x2="216.65" y2="77.2"/><line class="cls-3" x1="82.65" y1="214.32" x2="223.42" y2="73.54"/><line class="cls-3" x1="84.52" y1="215.56" x2="228.62" y2="71.46"/><line class="cls-3" x1="75.95" y1="226.73" x2="235.84" y2="66.84"/><line class="cls-3" x1="81.71" y1="201.22" x2="208.59" y2="74.35"/><line class="cls-3" x1="74.58" y1="211.47" x2="215.36" y2="70.69"/><line class="cls-3" x1="76.45" y1="212.71" x2="220.56" y2="68.61"/><line class="cls-3" x1="67.88" y1="223.88" x2="227.78" y2="63.99"/><line class="cls-3" x1="92.81" y1="212.47" x2="233.58" y2="71.7"/><line class="cls-3" x1="94.68" y1="213.72" x2="238.78" y2="69.62"/><line class="cls-3" x1="86.1" y1="224.89" x2="246" y2="65"/><line class="cls-3" x1="17.07" y1="212.19" x2="129.35" y2="99.91"/><line class="cls-3" x1="10.68" y1="221.18" x2="135.26" y2="96.59"/><line class="cls-3" x1="12.99" y1="199.11" x2="114.55" y2="97.55"/><line class="cls-3" x1="7.78" y1="207.44" x2="117.47" y2="97.76"/><line class="cls-3" x1="9.58" y1="208.76" x2="121.86" y2="96.48"/><line class="cls-3" x1="3.19" y1="217.75" x2="127.77" y2="93.17"/><line class="cls-3" x1="21.78" y1="223.07" x2="148.65" y2="96.2"/><line class="cls-3" x1="14.65" y1="233.32" x2="155.42" y2="92.54"/><line class="cls-3" x1="16.52" y1="234.56" x2="160.62" y2="90.46"/><line class="cls-3" x1="7.95" y1="245.73" x2="167.84" y2="85.84"/><line class="cls-3" x1="13.71" y1="220.22" x2="140.59" y2="93.35"/><line class="cls-3" x1="6.58" y1="230.47" x2="147.36" y2="89.69"/><line class="cls-3" x1="8.45" y1="231.71" x2="152.56" y2="87.61"/><line class="cls-3" x1="-0.12" y1="242.88" x2="159.78" y2="82.99"/><line class="cls-3" x1="24.81" y1="231.47" x2="165.58" y2="90.7"/><line class="cls-3" x1="26.68" y1="232.72" x2="170.78" y2="88.62"/><line class="cls-3" x1="18.1" y1="243.89" x2="178" y2="84"/><line class="cls-3" x1="-11.52" y1="183.54" x2="90.51" y2="81.51"/><line class="cls-3" x1="-16.73" y1="191.87" x2="92.95" y2="82.18"/><line class="cls-3" x1="-14.93" y1="193.19" x2="97.35" y2="80.91"/><line class="cls-3" x1="-21.32" y1="202.18" x2="103.26" y2="77.59"/><line class="cls-3" x1="-19.01" y1="180.11" x2="82.55" y2="78.55"/><line class="cls-3" x1="-24.22" y1="188.44" x2="85.47" y2="78.76"/><line class="cls-3" x1="-22.42" y1="189.76" x2="89.86" y2="77.48"/><line class="cls-3" x1="-28.81" y1="198.75" x2="95.77" y2="74.17"/><line class="cls-3" x1="-10.22" y1="204.07" x2="116.65" y2="77.2"/><line class="cls-3" x1="-17.35" y1="214.32" x2="123.42" y2="73.54"/><line class="cls-3" x1="-15.48" y1="215.56" x2="128.62" y2="71.46"/><line class="cls-3" x1="-24.05" y1="226.73" x2="135.84" y2="66.84"/><line class="cls-3" x1="-18.29" y1="201.22" x2="108.59" y2="74.35"/><line class="cls-3" x1="-25.42" y1="211.47" x2="115.36" y2="70.69"/><line class="cls-3" x1="-23.55" y1="212.71" x2="120.56" y2="68.61"/><line class="cls-3" x1="-32.12" y1="223.88" x2="127.78" y2="63.99"/><line class="cls-3" x1="-7.19" y1="212.47" x2="133.58" y2="71.7"/><line class="cls-3" x1="-5.32" y1="213.72" x2="138.78" y2="69.62"/><line class="cls-3" x1="-13.9" y1="224.89" x2="146" y2="65"/><line class="cls-3" x1="-82.93" y1="212.19" x2="29.35" y2="99.91"/><line class="cls-3" x1="-89.32" y1="221.18" x2="35.26" y2="96.59"/><line class="cls-3" x1="-87.01" y1="199.11" x2="14.55" y2="97.55"/><line class="cls-3" x1="-92.22" y1="207.44" x2="17.47" y2="97.76"/><line class="cls-3" x1="-90.42" y1="208.76" x2="21.86" y2="96.48"/><line class="cls-3" x1="-96.81" y1="217.75" x2="27.77" y2="93.17"/><line class="cls-3" x1="-78.22" y1="223.07" x2="48.65" y2="96.2"/><line class="cls-3" x1="-85.35" y1="233.32" x2="55.42" y2="92.54"/><line class="cls-3" x1="-83.48" y1="234.56" x2="60.62" y2="90.46"/><line class="cls-3" x1="-92.05" y1="245.73" x2="67.84" y2="85.84"/><line class="cls-3" x1="-86.29" y1="220.22" x2="40.59" y2="93.35"/><line class="cls-3" x1="-93.42" y1="230.47" x2="47.36" y2="89.69"/><line class="cls-3" x1="-91.55" y1="231.71" x2="52.56" y2="87.61"/><line class="cls-3" x1="-100.12" y1="242.88" x2="59.78" y2="82.99"/><line class="cls-3" x1="-75.19" y1="231.47" x2="65.58" y2="90.7"/><line class="cls-3" x1="-73.32" y1="232.72" x2="70.78" y2="88.62"/><line class="cls-3" x1="-81.9" y1="243.89" x2="78" y2="84"/><line class="cls-3" x1="-121.32" y1="202.18" x2="3.26" y2="77.59"/><line class="cls-3" x1="-110.22" y1="204.07" x2="16.65" y2="77.2"/><line class="cls-3" x1="-117.35" y1="214.32" x2="23.42" y2="73.54"/><line class="cls-3" x1="-115.48" y1="215.56" x2="28.62" y2="71.46"/><line class="cls-3" x1="-124.05" y1="226.73" x2="35.84" y2="66.84"/><line class="cls-3" x1="-118.29" y1="201.22" x2="8.59" y2="74.35"/><line class="cls-3" x1="-125.42" y1="211.47" x2="15.36" y2="70.69"/><line class="cls-3" x1="-123.55" y1="212.71" x2="20.56" y2="68.61"/><line class="cls-3" x1="-132.12" y1="223.88" x2="27.78" y2="63.99"/><line class="cls-3" x1="-107.19" y1="212.47" x2="33.58" y2="71.7"/><line class="cls-3" x1="-105.32" y1="213.72" x2="38.78" y2="69.62"/><line class="cls-3" x1="-113.9" y1="224.89" x2="46" y2="65"/><line class="cls-3" x1="99.88" y1="142.88" x2="259.78" y2="-17.01"/><line class="cls-3" x1="88.48" y1="83.54" x2="190.51" y2="-18.49"/><line class="cls-3" x1="83.27" y1="91.87" x2="192.95" y2="-17.82"/><line class="cls-3" x1="85.07" y1="93.19" x2="197.35" y2="-19.09"/><line class="cls-3" x1="78.68" y1="102.18" x2="203.26" y2="-22.41"/><line class="cls-3" x1="80.99" y1="80.11" x2="182.55" y2="-21.45"/><line class="cls-3" x1="75.78" y1="88.44" x2="185.47" y2="-21.24"/><line class="cls-3" x1="77.58" y1="89.76" x2="189.86" y2="-22.52"/><line class="cls-3" x1="71.19" y1="98.75" x2="195.77" y2="-25.83"/><line class="cls-3" x1="89.78" y1="104.07" x2="216.65" y2="-22.8"/><line class="cls-3" x1="82.65" y1="114.32" x2="223.42" y2="-26.46"/><line class="cls-3" x1="84.52" y1="115.56" x2="228.62" y2="-28.54"/><line class="cls-3" x1="75.95" y1="126.73" x2="235.84" y2="-33.16"/><line class="cls-3" x1="81.71" y1="101.22" x2="208.59" y2="-25.65"/><line class="cls-3" x1="74.58" y1="111.47" x2="215.36" y2="-29.31"/><line class="cls-3" x1="76.45" y1="112.71" x2="220.56" y2="-31.39"/><line class="cls-3" x1="67.88" y1="123.88" x2="227.78" y2="-36.01"/><line class="cls-3" x1="92.81" y1="112.47" x2="233.58" y2="-28.3"/><line class="cls-3" x1="94.68" y1="113.72" x2="238.78" y2="-30.38"/><line class="cls-3" x1="86.1" y1="124.89" x2="246" y2="-35"/><line class="cls-3" x1="20.48" y1="102.54" x2="122.51" y2="0.51"/><line class="cls-3" x1="15.27" y1="110.87" x2="124.95" y2="1.18"/><line class="cls-3" x1="17.07" y1="112.19" x2="129.35" y2="-0.09"/><line class="cls-3" x1="10.68" y1="121.18" x2="135.26" y2="-3.41"/><line class="cls-3" x1="12.99" y1="99.11" x2="114.55" y2="-2.45"/><line class="cls-3" x1="7.78" y1="107.44" x2="117.47" y2="-2.24"/><line class="cls-3" x1="9.58" y1="108.76" x2="121.86" y2="-3.52"/><line class="cls-3" x1="3.19" y1="117.75" x2="127.77" y2="-6.83"/><line class="cls-3" x1="21.78" y1="123.07" x2="148.65" y2="-3.8"/><line class="cls-3" x1="14.65" y1="133.32" x2="155.42" y2="-7.46"/><line class="cls-3" x1="16.52" y1="134.56" x2="160.62" y2="-9.54"/><line class="cls-3" x1="7.95" y1="145.73" x2="167.84" y2="-14.16"/><line class="cls-3" x1="13.71" y1="120.22" x2="140.59" y2="-6.65"/><line class="cls-3" x1="6.58" y1="130.47" x2="147.36" y2="-10.31"/><line class="cls-3" x1="8.45" y1="131.71" x2="152.56" y2="-12.39"/><line class="cls-3" x1="-0.12" y1="142.88" x2="159.78" y2="-17.01"/><line class="cls-3" x1="24.81" y1="131.47" x2="165.58" y2="-9.3"/><line class="cls-3" x1="26.68" y1="132.72" x2="170.78" y2="-11.38"/><line class="cls-3" x1="18.1" y1="143.89" x2="178" y2="-16"/><line class="cls-3" x1="-11.52" y1="83.54" x2="90.51" y2="-18.49"/><line class="cls-3" x1="-16.73" y1="91.87" x2="92.95" y2="-17.82"/><line class="cls-3" x1="-14.93" y1="93.19" x2="97.35" y2="-19.09"/><line class="cls-3" x1="-21.32" y1="102.18" x2="103.26" y2="-22.41"/><line class="cls-3" x1="-19.01" y1="80.11" x2="82.55" y2="-21.45"/><line class="cls-3" x1="-24.22" y1="88.44" x2="85.47" y2="-21.24"/><line class="cls-3" x1="-22.42" y1="89.76" x2="89.86" y2="-22.52"/><line class="cls-3" x1="-28.81" y1="98.75" x2="95.77" y2="-25.83"/><line class="cls-3" x1="-10.22" y1="104.07" x2="116.65" y2="-22.8"/><line class="cls-3" x1="-17.35" y1="114.32" x2="123.42" y2="-26.46"/><line class="cls-3" x1="-15.48" y1="115.56" x2="128.62" y2="-28.54"/><line class="cls-3" x1="-24.05" y1="126.73" x2="135.84" y2="-33.16"/><line class="cls-3" x1="-18.29" y1="101.22" x2="108.59" y2="-25.65"/><line class="cls-3" x1="-25.42" y1="111.47" x2="115.36" y2="-29.31"/><line class="cls-3" x1="-23.55" y1="112.71" x2="120.56" y2="-31.39"/><line class="cls-3" x1="-32.12" y1="123.88" x2="127.78" y2="-36.01"/><line class="cls-3" x1="-7.19" y1="112.47" x2="133.58" y2="-28.3"/><line class="cls-3" x1="-5.32" y1="113.72" x2="138.78" y2="-30.38"/><line class="cls-3" x1="-13.9" y1="124.89" x2="146" y2="-35"/><line class="cls-3" x1="-79.52" y1="102.54" x2="22.51" y2="0.51"/><line class="cls-3" x1="-84.73" y1="110.87" x2="24.95" y2="1.18"/><line class="cls-3" x1="-82.93" y1="112.19" x2="29.35" y2="-0.09"/><line class="cls-3" x1="-89.32" y1="121.18" x2="35.26" y2="-3.41"/><line class="cls-3" x1="-87.01" y1="99.11" x2="14.55" y2="-2.45"/><line class="cls-3" x1="-92.22" y1="107.44" x2="17.47" y2="-2.24"/><line class="cls-3" x1="-90.42" y1="108.76" x2="21.86" y2="-3.52"/><line class="cls-3" x1="-96.81" y1="117.75" x2="27.77" y2="-6.83"/><line class="cls-3" x1="-78.22" y1="123.07" x2="48.65" y2="-3.8"/><line class="cls-3" x1="-85.35" y1="133.32" x2="55.42" y2="-7.46"/><line class="cls-3" x1="-83.48" y1="134.56" x2="60.62" y2="-9.54"/><line class="cls-3" x1="-92.05" y1="145.73" x2="67.84" y2="-14.16"/><line class="cls-3" x1="-86.29" y1="120.22" x2="40.59" y2="-6.65"/><line class="cls-3" x1="-93.42" y1="130.47" x2="47.36" y2="-10.31"/><line class="cls-3" x1="-91.55" y1="131.71" x2="52.56" y2="-12.39"/><line class="cls-3" x1="-100.12" y1="142.88" x2="59.78" y2="-17.01"/><line class="cls-3" x1="-75.19" y1="131.47" x2="65.58" y2="-9.3"/><line class="cls-3" x1="-73.32" y1="132.72" x2="70.78" y2="-11.38"/><line class="cls-3" x1="-81.9" y1="143.89" x2="78" y2="-16"/><line class="cls-3" x1="-121.32" y1="102.18" x2="3.26" y2="-22.41"/><line class="cls-3" x1="-110.22" y1="104.07" x2="16.65" y2="-22.8"/><line class="cls-3" x1="-117.35" y1="114.32" x2="23.42" y2="-26.46"/><line class="cls-3" x1="-115.48" y1="115.56" x2="28.62" y2="-28.54"/><line class="cls-3" x1="-124.05" y1="126.73" x2="35.84" y2="-33.16"/><line class="cls-3" x1="-118.29" y1="101.22" x2="8.59" y2="-25.65"/><line class="cls-3" x1="-125.42" y1="111.47" x2="15.36" y2="-29.31"/><line class="cls-3" x1="-123.55" y1="112.71" x2="20.56" y2="-31.39"/><line class="cls-3" x1="-132.12" y1="123.88" x2="27.78" y2="-36.01"/><line class="cls-3" x1="-107.19" y1="112.47" x2="33.58" y2="-28.3"/><line class="cls-3" x1="-105.32" y1="113.72" x2="38.78" y2="-30.38"/><line class="cls-3" x1="-113.9" y1="124.89" x2="46" y2="-35"/><line class="cls-3" x1="99.88" y1="42.88" x2="259.78" y2="-117.01"/><line class="cls-3" x1="78.68" y1="2.18" x2="203.26" y2="-122.41"/><line class="cls-3" x1="89.78" y1="4.07" x2="216.65" y2="-122.8"/><line class="cls-3" x1="82.65" y1="14.32" x2="223.42" y2="-126.46"/><line class="cls-3" x1="84.52" y1="15.56" x2="228.62" y2="-128.54"/><line class="cls-3" x1="75.95" y1="26.73" x2="235.84" y2="-133.16"/><line class="cls-3" x1="81.71" y1="1.22" x2="208.59" y2="-125.65"/><line class="cls-3" x1="74.58" y1="11.47" x2="215.36" y2="-129.31"/><line class="cls-3" x1="76.45" y1="12.71" x2="220.56" y2="-131.39"/><line class="cls-3" x1="67.88" y1="23.88" x2="227.78" y2="-136.01"/><line class="cls-3" x1="92.81" y1="12.47" x2="233.58" y2="-128.3"/><line class="cls-3" x1="94.68" y1="13.72" x2="238.78" y2="-130.38"/><line class="cls-3" x1="86.1" y1="24.89" x2="246" y2="-135"/><line class="cls-3" x1="20.48" y1="2.54" x2="122.51" y2="-99.49"/><line class="cls-3" x1="15.27" y1="10.87" x2="124.95" y2="-98.82"/><line class="cls-3" x1="17.07" y1="12.19" x2="129.35" y2="-100.09"/><line class="cls-3" x1="10.68" y1="21.18" x2="135.26" y2="-103.41"/><line class="cls-3" x1="7.78" y1="7.44" x2="117.47" y2="-102.24"/><line class="cls-3" x1="9.58" y1="8.76" x2="121.86" y2="-103.52"/><line class="cls-3" x1="3.19" y1="17.75" x2="127.77" y2="-106.83"/><line class="cls-3" x1="21.78" y1="23.07" x2="148.65" y2="-103.8"/><line class="cls-3" x1="14.65" y1="33.32" x2="155.42" y2="-107.46"/><line class="cls-3" x1="16.52" y1="34.56" x2="160.62" y2="-109.54"/><line class="cls-3" x1="7.95" y1="45.73" x2="167.84" y2="-114.16"/><line class="cls-3" x1="13.71" y1="20.22" x2="140.59" y2="-106.65"/><line class="cls-3" x1="6.58" y1="30.47" x2="147.36" y2="-110.31"/><line class="cls-3" x1="8.45" y1="31.71" x2="152.56" y2="-112.39"/><line class="cls-3" x1="-0.12" y1="42.88" x2="159.78" y2="-117.01"/><line class="cls-3" x1="24.81" y1="31.47" x2="165.58" y2="-109.3"/><line class="cls-3" x1="26.68" y1="32.72" x2="170.78" y2="-111.38"/><line class="cls-3" x1="18.1" y1="43.89" x2="178" y2="-116"/><line class="cls-3" x1="-21.32" y1="2.18" x2="103.26" y2="-122.41"/><line class="cls-3" x1="-10.22" y1="4.07" x2="116.65" y2="-122.8"/><line class="cls-3" x1="-17.35" y1="14.32" x2="123.42" y2="-126.46"/><line class="cls-3" x1="-15.48" y1="15.56" x2="128.62" y2="-128.54"/><line class="cls-3" x1="-24.05" y1="26.73" x2="135.84" y2="-133.16"/><line class="cls-3" x1="-18.29" y1="1.22" x2="108.59" y2="-125.65"/><line class="cls-3" x1="-25.42" y1="11.47" x2="115.36" y2="-129.31"/><line class="cls-3" x1="-23.55" y1="12.71" x2="120.56" y2="-131.39"/><line class="cls-3" x1="-32.12" y1="23.88" x2="127.78" y2="-136.01"/><line class="cls-3" x1="-7.19" y1="12.47" x2="133.58" y2="-128.3"/><line class="cls-3" x1="-5.32" y1="13.72" x2="138.78" y2="-130.38"/><line class="cls-3" x1="-13.9" y1="24.89" x2="146" y2="-135"/><line class="cls-3" x1="-79.52" y1="2.54" x2="22.51" y2="-99.49"/><line class="cls-3" x1="-84.73" y1="10.87" x2="24.95" y2="-98.82"/><line class="cls-3" x1="-82.93" y1="12.19" x2="29.35" y2="-100.09"/><line class="cls-3" x1="-89.32" y1="21.18" x2="35.26" y2="-103.41"/><line class="cls-3" x1="-92.22" y1="7.44" x2="17.47" y2="-102.24"/><line class="cls-3" x1="-90.42" y1="8.76" x2="21.86" y2="-103.52"/><line class="cls-3" x1="-96.81" y1="17.75" x2="27.77" y2="-106.83"/><line class="cls-3" x1="-78.22" y1="23.07" x2="48.65" y2="-103.8"/><line class="cls-3" x1="-85.35" y1="33.32" x2="55.42" y2="-107.46"/><line class="cls-3" x1="-83.48" y1="34.56" x2="60.62" y2="-109.54"/><line class="cls-3" x1="-92.05" y1="45.73" x2="67.84" y2="-114.16"/><line class="cls-3" x1="-86.29" y1="20.22" x2="40.59" y2="-106.65"/><line class="cls-3" x1="-93.42" y1="30.47" x2="47.36" y2="-110.31"/><line class="cls-3" x1="-91.55" y1="31.71" x2="52.56" y2="-112.39"/><line class="cls-3" x1="-100.12" y1="42.88" x2="59.78" y2="-117.01"/><line class="cls-3" x1="-75.19" y1="31.47" x2="65.58" y2="-109.3"/><line class="cls-3" x1="-73.32" y1="32.72" x2="70.78" y2="-111.38"/><line class="cls-3" x1="-81.9" y1="43.89" x2="78" y2="-116"/><line class="cls-3" x1="-121.32" y1="2.18" x2="3.26" y2="-122.41"/><line class="cls-3" x1="-110.22" y1="4.07" x2="16.65" y2="-122.8"/><line class="cls-3" x1="-117.35" y1="14.32" x2="23.42" y2="-126.46"/><line class="cls-3" x1="-115.48" y1="15.56" x2="28.62" y2="-128.54"/><line class="cls-3" x1="-124.05" y1="26.73" x2="35.84" y2="-133.16"/><line class="cls-3" x1="-118.29" y1="1.22" x2="8.59" y2="-125.65"/><line class="cls-3" x1="-125.42" y1="11.47" x2="15.36" y2="-129.31"/><line class="cls-3" x1="-123.55" y1="12.71" x2="20.56" y2="-131.39"/><line class="cls-3" x1="-132.12" y1="23.88" x2="27.78" y2="-136.01"/><line class="cls-3" x1="-107.19" y1="12.47" x2="33.58" y2="-128.3"/><line class="cls-3" x1="-105.32" y1="13.72" x2="38.78" y2="-130.38"/><line class="cls-3" x1="-113.9" y1="24.89" x2="46" y2="-135"/></pattern></defs><title>Artboard 2</title><g id="Layer_6" data-name="Layer 6"><path class="cls-4" d="M337,146.5l2.39,3.08.07.08,0,0,5.94,5.92h0l1,.87Zm-6.38-10.58,0,.07.06.11,1.93,3.8.13.24.06.1,2.95,4.68.05.08,0,.06L337,146.5l-7.21-12.65Zm-2.21-5.51,0,.07v0l.6,1.49-1.56-4.49Zm-26.35-16,2.71.58-6.07-1.37Zm-40.57-9.28,1.76.55h0l.56.12.88.19,2.53.5-5.69-1.36Zm-28.9-9.21,4.49,1.51,4.38,1.38-10-3.27ZM159.89,71.75l.65.22,11.92,3.92L139.58,63.72ZM119.26,55.69l20.32,8-35.2-15ZM83.6,39l20.78,9.74L71,32.36Zm-56-29.75L38,15.06l.15.09.07,0,32.46,17L27.75,9.3Z"/><path class="cls-4" d="M534.5,277.5l-1-6,.32-5.26h0A45.12,45.12,0,0,0,523.5,253.5c-.91-1.95-2.25-4.73-4-8-3.65-6.79-7.45-13.87-14-21a71.83,71.83,0,0,0-10-9l-21-27a160.63,160.63,0,0,0-19-29c-2.67-3.24-5.35-6.23-8-9-29.67-37.17-43.72-51.32-51-57,0,0-7.45-5.81-17-14-5.83-5-8.79-7.55-11-10-5.39-6-6.64-9.37-12-14a44,44,0,0,0-9-6c-2.11-.62-5.26-1.61-9-3-11.88-4.41-16.72-8.06-30-15-9.79-5.12-16.41-8.57-26-12-9.39-3.36-11.44-3-20-6a133.24,133.24,0,0,1-27-13l-4-2-228-3L11.24,0S25.5.5,49.5-3.5c1.89-.31,3,2.36,4.47,3.5A369.8,369.8,0,0,0,127.5,44.5c24.54,11.13,20.6,6,78,28,42.13,16.16,47.5,20.18,63,20,10.12-.12,24.82-2,45,3a122.36,122.36,0,0,1,19.29,6.58L327.5,91.5a34.91,34.91,0,0,1,4,7,37.55,37.55,0,0,1,2,22c1.67,6.27,3.44,11.65,5,16,3.48,9.67,6.83,17.63,8,20a62.43,62.43,0,0,0,14,24,48.54,48.54,0,0,0,8,15c2,2.47,3.8,4.18,6,8a52.35,52.35,0,0,1,4,9,63.23,63.23,0,0,1,2,7c1.95,8.54,6.15,26.89,19,38,2.15,1.86,6.27,5.42,10.91,6.87a11.52,11.52,0,0,0,7.09.13c3.76-1.23,8.08-5.14,9-10a11.06,11.06,0,0,0,0-4c-2.08-13.16-3.5-22.09-10-31-2.06-2.82-4-4.74-6-9-.34-.7-.66-1.43-1-2.28-.06-.15-.12-.3-.17-.46a60.44,60.44,0,0,1-1.85-6.26c-.2-.79-.4-1.64-.61-2.55-.65-2.86-1.31-6.3-1.87-10.27-.15-1-.29-2.11-.41-3.22v-.09c0-.29-.07-.58-.1-.87.29-.13.73-.33,1.32-.54l.08,0h0a17,17,0,0,1,18.59,4.57l1-10,2,12,26,16,3,6,.48.86h0l1.69,2.77,2.85,4.08,3.84,4.62,3.46,3.49,0,0,.07.06,2.1,1.88h0l3.49,2.76.56.41,3,2,0,0,.08.05,3.26,1.92.66,1,0,.07,4.17,5.7.07.1.09.11,3.21,3.9.09.11.08.09,3.8,4.15.11.12.08.08,4.3,4.2c2.13,2,4.24,3.76,6.29,5.39a61.63,61.63,0,0,0,3.69,7.9l0,0,4.28,6.06.43.66,6.6,6.34,8.41,3.76,8.88.83,3.35-2.85a6,6,0,0,0,.33-1.74h1.39ZM407.83,239.58a11.52,11.52,0,0,1,9.67-.08l4,4a12.75,12.75,0,0,1,3,11,19.78,19.78,0,0,1-11,6,17.82,17.82,0,0,1-3.47.23,18.1,18.1,0,0,1-2.53-.23l-7-11,1-5A18.18,18.18,0,0,1,407.83,239.58Z"/><path class="cls-5" d="M38,15.06C33.24,12.47,28.76,10,24.6,7.62L23.5,7l-1.66-.94C18,3.89,14.46,1.86,11.24,0L27.42,9.12h0l.15.09.16.08Z"/><path class="cls-5" d="M83.6,39C67.19,30.84,51.66,22.6,38.18,15.19l32.46,17h0l.15.08.18.09Z"/><path class="cls-5" d="M83.6,39l35.66,16.72C107.21,50.4,95.19,44.72,83.6,39Z"/><path class="cls-5" d="M119.26,55.69l40.63,16.06c-2.1-.72-4.16-1.44-6.39-2.25C142.31,65.46,130.78,60.76,119.26,55.69Z"/><path class="cls-5" d="M177.72,77.62,175,76.74l-2.1-.69-.05,0c-5-1.61-8.73-2.84-12.31-4.06l11.92,3.92.07,0,.07,0Z"/><path class="cls-4" d="M263.27,105.64c-1.7-.39-3.4-.83-5.39-1.42h0c-4.41-1.3-10.26-3.28-20.76-6.83l4.38,1.38.25.08,19.72,6.22.06,0h.06Z"/><path class="cls-4" d="M302.08,114.37c-2.4-.52-4.79-1.08-7.18-1.65l-.24,0-5.54-1.34,9.16,2.15.21,0,.23,0Z"/><path class="cls-4" d="M327.5,127.5l-4.67-3.33-.06,0-2.27-1.62c-.3-.31-.67-.68-1.1-1.08l0,0c-.35-.33-.74-.67-1.18-1Z"/><path class="cls-4" d="M327.5,127.5l.93,2.91Q327.89,128.87,327.5,127.5Z"/><path class="cls-4" d="M330.64,135.92c-.4-.86-.76-1.71-1.08-2.52h0v0l0-.05c-.4-1-.75-1.92-1.06-2.82l.6,1.49,0,.06,0,.06v0l.66,1.64,0,0v0Z"/><path class="cls-4" d="M330.73,136.1l1.93,3.8C331.94,138.6,331.3,137.33,330.73,136.1Z"/><path class="cls-4" d="M332.85,140.24l2.95,4.68A53.66,53.66,0,0,1,332.85,140.24Z"/><path class="cls-4" d="M335.9,145.06l3.51,4.52c-.3-.35-.61-.71-.91-1.08Q337.09,146.77,335.9,145.06Z"/><path class="cls-4" d="M339.52,149.7l5.94,5.92A56,56,0,0,1,339.52,149.7Z"/><path class="cls-4" d="M458.68,216.13c-.62-1-1.18-1.89-1.69-2.77Z"/><path class="cls-4" d="M461.53,220.21q-1.61-2.11-2.85-4.08Z"/><path class="cls-4" d="M465.37,224.83c-1.43-1.56-2.71-3.11-3.84-4.62Z"/><path class="cls-4" d="M468.83,228.32c-1.24-1.15-2.4-2.32-3.46-3.49Z"/><path class="cls-4" d="M474.54,233.06q-1-.75-2-1.56c-.5-.4-1-.79-1.45-1.2Z"/><path class="cls-4" d="M478.12,235.5c-1-.62-2-1.3-3-2Z"/><path class="cls-4" d="M481.5,237.5c-1.05-.58-2.14-1.22-3.26-1.92Z"/><path class="cls-4" d="M486.38,244.25c-1.53-1.95-2.91-3.86-4.17-5.7Z"/><path class="cls-4" d="M489.75,248.36c-1.14-1.31-2.2-2.62-3.21-3.9Z"/><path class="cls-4" d="M493.72,252.71c-1.34-1.39-2.61-2.78-3.8-4.15Z"/><path class="cls-4" d="M498.21,257.11c-.57-.52-1.14-1.06-1.71-1.61-.89-.86-1.76-1.73-2.59-2.59Z"/><path class="cls-4" d="M519.53,283.5a31,31,0,0,1-6-5.44c-.47-.53-.92-1.07-1.34-1.62l0,0a44.85,44.85,0,0,1-3-4.4c-.33-.53-.63-1.06-.92-1.58l4.28,6.06.43.66Z"/><path class="cls-4" d="M536.82,288.09c-3.87.94-9.7-1-11.32-1.59a24.22,24.22,0,0,1-6-3l8.41,3.76Z"/><path class="cls-4" d="M540.17,285.24a4.42,4.42,0,0,1-.67,1.26,4.68,4.68,0,0,1-2.68,1.59Z"/><path class="cls-6" d="M545.5,283.5h-3.61l-7.39-6-1-6,.32-5.26c.28.5.5.93.68,1.26A95.76,95.76,0,0,0,545.5,283.5Z"/><polyline class="cls-4" points="548.67 288.89 545.5 287.5 542.29 283.94 541.89 283.5"/><polyline class="cls-4" points="398.5 146.5 401.5 150.5 403.5 164.5 403.5 176.5 404.6 185.37"/><path class="cls-7" d="M520.8,289.24l-2.3,1.26-4,1a28.1,28.1,0,0,1-13-4c-6.07-3.77-6-7.32-14-18-7.09-9.43-10-10.49-16-20a97.32,97.32,0,0,1-5-9,97.73,97.73,0,0,1-17-16,95.2,95.2,0,0,1-6-8,9.32,9.32,0,0,1-3-1c-2.57-1.4-2.85-3.21-5-4-1.24-.45-1.72-.06-4,0a21.19,21.19,0,0,1-3.91-.28l-1.7-.35c-.45-.1-.91-.23-1.39-.37l-3.78-.68-11.37-2.06L406.89,199,405,188.68l-.52-4.18,1.32-.54.08,0h0l6.59,1.57a42.33,42.33,0,0,1,10,9,43.82,43.82,0,0,1,4,6c2.32,3.89,7.81,8.37,21.6,11.2,1.38.28,2.85.55,4.4.8l4.48.86h0c.51.88,1.07,1.81,1.69,2.77q1.24,2,2.85,4.08c1.13,1.51,2.41,3.06,3.84,4.62,1.06,1.17,2.22,2.34,3.46,3.49l0,0,.07.06,2.1,1.88h0c.47.41.95.8,1.45,1.2q1,.81,2,1.56l.26.2.3.21c1,.73,2,1.41,3,2l0,0,.08.05c1.12.7,2.21,1.34,3.26,1.92l.66,1,0,.07c1.26,1.84,2.64,3.75,4.17,5.7l.07.1.09.11c1,1.28,2.07,2.59,3.21,3.9l.09.11.08.09c1.19,1.37,2.46,2.76,3.8,4.15l.11.12.08.08c.83.86,1.7,1.73,2.59,2.59.57.55,1.14,1.09,1.71,1.61l.66,1.29.82,1.59,1.81,3.51,1.36,1.52,6.28,7a44.85,44.85,0,0,0,3,4.4,58.62,58.62,0,0,0,4.34,7.08c1.07,1.51,2.16,3,3.29,4.49C520.12,288.41,520.45,288.83,520.8,289.24Z"/><polyline class="cls-4" points="512.93 277.16 513.52 278.06 520.8 289.24"/><path class="cls-6" d="M457,213.36l-4.48-.86c-1.55-.25-3-.52-4.4-.8-13.79-2.83-19.28-7.31-21.6-11.2a43.82,43.82,0,0,0-4-6,42.33,42.33,0,0,0-10-9l-6.59-1.57a17,17,0,0,1,18.59,4.57l1-10,2,12,26,16,3,6Z"/><path class="cls-7" d="M550.5,289.5l-1.83-.61-1.17-.39a10.79,10.79,0,0,1-3,7c-4.08,3.91-10.47,2.37-12,2-4.92-1.18-8.55-4.42-11.7-8.26-.35-.41-.68-.83-1-1.25-1.13-1.46-2.22-3-3.29-4.49a58.62,58.62,0,0,1-4.34-7.08l0,0,.75.72,6.6,6.34,8.41,3.76,8.88.83,3.35-2.85,2.12-1.3.71-.44h2.5Z"/><path class="cls-6" d="M429.5,221.5v12l-1,4-1,7,1,8c-.26,9.85-.66,17.38-1,21a6.32,6.32,0,0,1-1,3,7.38,7.38,0,0,1-6,3c-3.52-.06-7-3.28-8-8l-2.09-7.13a11.52,11.52,0,0,0,7.09.13c3.76-1.23,8.08-5.14,9-10a11.06,11.06,0,0,0,0-4c-2.08-13.16-3.5-22.09-10-31-2.06-2.82-4-4.74-6-9-.34-.7-.66-1.43-1-2.28l11.2,1.6,5.17,1.05c.6.15,1.17.26,1.7.35Z"/><path class="cls-4" d="M427.59,211.22c-.53-.09-1.1-.2-1.7-.35Z"/><line class="cls-4" x1="288.94" y1="111.29" x2="263.85" y2="105.77"/><polyline class="cls-5" points="202.89 85.91 204.27 86.38 204.86 86.57"/><polyline class="cls-5" points="206.32 87.06 207.84 87.57 229.23 94.75 229.72 94.91 232.61 95.88"/><polyline class="cls-5" points="186.88 80.62 189.07 81.34 192.57 82.49"/><path class="cls-7" d="M346.5,156.5l-9.48-10-7.21-12.65v0l-.68-1.67v0l0-.06,0-.06-1.56-4.49-9.33-7.14-.43-.33c-.24-.19-.5-.38-.77-.57l0,0c-.44-.32-.92-.63-1.44-.94a23.15,23.15,0,0,0-4.17-2c-.4-.15-.79-.27-1.14-.37l0,0-.07,0a24.11,24.11,0,0,0-2.58-.63l-2.41-.49-.3-.06-6.07-1.37-.23,0-.21,0-9.16-2.15-.18,0c-7.12-1.73-14.24-3.47-21.44-4.79a.51.51,0,0,0-.17,0h-.07l-5.69-1.36h-.06l-.06,0-19.72-6.22-.25-.08-10-3.27-.47-.16c-8.33-2.81-15.58-5.25-21.93-7.35l-1.26-.42-1.52-.51-1.38-.46-.08,0-2-.66-3.11-1-.75-.25-6.46-2.13-3.5-1.15-2.19-.72L181,78.68l-3.24-1.06-5.19-1.71-.07,0L139.58,63.72l-35.2-15L71,32.36l-.18-.09-.15-.08h0L27.75,9.3l-.16-.08-.15-.09h0L11.24,0S25.5.5,49.5-3.5c1.89-.31,3,2.36,4.47,3.5A369.8,369.8,0,0,0,127.5,44.5c24.54,11.13,20.6,6,78,28,42.13,16.16,47.5,20.18,63,20,10.12-.12,24.82-2,45,3a122.36,122.36,0,0,1,19.29,6.58L327.5,91.5a34.91,34.91,0,0,1,4,7,37.55,37.55,0,0,1,2,22c1.67,6.27,3.44,11.65,5,16C342,146.17,345.33,154.13,346.5,156.5Z"/><polygon class="cls-4" points="11.24 0 27.42 9.12 24.6 7.62 23.5 7 21.84 6.06 11.24 0"/><path class="cls-4" d="M202.89,85.91l2,.66-.59-.19L175,76.74l-2.1-.69-.05,0-.25-.09-.07,0,5.19,1.71L181,78.68l5.92,1.94,2.19.72,3.5,1.15L199,84.62l.75.25Z"/><path class="cls-4" d="M207.84,87.57c6.65,2.2,14.31,4.77,23.19,7.77l-1.31-.43-.49-.16Z"/><polygon class="cls-4" points="241.73 98.85 261.45 105.07 257.88 104.22 257.86 104.22 241.73 98.85"/><path class="cls-4" d="M289.12,111.33l9.16,2.15-3.38-.76-.24,0-23.82-5.36-.12,0-3.39-.81a.51.51,0,0,1,.17,0c7.2,1.32,14.32,3.06,21.44,4.79Z"/><path class="cls-4" d="M307.5,115.5a24.11,24.11,0,0,1,2.58.63l-5-1.12Z"/><path class="cls-4" d="M315.5,118.5c.52.31,1,.62,1.44.94l-6.75-3.27c.35.1.74.22,1.14.37A23.15,23.15,0,0,1,315.5,118.5Z"/><path class="cls-4" d="M318.17,120.36l9.33,7.14-4.67-3.33-.06,0-3.37-2.7,0,0L317,119.46c.27.19.53.38.77.57Z"/><polygon class="cls-4" points="329.8 133.82 329.78 133.79 329.56 133.4 329.55 133.39 329.54 133.37 329.52 133.32 329.12 132.15 329.8 133.82"/><path class="cls-6" d="M424.5,254.5a19.78,19.78,0,0,1-11,6,17.82,17.82,0,0,1-3.47.23,18.1,18.1,0,0,1-2.53-.23l-7-11,1-5a18.18,18.18,0,0,1,6.33-4.92,11.52,11.52,0,0,1,9.67-.08l4,4a12.75,12.75,0,0,1,3,11Z"/><ellipse class="cls-8" cx="954.74" cy="68" rx="32.74" ry="31"/><ellipse class="cls-8" cx="822.5" cy="139.08" rx="18.5" ry="17.52"/><ellipse class="cls-8" cx="749" cy="213.59" rx="11" ry="10.41"/><ellipse class="cls-8" cx="673.5" cy="288.79" rx="5.5" ry="5.21"/><ellipse class="cls-8" cx="652.64" cy="339.5" rx="2.64" ry="2.5"/><ellipse class="cls-8" cx="673.5" cy="403.79" rx="5.5" ry="5.21"/><ellipse class="cls-8" cx="770" cy="452.59" rx="11" ry="10.41"/><path class="cls-9" d="M377.5,211.5c3.57-4.07,8.53-5.64,13-7a47.84,47.84,0,0,1,17-2l2,1a3.54,3.54,0,0,1,0,3c-1,1.61-4,1.14-7,1a46.83,46.83,0,0,0-21,4c-3.73,1.84-4,2-4,2-1.16.67-1.85,1.16-2,1S376.79,212.31,377.5,211.5Z"/><path class="cls-3" d="M390.5,248.5c.05,14.15.1,36.14,0,63-.28,76.54-1.45,123.28-2.25,165"/><path class="cls-3" d="M417.5,265.5c1.33,8.85,3.08,22.4,4,39,1.94,35.19-1.32,57.69-3,84-1.31,20.61-.56,43.35,1,88"/><path class="cls-3" d="M502.5,266.5c-.34,18.73-.93,45.63-2,78-2.38,72-5.59,124.94-6,132"/><path class="cls-3" d="M519.5,284.5q5,96,8.44,192"/><path class="cls-9" d="M523.5,254.5a15.22,15.22,0,0,0-10,0,15.69,15.69,0,0,0-9,9l1,3h0a26.91,26.91,0,0,1,5-4,28.84,28.84,0,0,1,17-4Z"/><path class="cls-3" d="M507.5,270.5q2.1,25.42,4,51,5.78,77.92,9.47,155"/></g></svg>