<svg xmlns="http://www.w3.org/2000/svg" xmlns:xlink="http://www.w3.org/1999/xlink" viewBox="0 0 1366 475"><defs><style>.cls-1,.cls-2,.cls-3,.cls-5{fill:none;}.cls-2,.cls-3{stroke:#000;}.cls-2,.cls-3,.cls-4,.cls-5,.cls-6,.cls-7{stroke-miterlimit:10;}.cls-2{stroke-width:0.25px;}.cls-3{stroke-width:0.5px;}.cls-4,.cls-5,.cls-6,.cls-7{stroke:#09000e;}.cls-4{fill:url(#New_Pattern);}.cls-6{fill:url(#line_shading);}.cls-8{fill:#f7c319;}</style><pattern id="New_Pattern" data-name="New Pattern" width="40" height="40" patternUnits="userSpaceOnUse" viewBox="0 0 40 40"><rect class="cls-1" width="40" height="40"/><line class="cls-2" x1="32.97" y1="72.86" x2="73.38" y2="32.38"/><line class="cls-2" x1="36.03" y1="68.93" x2="76.45" y2="28.45"/><line class="cls-2" x1="35.1" y1="69" x2="75.52" y2="28.52"/><line class="cls-2" x1="38.17" y1="65.07" x2="78.59" y2="24.59"/><line class="cls-2" x1="30.88" y1="71.78" x2="71.3" y2="31.3"/><line class="cls-2" x1="33.95" y1="67.84" x2="74.37" y2="27.37"/><line class="cls-2" x1="33.02" y1="67.91" x2="73.43" y2="27.43"/><line class="cls-2" x1="36.08" y1="63.98" x2="76.5" y2="23.5"/><line class="cls-2" x1="39.78" y1="72.68" x2="80.2" y2="32.2"/><line class="cls-2" x1="37.7" y1="71.59" x2="78.11" y2="31.11"/><line class="cls-2" x1="39.83" y1="67.73" x2="80.25" y2="27.25"/><line class="cls-2" x1="39.96" y1="75.85" x2="80.37" y2="35.37"/><line class="cls-2" x1="-7.03" y1="72.86" x2="33.38" y2="32.38"/><line class="cls-2" x1="-3.97" y1="68.93" x2="36.45" y2="28.45"/><line class="cls-2" x1="-4.9" y1="69" x2="35.52" y2="28.52"/><line class="cls-2" x1="-1.83" y1="65.07" x2="38.59" y2="24.59"/><line class="cls-2" x1="-9.12" y1="71.78" x2="31.3" y2="31.3"/><line class="cls-2" x1="-6.05" y1="67.84" x2="34.37" y2="27.37"/><line class="cls-2" x1="-6.98" y1="67.91" x2="33.43" y2="27.43"/><line class="cls-2" x1="-3.92" y1="63.98" x2="36.5" y2="23.5"/><line class="cls-2" x1="-0.22" y1="72.68" x2="40.2" y2="32.2"/><line class="cls-2" x1="2.85" y1="68.75" x2="43.27" y2="28.27"/><line class="cls-2" x1="1.92" y1="68.81" x2="42.33" y2="28.34"/><line class="cls-2" x1="4.98" y1="64.88" x2="45.4" y2="24.4"/><line class="cls-2" x1="-2.3" y1="71.59" x2="38.11" y2="31.11"/><line class="cls-2" x1="0.76" y1="67.66" x2="41.18" y2="27.18"/><line class="cls-2" x1="-0.17" y1="67.73" x2="40.25" y2="27.25"/><line class="cls-2" x1="2.9" y1="63.8" x2="43.32" y2="23.32"/><line class="cls-2" x1="2.04" y1="76.94" x2="42.46" y2="36.46"/><line class="cls-2" x1="5.11" y1="73.01" x2="45.53" y2="32.53"/><line class="cls-2" x1="4.18" y1="73.07" x2="44.6" y2="32.6"/><line class="cls-2" x1="7.25" y1="69.14" x2="47.66" y2="28.66"/><line class="cls-2" x1="-0.04" y1="75.85" x2="40.37" y2="35.37"/><line class="cls-2" x1="3.02" y1="71.92" x2="43.44" y2="31.44"/><line class="cls-2" x1="2.09" y1="71.99" x2="42.51" y2="31.51"/><line class="cls-2" x1="5.16" y1="68.06" x2="45.58" y2="27.58"/><line class="cls-2" x1="8.86" y1="76.76" x2="49.28" y2="36.28"/><line class="cls-2" x1="11.93" y1="72.82" x2="52.34" y2="32.34"/><line class="cls-2" x1="10.99" y1="72.89" x2="51.41" y2="32.41"/><line class="cls-2" x1="14.06" y1="68.96" x2="54.48" y2="28.48"/><line class="cls-2" x1="6.77" y1="75.67" x2="47.19" y2="35.19"/><line class="cls-2" x1="9.84" y1="71.74" x2="50.26" y2="31.26"/><line class="cls-2" x1="8.91" y1="71.8" x2="49.33" y2="31.33"/><line class="cls-2" x1="11.98" y1="67.87" x2="52.39" y2="27.39"/><line class="cls-2" x1="7.71" y1="78.6" x2="48.12" y2="38.12"/><line class="cls-2" x1="9.55" y1="77.45" x2="49.97" y2="36.97"/><line class="cls-2" x1="12.31" y1="78.21" x2="52.8" y2="37.8"/><line class="cls-2" x1="12.3" y1="79.19" x2="52.78" y2="38.78"/><line class="cls-2" x1="16.28" y1="76.18" x2="56.77" y2="35.77"/><line class="cls-2" x1="13.59" y1="80.49" x2="54.07" y2="40.07"/><line class="cls-2" x1="17.56" y1="78.46" x2="58.04" y2="38.05"/><line class="cls-2" x1="7.55" y1="80.45" x2="48.03" y2="40.03"/><line class="cls-2" x1="53.09" y1="59.48" x2="21.49" y2="35.54"/><line class="cls-2" x1="51.13" y1="56.38" x2="19.53" y2="32.44"/><line class="cls-2" x1="52.3" y1="55.65" x2="20.7" y2="31.71"/><line class="cls-2" x1="42.44" y1="62.21" x2="10.84" y2="38.27"/><line class="cls-2" x1="43.61" y1="61.47" x2="12.01" y2="37.53"/><line class="cls-2" x1="41.64" y1="58.38" x2="10.05" y2="34.44"/><line class="cls-2" x1="47.64" y1="61.82" x2="16.04" y2="37.88"/><line class="cls-2" x1="45.68" y1="58.73" x2="14.08" y2="34.79"/><line class="cls-2" x1="46.84" y1="57.99" x2="15.25" y2="34.06"/><line class="cls-2" x1="44.88" y1="54.9" x2="13.28" y2="30.96"/><line class="cls-2" x1="-40.22" y1="72.68" x2="0.2" y2="32.2"/><line class="cls-2" x1="-37.15" y1="68.75" x2="3.27" y2="28.27"/><line class="cls-2" x1="-38.08" y1="68.81" x2="2.33" y2="28.34"/><line class="cls-2" x1="-35.02" y1="64.88" x2="5.4" y2="24.4"/><line class="cls-2" x1="-39.24" y1="67.66" x2="1.18" y2="27.18"/><line class="cls-2" x1="-40.17" y1="67.73" x2="0.25" y2="27.25"/><line class="cls-2" x1="-37.1" y1="63.8" x2="3.32" y2="23.32"/><line class="cls-2" x1="-37.96" y1="76.94" x2="2.46" y2="36.46"/><line class="cls-2" x1="-34.89" y1="73.01" x2="5.53" y2="32.53"/><line class="cls-2" x1="-35.82" y1="73.07" x2="4.6" y2="32.6"/><line class="cls-2" x1="-32.75" y1="69.14" x2="7.66" y2="28.66"/><line class="cls-2" x1="-40.04" y1="75.85" x2="0.37" y2="35.37"/><line class="cls-2" x1="-36.98" y1="71.92" x2="3.44" y2="31.44"/><line class="cls-2" x1="-37.91" y1="71.99" x2="2.51" y2="31.51"/><line class="cls-2" x1="-34.84" y1="68.06" x2="5.58" y2="27.58"/><line class="cls-2" x1="-31.14" y1="76.76" x2="9.28" y2="36.28"/><line class="cls-2" x1="-28.07" y1="72.82" x2="12.34" y2="32.34"/><line class="cls-2" x1="-29.01" y1="72.89" x2="11.41" y2="32.41"/><line class="cls-2" x1="-25.94" y1="68.96" x2="14.48" y2="28.48"/><line class="cls-2" x1="-33.23" y1="75.67" x2="7.19" y2="35.19"/><line class="cls-2" x1="-30.16" y1="71.74" x2="10.26" y2="31.26"/><line class="cls-2" x1="-31.09" y1="71.8" x2="9.33" y2="31.33"/><line class="cls-2" x1="-28.02" y1="67.87" x2="12.39" y2="27.39"/><line class="cls-2" x1="-32.29" y1="78.6" x2="8.12" y2="38.12"/><line class="cls-2" x1="-30.45" y1="77.45" x2="9.97" y2="36.97"/><line class="cls-2" x1="-27.69" y1="78.21" x2="12.8" y2="37.8"/><line class="cls-2" x1="-27.7" y1="79.19" x2="12.78" y2="38.78"/><line class="cls-2" x1="-23.72" y1="76.18" x2="16.77" y2="35.77"/><line class="cls-2" x1="-26.41" y1="80.49" x2="14.07" y2="40.07"/><line class="cls-2" x1="-22.44" y1="78.46" x2="18.04" y2="38.05"/><line class="cls-2" x1="-32.45" y1="80.45" x2="8.03" y2="40.03"/><line class="cls-2" x1="13.09" y1="59.48" x2="-18.51" y2="35.54"/><line class="cls-2" x1="11.13" y1="56.38" x2="-20.47" y2="32.44"/><line class="cls-2" x1="12.3" y1="55.65" x2="-19.3" y2="31.71"/><line class="cls-2" x1="2.44" y1="62.21" x2="-29.16" y2="38.27"/><line class="cls-2" x1="3.61" y1="61.47" x2="-27.99" y2="37.53"/><line class="cls-2" x1="1.64" y1="58.38" x2="-29.95" y2="34.44"/><line class="cls-2" x1="7.64" y1="61.82" x2="-23.96" y2="37.88"/><line class="cls-2" x1="5.68" y1="58.73" x2="-25.92" y2="34.79"/><line class="cls-2" x1="6.84" y1="57.99" x2="-24.75" y2="34.06"/><line class="cls-2" x1="4.88" y1="54.9" x2="-26.72" y2="30.96"/><line class="cls-2" x1="32.97" y1="32.86" x2="73.38" y2="-7.62"/><line class="cls-2" x1="36.03" y1="28.93" x2="76.45" y2="-11.55"/><line class="cls-2" x1="35.1" y1="29" x2="75.52" y2="-11.48"/><line class="cls-2" x1="38.17" y1="25.07" x2="78.59" y2="-15.41"/><line class="cls-2" x1="30.88" y1="31.78" x2="71.3" y2="-8.7"/><line class="cls-2" x1="33.95" y1="27.84" x2="74.37" y2="-12.63"/><line class="cls-2" x1="33.02" y1="27.91" x2="73.43" y2="-12.57"/><line class="cls-2" x1="36.08" y1="23.98" x2="76.5" y2="-16.5"/><line class="cls-2" x1="39.78" y1="32.68" x2="80.2" y2="-7.8"/><line class="cls-2" x1="37.7" y1="31.59" x2="78.11" y2="-8.89"/><line class="cls-2" x1="39.83" y1="27.73" x2="80.25" y2="-12.75"/><line class="cls-2" x1="39.96" y1="35.85" x2="80.37" y2="-4.63"/><line class="cls-2" x1="68.16" y1="52.54" x2="36.46" y2="28.74"/><line class="cls-2" x1="64.73" y1="51.39" x2="33.03" y2="27.59"/><line class="cls-2" x1="64.43" y1="52.6" x2="32.73" y2="28.8"/><line class="cls-2" x1="61" y1="51.45" x2="29.3" y2="27.65"/><line class="cls-2" x1="66.02" y1="56.2" x2="34.32" y2="32.4"/><line class="cls-2" x1="62.59" y1="55.05" x2="30.89" y2="31.25"/><line class="cls-2" x1="62.29" y1="56.26" x2="30.58" y2="32.46"/><line class="cls-2" x1="58.86" y1="55.11" x2="27.15" y2="31.31"/><line class="cls-2" x1="70.73" y1="43.43" x2="39.03" y2="19.63"/><line class="cls-2" x1="67.3" y1="42.29" x2="35.6" y2="18.49"/><line class="cls-2" x1="67" y1="43.5" x2="35.3" y2="19.7"/><line class="cls-2" x1="63.57" y1="42.35" x2="31.87" y2="18.55"/><line class="cls-2" x1="68.58" y1="47.09" x2="36.88" y2="23.29"/><line class="cls-2" x1="65.15" y1="45.95" x2="33.45" y2="22.15"/><line class="cls-2" x1="64.85" y1="47.16" x2="33.15" y2="23.36"/><line class="cls-2" x1="61.42" y1="46.01" x2="29.72" y2="22.21"/><line class="cls-2" x1="69.57" y1="36.02" x2="37.87" y2="12.22"/><line class="cls-2" x1="71.15" y1="39.62" x2="39.45" y2="15.82"/><line class="cls-2" x1="70.85" y1="40.83" x2="39.15" y2="17.03"/><line class="cls-2" x1="67.42" y1="39.68" x2="35.72" y2="15.88"/><line class="cls-2" x1="69.99" y1="30.58" x2="38.29" y2="6.78"/><line class="cls-2" x1="-7.03" y1="32.86" x2="33.38" y2="-7.62"/><line class="cls-2" x1="-3.97" y1="28.93" x2="36.45" y2="-11.55"/><line class="cls-2" x1="-4.9" y1="29" x2="35.52" y2="-11.48"/><line class="cls-2" x1="-1.83" y1="25.07" x2="38.59" y2="-15.41"/><line class="cls-2" x1="-9.12" y1="31.78" x2="31.3" y2="-8.7"/><line class="cls-2" x1="-6.05" y1="27.84" x2="34.37" y2="-12.63"/><line class="cls-2" x1="-6.98" y1="27.91" x2="33.43" y2="-12.57"/><line class="cls-2" x1="-3.92" y1="23.98" x2="36.5" y2="-16.5"/><line class="cls-2" x1="-0.22" y1="32.68" x2="40.2" y2="-7.8"/><line class="cls-2" x1="2.85" y1="28.75" x2="43.27" y2="-11.73"/><line class="cls-2" x1="1.92" y1="28.81" x2="42.33" y2="-11.66"/><line class="cls-2" x1="4.98" y1="24.88" x2="45.4" y2="-15.6"/><line class="cls-2" x1="-2.3" y1="31.59" x2="38.11" y2="-8.89"/><line class="cls-2" x1="0.76" y1="27.66" x2="41.18" y2="-12.82"/><line class="cls-2" x1="-0.17" y1="27.73" x2="40.25" y2="-12.75"/><line class="cls-2" x1="2.9" y1="23.8" x2="43.32" y2="-16.68"/><line class="cls-2" x1="2.04" y1="36.94" x2="42.46" y2="-3.54"/><line class="cls-2" x1="5.11" y1="33.01" x2="45.53" y2="-7.47"/><line class="cls-2" x1="4.18" y1="33.07" x2="44.6" y2="-7.4"/><line class="cls-2" x1="7.25" y1="29.14" x2="47.66" y2="-11.34"/><line class="cls-2" x1="-0.04" y1="35.85" x2="40.37" y2="-4.63"/><line class="cls-2" x1="3.02" y1="31.92" x2="43.44" y2="-8.56"/><line class="cls-2" x1="2.09" y1="31.99" x2="42.51" y2="-8.49"/><line class="cls-2" x1="5.16" y1="28.06" x2="45.58" y2="-12.42"/><line class="cls-2" x1="8.86" y1="36.76" x2="49.28" y2="-3.72"/><line class="cls-2" x1="11.93" y1="32.82" x2="52.34" y2="-7.66"/><line class="cls-2" x1="10.99" y1="32.89" x2="51.41" y2="-7.59"/><line class="cls-2" x1="14.06" y1="28.96" x2="54.48" y2="-11.52"/><line class="cls-2" x1="6.77" y1="35.67" x2="47.19" y2="-4.81"/><line class="cls-2" x1="9.84" y1="31.74" x2="50.26" y2="-8.74"/><line class="cls-2" x1="8.91" y1="31.8" x2="49.33" y2="-8.67"/><line class="cls-2" x1="11.98" y1="27.87" x2="52.39" y2="-12.61"/><line class="cls-2" x1="7.71" y1="38.6" x2="48.12" y2="-1.88"/><line class="cls-2" x1="9.55" y1="37.45" x2="49.97" y2="-3.03"/><line class="cls-2" x1="8.55" y1="48.44" x2="49.03" y2="8.03"/><line class="cls-2" x1="12.53" y1="45.43" x2="53.01" y2="5.02"/><line class="cls-2" x1="12.52" y1="46.41" x2="53" y2="6"/><line class="cls-2" x1="8.33" y1="41.22" x2="48.81" y2="0.81"/><line class="cls-2" x1="12.31" y1="38.21" x2="52.8" y2="-2.2"/><line class="cls-2" x1="12.3" y1="39.19" x2="52.78" y2="-1.22"/><line class="cls-2" x1="16.28" y1="36.18" x2="56.77" y2="-4.23"/><line class="cls-2" x1="9.61" y1="43.5" x2="50.09" y2="3.09"/><line class="cls-2" x1="13.59" y1="40.49" x2="54.07" y2="0.07"/><line class="cls-2" x1="13.58" y1="41.47" x2="54.06" y2="1.06"/><line class="cls-2" x1="17.56" y1="38.46" x2="58.04" y2="-1.95"/><line class="cls-2" x1="6.44" y1="42.34" x2="46.92" y2="1.92"/><line class="cls-2" x1="7.55" y1="40.45" x2="48.03" y2="0.03"/><line class="cls-2" x1="28.16" y1="52.54" x2="-3.54" y2="28.74"/><line class="cls-2" x1="24.73" y1="51.39" x2="-6.97" y2="27.59"/><line class="cls-2" x1="24.43" y1="52.6" x2="-7.27" y2="28.8"/><line class="cls-2" x1="21" y1="51.45" x2="-10.7" y2="27.65"/><line class="cls-2" x1="26.02" y1="56.2" x2="-5.68" y2="32.4"/><line class="cls-2" x1="22.59" y1="55.05" x2="-9.11" y2="31.25"/><line class="cls-2" x1="22.29" y1="56.26" x2="-9.42" y2="32.46"/><line class="cls-2" x1="18.86" y1="55.11" x2="-12.85" y2="31.31"/><line class="cls-2" x1="30.73" y1="43.43" x2="-0.97" y2="19.63"/><line class="cls-2" x1="27.3" y1="42.29" x2="-4.4" y2="18.49"/><line class="cls-2" x1="27" y1="43.5" x2="-4.7" y2="19.7"/><line class="cls-2" x1="23.57" y1="42.35" x2="-8.13" y2="18.55"/><line class="cls-2" x1="28.58" y1="47.09" x2="-3.12" y2="23.29"/><line class="cls-2" x1="25.15" y1="45.95" x2="-6.55" y2="22.15"/><line class="cls-2" x1="24.85" y1="47.16" x2="-6.85" y2="23.36"/><line class="cls-2" x1="21.42" y1="46.01" x2="-10.28" y2="22.21"/><line class="cls-2" x1="36.73" y1="37.11" x2="5.03" y2="13.31"/><line class="cls-2" x1="33.3" y1="35.96" x2="1.6" y2="12.16"/><line class="cls-2" x1="33" y1="37.17" x2="1.3" y2="13.37"/><line class="cls-2" x1="29.57" y1="36.02" x2="-2.13" y2="12.22"/><line class="cls-2" x1="34.58" y1="40.77" x2="2.88" y2="16.97"/><line class="cls-2" x1="31.15" y1="39.62" x2="-0.55" y2="15.82"/><line class="cls-2" x1="30.85" y1="40.83" x2="-0.85" y2="17.03"/><line class="cls-2" x1="27.42" y1="39.68" x2="-4.28" y2="15.88"/><line class="cls-2" x1="39.3" y1="28" x2="7.59" y2="4.2"/><line class="cls-2" x1="35.87" y1="26.86" x2="4.16" y2="3.06"/><line class="cls-2" x1="35.56" y1="28.07" x2="3.86" y2="4.27"/><line class="cls-2" x1="32.13" y1="26.92" x2="0.43" y2="3.12"/><line class="cls-2" x1="37.15" y1="31.66" x2="5.45" y2="7.86"/><line class="cls-2" x1="33.72" y1="30.52" x2="2.02" y2="6.72"/><line class="cls-2" x1="33.42" y1="31.73" x2="1.72" y2="7.93"/><line class="cls-2" x1="29.99" y1="30.58" x2="-1.71" y2="6.78"/><line class="cls-2" x1="41.02" y1="28.15" x2="9.32" y2="4.35"/><line class="cls-2" x1="40.4" y1="26.54" x2="8.7" y2="2.74"/><line class="cls-2" x1="53.09" y1="19.48" x2="21.49" y2="-4.46"/><line class="cls-2" x1="51.13" y1="16.38" x2="19.53" y2="-7.56"/><line class="cls-2" x1="52.3" y1="15.65" x2="20.7" y2="-8.29"/><line class="cls-2" x1="44.4" y1="25.3" x2="12.81" y2="1.36"/><line class="cls-2" x1="42.44" y1="22.21" x2="10.84" y2="-1.73"/><line class="cls-2" x1="43.61" y1="21.47" x2="12.01" y2="-2.47"/><line class="cls-2" x1="41.64" y1="18.38" x2="10.05" y2="-5.56"/><line class="cls-2" x1="47.64" y1="21.82" x2="16.04" y2="-2.12"/><line class="cls-2" x1="45.68" y1="18.73" x2="14.08" y2="-5.21"/><line class="cls-2" x1="46.84" y1="17.99" x2="15.25" y2="-5.94"/><line class="cls-2" x1="44.88" y1="14.9" x2="13.28" y2="-9.04"/><line class="cls-2" x1="44.96" y1="27.01" x2="13.36" y2="3.07"/><line class="cls-2" x1="43.16" y1="26.95" x2="11.56" y2="3.01"/><line class="cls-2" x1="-40.22" y1="32.68" x2="0.2" y2="-7.8"/><line class="cls-2" x1="-37.15" y1="28.75" x2="3.27" y2="-11.73"/><line class="cls-2" x1="-38.08" y1="28.81" x2="2.33" y2="-11.66"/><line class="cls-2" x1="-35.02" y1="24.88" x2="5.4" y2="-15.6"/><line class="cls-2" x1="-39.24" y1="27.66" x2="1.18" y2="-12.82"/><line class="cls-2" x1="-40.17" y1="27.73" x2="0.25" y2="-12.75"/><line class="cls-2" x1="-37.1" y1="23.8" x2="3.32" y2="-16.68"/><line class="cls-2" x1="-37.96" y1="36.94" x2="2.46" y2="-3.54"/><line class="cls-2" x1="-34.89" y1="33.01" x2="5.53" y2="-7.47"/><line class="cls-2" x1="-35.82" y1="33.07" x2="4.6" y2="-7.4"/><line class="cls-2" x1="-32.75" y1="29.14" x2="7.66" y2="-11.34"/><line class="cls-2" x1="-40.04" y1="35.85" x2="0.37" y2="-4.63"/><line class="cls-2" x1="-36.98" y1="31.92" x2="3.44" y2="-8.56"/><line class="cls-2" x1="-37.91" y1="31.99" x2="2.51" y2="-8.49"/><line class="cls-2" x1="-34.84" y1="28.06" x2="5.58" y2="-12.42"/><line class="cls-2" x1="-31.14" y1="36.76" x2="9.28" y2="-3.72"/><line class="cls-2" x1="-28.07" y1="32.82" x2="12.34" y2="-7.66"/><line class="cls-2" x1="-29.01" y1="32.89" x2="11.41" y2="-7.59"/><line class="cls-2" x1="-25.94" y1="28.96" x2="14.48" y2="-11.52"/><line class="cls-2" x1="-33.23" y1="35.67" x2="7.19" y2="-4.81"/><line class="cls-2" x1="-30.16" y1="31.74" x2="10.26" y2="-8.74"/><line class="cls-2" x1="-31.09" y1="31.8" x2="9.33" y2="-8.67"/><line class="cls-2" x1="-28.02" y1="27.87" x2="12.39" y2="-12.61"/><line class="cls-2" x1="-32.29" y1="38.6" x2="8.12" y2="-1.88"/><line class="cls-2" x1="-30.45" y1="37.45" x2="9.97" y2="-3.03"/><line class="cls-2" x1="-31.45" y1="48.44" x2="9.03" y2="8.03"/><line class="cls-2" x1="-27.47" y1="45.43" x2="13.01" y2="5.02"/><line class="cls-2" x1="-27.48" y1="46.41" x2="13" y2="6"/><line class="cls-2" x1="-31.67" y1="41.22" x2="8.81" y2="0.81"/><line class="cls-2" x1="-27.69" y1="38.21" x2="12.8" y2="-2.2"/><line class="cls-2" x1="-27.7" y1="39.19" x2="12.78" y2="-1.22"/><line class="cls-2" x1="-23.72" y1="36.18" x2="16.77" y2="-4.23"/><line class="cls-2" x1="-30.39" y1="43.5" x2="10.09" y2="3.09"/><line class="cls-2" x1="-26.41" y1="40.49" x2="14.07" y2="0.07"/><line class="cls-2" x1="-26.42" y1="41.47" x2="14.06" y2="1.06"/><line class="cls-2" x1="-22.44" y1="38.46" x2="18.04" y2="-1.95"/><line class="cls-2" x1="-33.56" y1="42.34" x2="6.92" y2="1.92"/><line class="cls-2" x1="-32.45" y1="40.45" x2="8.03" y2="0.03"/><line class="cls-2" x1="1.02" y1="28.15" x2="-30.68" y2="4.35"/><line class="cls-2" x1="0.4" y1="26.54" x2="-31.3" y2="2.74"/><line class="cls-2" x1="13.09" y1="19.48" x2="-18.51" y2="-4.46"/><line class="cls-2" x1="11.13" y1="16.38" x2="-20.47" y2="-7.56"/><line class="cls-2" x1="12.3" y1="15.65" x2="-19.3" y2="-8.29"/><line class="cls-2" x1="4.4" y1="25.3" x2="-27.19" y2="1.36"/><line class="cls-2" x1="2.44" y1="22.21" x2="-29.16" y2="-1.73"/><line class="cls-2" x1="3.61" y1="21.47" x2="-27.99" y2="-2.47"/><line class="cls-2" x1="1.64" y1="18.38" x2="-29.95" y2="-5.56"/><line class="cls-2" x1="7.64" y1="21.82" x2="-23.96" y2="-2.12"/><line class="cls-2" x1="5.68" y1="18.73" x2="-25.92" y2="-5.21"/><line class="cls-2" x1="6.84" y1="17.99" x2="-24.75" y2="-5.94"/><line class="cls-2" x1="4.88" y1="14.9" x2="-26.72" y2="-9.04"/><line class="cls-2" x1="4.96" y1="27.01" x2="-26.64" y2="3.07"/><line class="cls-2" x1="3.16" y1="26.95" x2="-28.44" y2="3.01"/><line class="cls-2" x1="68.16" y1="12.54" x2="36.46" y2="-11.26"/><line class="cls-2" x1="64.73" y1="11.39" x2="33.03" y2="-12.41"/><line class="cls-2" x1="64.43" y1="12.6" x2="32.73" y2="-11.2"/><line class="cls-2" x1="61" y1="11.45" x2="29.3" y2="-12.35"/><line class="cls-2" x1="66.02" y1="16.2" x2="34.32" y2="-7.6"/><line class="cls-2" x1="62.59" y1="15.05" x2="30.89" y2="-8.75"/><line class="cls-2" x1="62.29" y1="16.26" x2="30.58" y2="-7.54"/><line class="cls-2" x1="58.86" y1="15.11" x2="27.15" y2="-8.69"/><line class="cls-2" x1="70.73" y1="3.43" x2="39.03" y2="-20.37"/><line class="cls-2" x1="67.3" y1="2.29" x2="35.6" y2="-21.51"/><line class="cls-2" x1="67" y1="3.5" x2="35.3" y2="-20.3"/><line class="cls-2" x1="63.57" y1="2.35" x2="31.87" y2="-21.45"/><line class="cls-2" x1="68.58" y1="7.09" x2="36.88" y2="-16.71"/><line class="cls-2" x1="65.15" y1="5.95" x2="33.45" y2="-17.85"/><line class="cls-2" x1="64.85" y1="7.16" x2="33.15" y2="-16.64"/><line class="cls-2" x1="61.42" y1="6.01" x2="29.72" y2="-17.79"/><line class="cls-2" x1="70.85" y1="0.83" x2="39.15" y2="-22.97"/><line class="cls-2" x1="8.55" y1="8.44" x2="49.03" y2="-31.97"/><line class="cls-2" x1="12.53" y1="5.43" x2="53.01" y2="-34.98"/><line class="cls-2" x1="12.52" y1="6.41" x2="53" y2="-34"/><line class="cls-2" x1="8.33" y1="1.22" x2="48.81" y2="-39.19"/><line class="cls-2" x1="9.61" y1="3.5" x2="50.09" y2="-36.91"/><line class="cls-2" x1="13.59" y1="0.49" x2="54.07" y2="-39.93"/><line class="cls-2" x1="13.58" y1="1.47" x2="54.06" y2="-38.94"/><line class="cls-2" x1="6.44" y1="2.34" x2="46.92" y2="-38.08"/><line class="cls-2" x1="7.55" y1="0.45" x2="48.03" y2="-39.97"/><line class="cls-2" x1="28.16" y1="12.54" x2="-3.54" y2="-11.26"/><line class="cls-2" x1="24.73" y1="11.39" x2="-6.97" y2="-12.41"/><line class="cls-2" x1="24.43" y1="12.6" x2="-7.27" y2="-11.2"/><line class="cls-2" x1="21" y1="11.45" x2="-10.7" y2="-12.35"/><line class="cls-2" x1="26.02" y1="16.2" x2="-5.68" y2="-7.6"/><line class="cls-2" x1="22.59" y1="15.05" x2="-9.11" y2="-8.75"/><line class="cls-2" x1="22.29" y1="16.26" x2="-9.42" y2="-7.54"/><line class="cls-2" x1="18.86" y1="15.11" x2="-12.85" y2="-8.69"/><line class="cls-2" x1="30.73" y1="3.43" x2="-0.97" y2="-20.37"/><line class="cls-2" x1="27.3" y1="2.29" x2="-4.4" y2="-21.51"/><line class="cls-2" x1="27" y1="3.5" x2="-4.7" y2="-20.3"/><line class="cls-2" x1="23.57" y1="2.35" x2="-8.13" y2="-21.45"/><line class="cls-2" x1="28.58" y1="7.09" x2="-3.12" y2="-16.71"/><line class="cls-2" x1="25.15" y1="5.95" x2="-6.55" y2="-17.85"/><line class="cls-2" x1="24.85" y1="7.16" x2="-6.85" y2="-16.64"/><line class="cls-2" x1="21.42" y1="6.01" x2="-10.28" y2="-17.79"/><line class="cls-2" x1="34.58" y1="0.77" x2="2.88" y2="-23.03"/><line class="cls-2" x1="30.85" y1="0.83" x2="-0.85" y2="-22.97"/><line class="cls-2" x1="-31.45" y1="8.44" x2="9.03" y2="-31.97"/><line class="cls-2" x1="-27.47" y1="5.43" x2="13.01" y2="-34.98"/><line class="cls-2" x1="-27.48" y1="6.41" x2="13" y2="-34"/><line class="cls-2" x1="-31.67" y1="1.22" x2="8.81" y2="-39.19"/><line class="cls-2" x1="-30.39" y1="3.5" x2="10.09" y2="-36.91"/><line class="cls-2" x1="-26.41" y1="0.49" x2="14.07" y2="-39.93"/><line class="cls-2" x1="-26.42" y1="1.47" x2="14.06" y2="-38.94"/><line class="cls-2" x1="-33.56" y1="2.34" x2="6.92" y2="-38.08"/><line class="cls-2" x1="-32.45" y1="0.45" x2="8.03" y2="-39.97"/></pattern><pattern id="line_shading" data-name="line shading" width="100" height="100" patternUnits="userSpaceOnUse" viewBox="0 0 100 100"><rect class="cls-1" width="100" height="100"/><line class="cls-3" x1="99.88" y1="242.88" x2="259.78" y2="82.99"/><line class="cls-3" x1="88.48" y1="183.54" x2="190.51" y2="81.51"/><line class="cls-3" x1="83.27" y1="191.87" x2="192.95" y2="82.18"/><line class="cls-3" x1="85.07" y1="193.19" x2="197.35" y2="80.91"/><line class="cls-3" x1="78.68" y1="202.18" x2="203.26" y2="77.59"/><line class="cls-3" x1="80.99" y1="180.11" x2="182.55" y2="78.55"/><line class="cls-3" x1="75.78" y1="188.44" x2="185.47" y2="78.76"/><line class="cls-3" x1="77.58" y1="189.76" x2="189.86" y2="77.48"/><line class="cls-3" x1="71.19" y1="198.75" x2="195.77" y2="74.17"/><line class="cls-3" x1="89.78" y1="204.07" x2="216.65" y2="77.2"/><line class="cls-3" x1="82.65" y1="214.32" x2="223.42" y2="73.54"/><line class="cls-3" x1="84.52" y1="215.56" x2="228.62" y2="71.46"/><line class="cls-3" x1="75.95" y1="226.73" x2="235.84" y2="66.84"/><line class="cls-3" x1="81.71" y1="201.22" x2="208.59" y2="74.35"/><line class="cls-3" x1="74.58" y1="211.47" x2="215.36" y2="70.69"/><line class="cls-3" x1="76.45" y1="212.71" x2="220.56" y2="68.61"/><line class="cls-3" x1="67.88" y1="223.88" x2="227.78" y2="63.99"/><line class="cls-3" x1="92.81" y1="212.47" x2="233.58" y2="71.7"/><line class="cls-3" x1="94.68" y1="213.72" x2="238.78" y2="69.62"/><line class="cls-3" x1="86.1" y1="224.89" x2="246" y2="65"/><line class="cls-3" x1="17.07" y1="212.19" x2="129.35" y2="99.91"/><line class="cls-3" x1="10.68" y1="221.18" x2="135.26" y2="96.59"/><line class="cls-3" x1="12.99" y1="199.11" x2="114.55" y2="97.55"/><line class="cls-3" x1="7.78" y1="207.44" x2="117.47" y2="97.76"/><line class="cls-3" x1="9.58" y1="208.76" x2="121.86" y2="96.48"/><line class="cls-3" x1="3.19" y1="217.75" x2="127.77" y2="93.17"/><line class="cls-3" x1="21.78" y1="223.07" x2="148.65" y2="96.2"/><line class="cls-3" x1="14.65" y1="233.32" x2="155.42" y2="92.54"/><line class="cls-3" x1="16.52" y1="234.56" x2="160.62" y2="90.46"/><line class="cls-3" x1="7.95" y1="245.73" x2="167.84" y2="85.84"/><line class="cls-3" x1="13.71" y1="220.22" x2="140.59" y2="93.35"/><line class="cls-3" x1="6.58" y1="230.47" x2="147.36" y2="89.69"/><line class="cls-3" x1="8.45" y1="231.71" x2="152.56" y2="87.61"/><line class="cls-3" x1="-0.12" y1="242.88" x2="159.78" y2="82.99"/><line class="cls-3" x1="24.81" y1="231.47" x2="165.58" y2="90.7"/><line class="cls-3" x1="26.68" y1="232.72" x2="170.78" y2="88.62"/><line class="cls-3" x1="18.1" y1="243.89" x2="178" y2="84"/><line class="cls-3" x1="-11.52" y1="183.54" x2="90.51" y2="81.51"/><line class="cls-3" x1="-16.73" y1="191.87" x2="92.95" y2="82.18"/><line class="cls-3" x1="-14.93" y1="193.19" x2="97.35" y2="80.91"/><line class="cls-3" x1="-21.32" y1="202.18" x2="103.26" y2="77.59"/><line class="cls-3" x1="-19.01" y1="180.11" x2="82.55" y2="78.55"/><line class="cls-3" x1="-24.22" y1="188.44" x2="85.47" y2="78.76"/><line class="cls-3" x1="-22.42" y1="189.76" x2="89.86" y2="77.48"/><line class="cls-3" x1="-28.81" y1="198.75" x2="95.77" y2="74.17"/><line class="cls-3" x1="-10.22" y1="204.07" x2="116.65" y2="77.2"/><line class="cls-3" x1="-17.35" y1="214.32" x2="123.42" y2="73.54"/><line class="cls-3" x1="-15.48" y1="215.56" x2="128.62" y2="71.46"/><line class="cls-3" x1="-24.05" y1="226.73" x2="135.84" y2="66.84"/><line class="cls-3" x1="-18.29" y1="201.22" x2="108.59" y2="74.35"/><line class="cls-3" x1="-25.42" y1="211.47" x2="115.36" y2="70.69"/><line class="cls-3" x1="-23.55" y1="212.71" x2="120.56" y2="68.61"/><line class="cls-3" x1="-32.12" y1="223.88" x2="127.78" y2="63.99"/><line class="cls-3" x1="-7.19" y1="212.47" x2="133.58" y2="71.7"/><line class="cls-3" x1="-5.32" y1="213.72" x2="138.78" y2="69.62"/><line class="cls-3" x1="-13.9" y1="224.89" x2="146" y2="65"/><line class="cls-3" x1="-82.93" y1="212.19" x2="29.35" y2="99.91"/><line class="cls-3" x1="-89.32" y1="221.18" x2="35.26" y2="96.59"/><line class="cls-3" x1="-87.01" y1="199.11" x2="14.55" y2="97.55"/><line class="cls-3" x1="-92.22" y1="207.44" x2="17.47" y2="97.76"/><line class="cls-3" x1="-90.42" y1="208.76" x2="21.86" y2="96.48"/><line class="cls-3" x1="-96.81" y1="217.75" x2="27.77" y2="93.17"/><line class="cls-3" x1="-78.22" y1="223.07" x2="48.65" y2="96.2"/><line class="cls-3" x1="-85.35" y1="233.32" x2="55.42" y2="92.54"/><line class="cls-3" x1="-83.48" y1="234.56" x2="60.62" y2="90.46"/><line class="cls-3" x1="-92.05" y1="245.73" x2="67.84" y2="85.84"/><line class="cls-3" x1="-86.29" y1="220.22" x2="40.59" y2="93.35"/><line class="cls-3" x1="-93.42" y1="230.47" x2="47.36" y2="89.69"/><line class="cls-3" x1="-91.55" y1="231.71" x2="52.56" y2="87.61"/><line class="cls-3" x1="-100.12" y1="242.88" x2="59.78" y2="82.99"/><line class="cls-3" x1="-75.19" y1="231.47" x2="65.58" y2="90.7"/><line class="cls-3" x1="-73.32" y1="232.72" x2="70.78" y2="88.62"/><line class="cls-3" x1="-81.9" y1="243.89" x2="78" y2="84"/><line class="cls-3" x1="-121.32" y1="202.18" x2="3.26" y2="77.59"/><line class="cls-3" x1="-110.22" y1="204.07" x2="16.65" y2="77.2"/><line class="cls-3" x1="-117.35" y1="214.32" x2="23.42" y2="73.54"/><line class="cls-3" x1="-115.48" y1="215.56" x2="28.62" y2="71.46"/><line class="cls-3" x1="-124.05" y1="226.73" x2="35.84" y2="66.84"/><line class="cls-3" x1="-118.29" y1="201.22" x2="8.59" y2="74.35"/><line class="cls-3" x1="-125.42" y1="211.47" x2="15.36" y2="70.69"/><line class="cls-3" x1="-123.55" y1="212.71" x2="20.56" y2="68.61"/><line class="cls-3" x1="-132.12" y1="223.88" x2="27.78" y2="63.99"/><line class="cls-3" x1="-107.19" y1="212.47" x2="33.58" y2="71.7"/><line class="cls-3" x1="-105.32" y1="213.72" x2="38.78" y2="69.62"/><line class="cls-3" x1="-113.9" y1="224.89" x2="46" y2="65"/><line class="cls-3" x1="99.88" y1="142.88" x2="259.78" y2="-17.01"/><line class="cls-3" x1="88.48" y1="83.54" x2="190.51" y2="-18.49"/><line class="cls-3" x1="83.27" y1="91.87" x2="192.95" y2="-17.82"/><line class="cls-3" x1="85.07" y1="93.19" x2="197.35" y2="-19.09"/><line class="cls-3" x1="78.68" y1="102.18" x2="203.26" y2="-22.41"/><line class="cls-3" x1="80.99" y1="80.11" x2="182.55" y2="-21.45"/><line class="cls-3" x1="75.78" y1="88.44" x2="185.47" y2="-21.24"/><line class="cls-3" x1="77.58" y1="89.76" x2="189.86" y2="-22.52"/><line class="cls-3" x1="71.19" y1="98.75" x2="195.77" y2="-25.83"/><line class="cls-3" x1="89.78" y1="104.07" x2="216.65" y2="-22.8"/><line class="cls-3" x1="82.65" y1="114.32" x2="223.42" y2="-26.46"/><line class="cls-3" x1="84.52" y1="115.56" x2="228.62" y2="-28.54"/><line class="cls-3" x1="75.95" y1="126.73" x2="235.84" y2="-33.16"/><line class="cls-3" x1="81.71" y1="101.22" x2="208.59" y2="-25.65"/><line class="cls-3" x1="74.58" y1="111.47" x2="215.36" y2="-29.31"/><line class="cls-3" x1="76.45" y1="112.71" x2="220.56" y2="-31.39"/><line class="cls-3" x1="67.88" y1="123.88" x2="227.78" y2="-36.01"/><line class="cls-3" x1="92.81" y1="112.47" x2="233.58" y2="-28.3"/><line class="cls-3" x1="94.68" y1="113.72" x2="238.78" y2="-30.38"/><line class="cls-3" x1="86.1" y1="124.89" x2="246" y2="-35"/><line class="cls-3" x1="20.48" y1="102.54" x2="122.51" y2="0.51"/><line class="cls-3" x1="15.27" y1="110.87" x2="124.95" y2="1.18"/><line class="cls-3" x1="17.07" y1="112.19" x2="129.35" y2="-0.09"/><line class="cls-3" x1="10.68" y1="121.18" x2="135.26" y2="-3.41"/><line class="cls-3" x1="12.99" y1="99.11" x2="114.55" y2="-2.45"/><line class="cls-3" x1="7.78" y1="107.44" x2="117.47" y2="-2.24"/><line class="cls-3" x1="9.58" y1="108.76" x2="121.86" y2="-3.52"/><line class="cls-3" x1="3.19" y1="117.75" x2="127.77" y2="-6.83"/><line class="cls-3" x1="21.78" y1="123.07" x2="148.65" y2="-3.8"/><line class="cls-3" x1="14.65" y1="133.32" x2="155.42" y2="-7.46"/><line class="cls-3" x1="16.52" y1="134.56" x2="160.62" y2="-9.54"/><line class="cls-3" x1="7.95" y1="145.73" x2="167.84" y2="-14.16"/><line class="cls-3" x1="13.71" y1="120.22" x2="140.59" y2="-6.65"/><line class="cls-3" x1="6.58" y1="130.47" x2="147.36" y2="-10.31"/><line class="cls-3" x1="8.45" y1="131.71" x2="152.56" y2="-12.39"/><line class="cls-3" x1="-0.12" y1="142.88" x2="159.78" y2="-17.01"/><line class="cls-3" x1="24.81" y1="131.47" x2="165.58" y2="-9.3"/><line class="cls-3" x1="26.68" y1="132.72" x2="170.78" y2="-11.38"/><line class="cls-3" x1="18.1" y1="143.89" x2="178" y2="-16"/><line class="cls-3" x1="-11.52" y1="83.54" x2="90.51" y2="-18.49"/><line class="cls-3" x1="-16.73" y1="91.87" x2="92.95" y2="-17.82"/><line class="cls-3" x1="-14.93" y1="93.19" x2="97.35" y2="-19.09"/><line class="cls-3" x1="-21.32" y1="102.18" x2="103.26" y2="-22.41"/><line class="cls-3" x1="-19.01" y1="80.11" x2="82.55" y2="-21.45"/><line class="cls-3" x1="-24.22" y1="88.44" x2="85.47" y2="-21.24"/><line class="cls-3" x1="-22.42" y1="89.76" x2="89.86" y2="-22.52"/><line class="cls-3" x1="-28.81" y1="98.75" x2="95.77" y2="-25.83"/><line class="cls-3" x1="-10.22" y1="104.07" x2="116.65" y2="-22.8"/><line class="cls-3" x1="-17.35" y1="114.32" x2="123.42" y2="-26.46"/><line class="cls-3" x1="-15.48" y1="115.56" x2="128.62" y2="-28.54"/><line class="cls-3" x1="-24.05" y1="126.73" x2="135.84" y2="-33.16"/><line class="cls-3" x1="-18.29" y1="101.22" x2="108.59" y2="-25.65"/><line class="cls-3" x1="-25.42" y1="111.47" x2="115.36" y2="-29.31"/><line class="cls-3" x1="-23.55" y1="112.71" x2="120.56" y2="-31.39"/><line class="cls-3" x1="-32.12" y1="123.88" x2="127.78" y2="-36.01"/><line class="cls-3" x1="-7.19" y1="112.47" x2="133.58" y2="-28.3"/><line class="cls-3" x1="-5.32" y1="113.72" x2="138.78" y2="-30.38"/><line class="cls-3" x1="-13.9" y1="124.89" x2="146" y2="-35"/><line class="cls-3" x1="-79.52" y1="102.54" x2="22.51" y2="0.51"/><line class="cls-3" x1="-84.73" y1="110.87" x2="24.95" y2="1.18"/><line class="cls-3" x1="-82.93" y1="112.19" x2="29.35" y2="-0.09"/><line class="cls-3" x1="-89.32" y1="121.18" x2="35.26" y2="-3.41"/><line class="cls-3" x1="-87.01" y1="99.11" x2="14.55" y2="-2.45"/><line class="cls-3" x1="-92.22" y1="107.44" x2="17.47" y2="-2.24"/><line class="cls-3" x1="-90.42" y1="108.76" x2="21.86" y2="-3.52"/><line class="cls-3" x1="-96.81" y1="117.75" x2="27.77" y2="-6.83"/><line class="cls-3" x1="-78.22" y1="123.07" x2="48.65" y2="-3.8"/><line class="cls-3" x1="-85.35" y1="133.32" x2="55.42" y2="-7.46"/><line class="cls-3" x1="-83.48" y1="134.56" x2="60.62" y2="-9.54"/><line class="cls-3" x1="-92.05" y1="145.73" x2="67.84" y2="-14.16"/><line class="cls-3" x1="-86.29" y1="120.22" x2="40.59" y2="-6.65"/><line class="cls-3" x1="-93.42" y1="130.47" x2="47.36" y2="-10.31"/><line class="cls-3" x1="-91.55" y1="131.71" x2="52.56" y2="-12.39"/><line class="cls-3" x1="-100.12" y1="142.88" x2="59.78" y2="-17.01"/><line class="cls-3" x1="-75.19" y1="131.47" x2="65.58" y2="-9.3"/><line class="cls-3" x1="-73.32" y1="132.72" x2="70.78" y2="-11.38"/><line class="cls-3" x1="-81.9" y1="143.89" x2="78" y2="-16"/><line class="cls-3" x1="-121.32" y1="102.18" x2="3.26" y2="-22.41"/><line class="cls-3" x1="-110.22" y1="104.07" x2="16.65" y2="-22.8"/><line class="cls-3" x1="-117.35" y1="114.32" x2="23.42" y2="-26.46"/><line class="cls-3" x1="-115.48" y1="115.56" x2="28.62" y2="-28.54"/><line class="cls-3" x1="-124.05" y1="126.73" x2="35.84" y2="-33.16"/><line class="cls-3" x1="-118.29" y1="101.22" x2="8.59" y2="-25.65"/><line class="cls-3" x1="-125.42" y1="111.47" x2="15.36" y2="-29.31"/><line class="cls-3" x1="-123.55" y1="112.71" x2="20.56" y2="-31.39"/><line class="cls-3" x1="-132.12" y1="123.88" x2="27.78" y2="-36.01"/><line class="cls-3" x1="-107.19" y1="112.47" x2="33.58" y2="-28.3"/><line class="cls-3" x1="-105.32" y1="113.72" x2="38.78" y2="-30.38"/><line class="cls-3" x1="-113.9" y1="124.89" x2="46" y2="-35"/><line class="cls-3" x1="99.88" y1="42.88" x2="259.78" y2="-117.01"/><line class="cls-3" x1="78.68" y1="2.18" x2="203.26" y2="-122.41"/><line class="cls-3" x1="89.78" y1="4.07" x2="216.65" y2="-122.8"/><line class="cls-3" x1="82.65" y1="14.32" x2="223.42" y2="-126.46"/><line class="cls-3" x1="84.52" y1="15.56" x2="228.62" y2="-128.54"/><line class="cls-3" x1="75.95" y1="26.73" x2="235.84" y2="-133.16"/><line class="cls-3" x1="81.71" y1="1.22" x2="208.59" y2="-125.65"/><line class="cls-3" x1="74.58" y1="11.47" x2="215.36" y2="-129.31"/><line class="cls-3" x1="76.45" y1="12.71" x2="220.56" y2="-131.39"/><line class="cls-3" x1="67.88" y1="23.88" x2="227.78" y2="-136.01"/><line class="cls-3" x1="92.81" y1="12.47" x2="233.58" y2="-128.3"/><line class="cls-3" x1="94.68" y1="13.72" x2="238.78" y2="-130.38"/><line class="cls-3" x1="86.1" y1="24.89" x2="246" y2="-135"/><line class="cls-3" x1="20.48" y1="2.54" x2="122.51" y2="-99.49"/><line class="cls-3" x1="15.27" y1="10.87" x2="124.95" y2="-98.82"/><line class="cls-3" x1="17.07" y1="12.19" x2="129.35" y2="-100.09"/><line class="cls-3" x1="10.68" y1="21.18" x2="135.26" y2="-103.41"/><line class="cls-3" x1="7.78" y1="7.44" x2="117.47" y2="-102.24"/><line class="cls-3" x1="9.58" y1="8.76" x2="121.86" y2="-103.52"/><line class="cls-3" x1="3.19" y1="17.75" x2="127.77" y2="-106.83"/><line class="cls-3" x1="21.78" y1="23.07" x2="148.65" y2="-103.8"/><line class="cls-3" x1="14.65" y1="33.32" x2="155.42" y2="-107.46"/><line class="cls-3" x1="16.52" y1="34.56" x2="160.62" y2="-109.54"/><line class="cls-3" x1="7.95" y1="45.73" x2="167.84" y2="-114.16"/><line class="cls-3" x1="13.71" y1="20.22" x2="140.59" y2="-106.65"/><line class="cls-3" x1="6.58" y1="30.47" x2="147.36" y2="-110.31"/><line class="cls-3" x1="8.45" y1="31.71" x2="152.56" y2="-112.39"/><line class="cls-3" x1="-0.12" y1="42.88" x2="159.78" y2="-117.01"/><line class="cls-3" x1="24.81" y1="31.47" x2="165.58" y2="-109.3"/><line class="cls-3" x1="26.68" y1="32.72" x2="170.78" y2="-111.38"/><line class="cls-3" x1="18.1" y1="43.89" x2="178" y2="-116"/><line class="cls-3" x1="-21.32" y1="2.18" x2="103.26" y2="-122.41"/><line class="cls-3" x1="-10.22" y1="4.07" x2="116.65" y2="-122.8"/><line class="cls-3" x1="-17.35" y1="14.32" x2="123.42" y2="-126.46"/><line class="cls-3" x1="-15.48" y1="15.56" x2="128.62" y2="-128.54"/><line class="cls-3" x1="-24.05" y1="26.73" x2="135.84" y2="-133.16"/><line class="cls-3" x1="-18.29" y1="1.22" x2="108.59" y2="-125.65"/><line class="cls-3" x1="-25.42" y1="11.47" x2="115.36" y2="-129.31"/><line class="cls-3" x1="-23.55" y1="12.71" x2="120.56" y2="-131.39"/><line class="cls-3" x1="-32.12" y1="23.88" x2="127.78" y2="-136.01"/><line class="cls-3" x1="-7.19" y1="12.47" x2="133.58" y2="-128.3"/><line class="cls-3" x1="-5.32" y1="13.72" x2="138.78" y2="-130.38"/><line class="cls-3" x1="-13.9" y1="24.89" x2="146" y2="-135"/><line class="cls-3" x1="-79.52" y1="2.54" x2="22.51" y2="-99.49"/><line class="cls-3" x1="-84.73" y1="10.87" x2="24.95" y2="-98.82"/><line class="cls-3" x1="-82.93" y1="12.19" x2="29.35" y2="-100.09"/><line class="cls-3" x1="-89.32" y1="21.18" x2="35.26" y2="-103.41"/><line class="cls-3" x1="-92.22" y1="7.44" x2="17.47" y2="-102.24"/><line class="cls-3" x1="-90.42" y1="8.76" x2="21.86" y2="-103.52"/><line class="cls-3" x1="-96.81" y1="17.75" x2="27.77" y2="-106.83"/><line class="cls-3" x1="-78.22" y1="23.07" x2="48.65" y2="-103.8"/><line class="cls-3" x1="-85.35" y1="33.32" x2="55.42" y2="-107.46"/><line class="cls-3" x1="-83.48" y1="34.56" x2="60.62" y2="-109.54"/><line class="cls-3" x1="-92.05" y1="45.73" x2="67.84" y2="-114.16"/><line class="cls-3" x1="-86.29" y1="20.22" x2="40.59" y2="-106.65"/><line class="cls-3" x1="-93.42" y1="30.47" x2="47.36" y2="-110.31"/><line class="cls-3" x1="-91.55" y1="31.71" x2="52.56" y2="-112.39"/><line class="cls-3" x1="-100.12" y1="42.88" x2="59.78" y2="-117.01"/><line class="cls-3" x1="-75.19" y1="31.47" x2="65.58" y2="-109.3"/><line class="cls-3" x1="-73.32" y1="32.72" x2="70.78" y2="-111.38"/><line class="cls-3" x1="-81.9" y1="43.89" x2="78" y2="-116"/><line class="cls-3" x1="-121.32" y1="2.18" x2="3.26" y2="-122.41"/><line class="cls-3" x1="-110.22" y1="4.07" x2="16.65" y2="-122.8"/><line class="cls-3" x1="-117.35" y1="14.32" x2="23.42" y2="-126.46"/><line class="cls-3" x1="-115.48" y1="15.56" x2="28.62" y2="-128.54"/><line class="cls-3" x1="-124.05" y1="26.73" x2="35.84" y2="-133.16"/><line class="cls-3" x1="-118.29" y1="1.22" x2="8.59" y2="-125.65"/><line class="cls-3" x1="-125.42" y1="11.47" x2="15.36" y2="-129.31"/><line class="cls-3" x1="-123.55" y1="12.71" x2="20.56" y2="-131.39"/><line class="cls-3" x1="-132.12" y1="23.88" x2="27.78" y2="-136.01"/><line class="cls-3" x1="-107.19" y1="12.47" x2="33.58" y2="-128.3"/><line class="cls-3" x1="-105.32" y1="13.72" x2="38.78" y2="-130.38"/><line class="cls-3" x1="-113.9" y1="24.89" x2="46" y2="-135"/></pattern></defs><title>Artboard 1</title><g id="Layer_2" data-name="Layer 2"><path class="cls-4" d="M942.5,241.57V253.5a35.6,35.6,0,0,0-3.94-4.7C939.85,246.2,941.18,243.79,942.5,241.57Z"/><path class="cls-4" d="M908.37,245.2A42.12,42.12,0,0,0,898,251v-9.31l3.5,1.18Z"/><polygon class="cls-5" points="908.5 209.5 908.37 245.2 901.5 242.87 898 241.69 894.5 240.5 894.5 206.5 908.5 209.5"/><path class="cls-5" d="M956.16,211.68a82.33,82.33,0,0,0-9.66,8.82,89.45,89.45,0,0,0-8,9.85c-.7,1-1.37,2-2,3a15.3,15.3,0,0,1-1-1.8c-2.21-4.72-3-12,1-16,.17-.17.34-.33.51-.47a8.53,8.53,0,0,1,.84-.64l.26-.17.39-.24a10.89,10.89,0,0,1,1-.48l1.75-.19Z"/><path class="cls-5" d="M991.5,209.84V231l-47.14,7.61A87.42,87.42,0,0,1,954.5,225.5a79.84,79.84,0,0,1,8-7c3.78-2.82,7.07-5.29,12-7a37.64,37.64,0,0,1,12-2A36.28,36.28,0,0,1,991.5,209.84Z"/><polygon class="cls-5" points="1014.5 203.17 1011.72 190.49 1014.5 202.13 1014.5 203.17"/><path class="cls-5" d="M1003,184.67l-2.5.28,5,10.55,4,9v5l-1.54,3.86-.38.95-2.08,5.19-8.29,19.39c1.9,3.28,5.56,6.62,10.29,6.61a11,11,0,0,0,7-2.72v8.72l-23-10V209.84c1.06.14,1.93.29,2.69.37a6.48,6.48,0,0,0,1.31,0,3.43,3.43,0,0,0,2-.74c2.69-2.06,3.29-7.45,1-10a4.39,4.39,0,0,0-3-1.38l-.57-.06a23,23,0,0,0-3.43.08V180.5l23,7v3.16l-2.78-.17-.22-1Z"/><path class="cls-4" d="M1020.5,230.5a16,16,0,0,1-3,9,18.26,18.26,0,0,1-3,3.28,11,11,0,0,1-7,2.72c-4.73,0-8.39-3.33-10.29-6.61l8.29-19.39,2.08-5.19,1.92,20.19,5-2.24,5.82-2.6Z"/><polygon class="cls-5" points="1016.19 210.85 1014.5 211.36 1007.96 213.36 1009.5 209.5 1009.5 204.5 1005.5 195.5 1000.5 184.95 1003 184.67 1011.5 189.5 1014.5 203.17 1016.19 210.85"/><path class="cls-5" d="M1009.5,204.5v5l-1.54,3.86-.38.95-2.08,5.19-8.29,19.39a14.06,14.06,0,0,1-.71-1.39l0-.09a11.53,11.53,0,0,1-.69-2.15,13.38,13.38,0,0,1-.27-1.76V210.24a3.43,3.43,0,0,0,2-.74c2.69-2.06,3.29-7.45,1-10a4.39,4.39,0,0,0-3-1.38V185.5l5-.55h0l5,10.55Z"/><path class="cls-5" d="M1009.5,204.5v5l-1.54,3.86-.38.95-2.08,5.19-8.29,19.39-.71-1.39,0-.09-1-1.91V210.24a3.43,3.43,0,0,0,2-.74c2.69-2.06,3.29-7.45,1-10a4.39,4.39,0,0,0-3-1.38V186.44l5-1.49h0l5,10.55Z"/><path class="cls-6" d="M1103.5,194.5c.07,1.53-3.77,2.87-7,4a35.79,35.79,0,0,1-11,2l-65.18,29.16-5.82,2.6-5,2.24-1.92-20.19.38-.95,6.54-2,1.69-.51,11.84-3.62.11,0,.36-.11,51-15.59c.63-.15,1.36-.3,2.17-.44h.13a37.89,37.89,0,0,1,3.88-.45h.15c.54,0,1.1-.07,1.67-.08,5.69-.11,12.3,1,14.88,2.63h0C1103.08,193.56,1103.48,194,1103.5,194.5Z"/><polygon class="cls-5" points="1007.96 213.36 1007.58 214.31 1007.5 213.5 1007.96 213.36"/><polygon class="cls-5" points="1028.5 191.5 1028.14 207.2 1028.03 207.23 1016.5 210.5 1014.5 202.13 1011.72 190.49 1014.5 190.66 1028.5 191.5"/><path class="cls-5" d="M1104.5,186.5l-1,7c-.37-.13-.75-.25-1.11-.36h0c-2.58-1.6-9.19-2.74-14.88-2.63-.57,0-1.13,0-1.67.08h-.15a37.89,37.89,0,0,0-3.88.45h-.13c-.81.14-1.54.29-2.17.44l-51,15.59V191.5s22-5,24-6c1.38-.69,16-2.8,26-4.38,4.51-.71,8.07-1.31,9-1.62,3-1,15,1,15,1a5.25,5.25,0,0,1,1,1A6.52,6.52,0,0,1,1104.5,186.5Z"/><path class="cls-5" d="M1085.83,190.58a49.08,49.08,0,0,1,16.55,2.55"/><line class="cls-5" x1="1085.68" y1="190.59" x2="1081.8" y2="191.04"/><polyline class="cls-5" points="1028.5 207.09 1028.5 207.5 1081.67 191.06"/><path class="cls-7" d="M1103.5,177.75v3.75a5.25,5.25,0,0,0-1-1s-12-2-15-1c-.93.31-4.49.91-9,1.62V176.5h3c.07-.34.13-.67.2-1H1103c-.14.65-.3,1.31-.46,2Z"/><path class="cls-6" d="M1109.5,143.5l-3,35-4-1c.16-.69.32-1.35.46-2,.79-3.65,1.26-6.71,1.54-9s.3-3.06,0-4a5.7,5.7,0,0,0-.47-1.08c-1.63-3-5.75-5-9.53-4.92a10.49,10.49,0,0,0-6,2,8,8,0,0,0-1.88,2c-1.18,1.77-2,4.24-3.12,8-.56,1.8-1.21,4.17-1.8,7-.07.33-.13.66-.2,1h-8l1-33Z"/><path class="cls-4" d="M1104.5,166.5c-.28,2.29-.75,5.35-1.54,9H1081.7c.59-2.83,1.24-5.2,1.8-7,1.15-3.75,1.94-6.22,3.12-8,.72,2.83,4.42,5,8.88,5,4,0,7.33-1.71,8.53-4.08a5.7,5.7,0,0,1,.47,1.08C1104.8,163.44,1104.79,164.2,1104.5,166.5Z"/><path class="cls-7" d="M1104,161.42c-1.2,2.37-4.56,4.08-8.53,4.08-4.46,0-8.16-2.16-8.88-5a8,8,0,0,1,1.88-2,10.49,10.49,0,0,1,6-2C1098.28,156.41,1102.4,158.38,1104,161.42Z"/><path class="cls-5" d="M1117.5,141c0,.15-.12.29-.35.42-1,.63-4.28,1.18-8.88,1.55-2.85.23-6.23.4-9.91.48-1.57,0-3.19.05-4.86.05-3.88,0-7.55-.1-10.79-.27-7.84-.41-13.21-1.25-13.21-2.23,0-1.38,10.75-2.5,24-2.5S1117.5,139.62,1117.5,141Z"/><path class="cls-5" d="M1098.37,143.5h-15.74a2.76,2.76,0,0,1,.08-.27,4,4,0,0,1,3.79-2.73h8a4,4,0,0,1,3.86,2.95S1098.37,143.48,1098.37,143.5Z"/><path class="cls-6" d="M1180.5,126.5v2c-24.8,4.89-42.71,8.62-54,11-2.73.58-5.89,1.25-9.35,1.92.23-.13.35-.27.35-.42,0-1.38-10.75-2.5-24-2.5s-24,1.12-24,2.5c0,1,5.37,1.82,13.21,2.23a2.76,2.76,0,0,0-.08.27h15.74s0,0,0-.05c3.68-.08,7.06-.25,9.91-.48-9.11,1.41-19.29,2.35-28.77,1.53-4.46-.39-9.31-1.26-19-3a56.14,56.14,0,0,1-14-4c-1.7-.76-3.06-1.48-4-2l-1-5,.46-.11,67.54-15.89a148.09,148.09,0,0,1,15.17-37.73c1.21-2.1,2.48-4.19,3.83-6.27.66-1,1.33-2,2-3h4a89.17,89.17,0,0,0-5,8,83.8,83.8,0,0,0-9,24c-1.69,8.33-3.28,16.21,1,20a8.77,8.77,0,0,0,5,2Z"/><path class="cls-4" d="M1117.5,141c0,.15-.12.29-.35.42-2.79.54-5.77,1.07-8.88,1.55-2.85.23-6.23.4-9.91.48,0,0,0,0,0,.05h-15.74a2.76,2.76,0,0,1,.08-.27c-7.84-.41-13.21-1.25-13.21-2.23,0-1.38,10.75-2.5,24-2.5S1117.5,139.62,1117.5,141Z"/><path class="cls-7" d="M1120.5,109.5l63,8-3-38a10.43,10.43,0,0,0-4-4,9.55,9.55,0,0,0-3-1c-8.16-1.41-10.27-3.12-20-4a95.75,95.75,0,0,0-17,0l1,5v3l-1,1h-3l-3-2-1,2Z"/><path class="cls-4" d="M1196.5,119.5a14.24,14.24,0,0,1-1,5,13.14,13.14,0,0,1-1,2l-14,.94,4-2.94,3-4,1-7v-14l-1-16-1-9-5-3-7-2-36-5,3-3c13.11-.23,19.55,1.27,29,2,7.32.57,15.13,1.4,22,7a28.05,28.05,0,0,1,4,4C1196.65,98.92,1196.58,116.7,1196.5,119.5Z"/><path class="cls-5" d="M1042,130.39l-12.46,2.11a81.05,81.05,0,0,1,1-13,83.79,83.79,0,0,1,13-33l46-12,52-13-5,3-5,3"/><path class="cls-5" d="M1000.5,204.5c0,3.87-1.79,7-4,7a2.32,2.32,0,0,1-1-.23,3.5,3.5,0,0,1-1.31-1.06,6.48,6.48,0,0,0,1.31,0,3.43,3.43,0,0,0,2-.74c2.69-2.06,3.29-7.45,1-10a4.39,4.39,0,0,0-3-1.38l-.57-.06a2.72,2.72,0,0,1,.57-.33,2.32,2.32,0,0,1,1-.23l.57.08C999,198.06,1000.5,201,1000.5,204.5Z"/><path class="cls-5" d="M997.07,197.58l-.57-.08A1.87,1.87,0,0,1,997.07,197.58Z"/><path class="cls-5" d="M1003.5,213.5a1.29,1.29,0,0,1-.67-.19Z"/><path class="cls-5" d="M1006.5,206c0,4.14-1.34,7.5-3,7.5l-.67-.19-6.33-1.81c2.21,0,4-3.13,4-7,0-3.53-1.49-6.44-3.43-6.92l6.43.92C1005.16,198.5,1006.5,201.86,1006.5,206Z"/><path class="cls-5" d="M997.5,209.5a3.43,3.43,0,0,1-2,.74,6.48,6.48,0,0,1-1.31,0c-.76-.08-1.63-.23-2.69-.37a36.28,36.28,0,0,0-5-.34,37.64,37.64,0,0,0-12,2c-4.93,1.71-8.22,4.18-12,7a79.84,79.84,0,0,0-8,7,87.42,87.42,0,0,0-10.14,13.09c-.61.95-1.23,1.94-1.86,3-1.32,2.22-2.65,4.63-3.94,7.23l-.06.12c-5.92,12.06-10.78,28.06-9,46.58a91.7,91.7,0,0,0,8,29c.33.71.66,1.4,1,2.08a104.72,104.72,0,0,0,9.08,14.92c.31.43.61.85.92,1.26.67.94,1.34,1.85,2,2.74,1.46,2,2.79,3.66,4,5.11,1.49,1.77,2.8,3.2,4,4.45.88.92,1.69,1.73,2.46,2.52.6,3.49.55,6.79-1.46,8.92a5.57,5.57,0,0,1-1,.84,6,6,0,0,1-.76.44,29.56,29.56,0,0,0-3.24-5.28,28.09,28.09,0,0,0-5-5c-.29-.23-.63-.52-1-.85a55.21,55.21,0,0,1-4-4.09c-1.52-1.69-3.23-3.73-5-6.06l-1-1.32c-1.08-1.46-2.18-3-3.27-4.68a99.09,99.09,0,0,1-10.73-21c-6.56-18.27-4.9-34.2-4-42a106.82,106.82,0,0,1,10-33.66,99.45,99.45,0,0,1,6-10.54c.64-1,1.31-2,2-3a89.45,89.45,0,0,1,8-9.85,82.33,82.33,0,0,1,9.66-8.82,71.56,71.56,0,0,1,13.34-8.18c7-3.3,11.51-3.93,19-5,1.12-.16,2.12-.27,3-.36a23,23,0,0,1,3.43-.08l.57.06a4.39,4.39,0,0,1,3,1.38C1000.79,202.05,1000.19,207.44,997.5,209.5Z"/><path class="cls-5" d="M978.5,456.5c0,.85.06,7.86,0,12,0,3.71-1.52,6.81-1,9h-10c1.44-36,.4-63.73-1-78a117.58,117.58,0,0,0-7.45-28.63l.45-.37a19.13,19.13,0,0,0,4-4,12.8,12.8,0,0,0,1.85-3.8c.38.56.77,1.15,1.15,1.8,6.89,11.63,8.35,21.39,11,39C981.39,429.4,978.5,447.5,978.5,456.5Z"/><path class="cls-5" d="M924.5,358.5c0,7.73-4.7,14-10.5,14a9.15,9.15,0,0,1-7-3.52l.9.29,6.06,2c3.7-1.1,6.5-6.18,6.5-12.28,0-6.9-3.58-12.5-8-12.5l-2.58-.9a8.21,8.21,0,0,1,4.08-1.1C919.8,344.5,924.5,350.77,924.5,358.5Z"/><path class="cls-5" d="M954.5,362.5v15h-15v-31c1.77,2.33,3.48,4.37,5,6.06a55.21,55.21,0,0,0,4,4.09c.37.33.71.62,1,.85A28.09,28.09,0,0,1,954.5,362.5Z"/><path class="cls-5" d="M956.49,343.46a2.63,2.63,0,0,1-.49,0,3.86,3.86,0,0,1-1.5-.3v7.41c-1.21-1.45-2.54-3.12-4-5.11-.66-.89-1.33-1.8-2-2.74-.31-.41-.61-.83-.92-1.26h6.92v1H956C956.19,342.83,956.34,343.15,956.49,343.46Z"/><path class="cls-4" d="M958.5,348.3v6.76c-1.2-1.25-2.51-2.68-4-4.45V343.2a3.86,3.86,0,0,0,1.5.3,2.63,2.63,0,0,0,.49,0A46.79,46.79,0,0,1,958.5,348.3Z"/><path class="cls-5" d="M958.5,342.5v.09a3.52,3.52,0,0,1-2,.87c-.15-.31-.3-.63-.47-1Z"/><path class="cls-4" d="M958.5,371.32v5.18h-4v-14a29.56,29.56,0,0,1,3.24,5.28,8.33,8.33,0,0,1-2.24.72v5C956.3,373,957.33,372.25,958.5,371.32Z"/><path class="cls-5" d="M965.35,362.7a12.8,12.8,0,0,1-1.85,3.8,19.13,19.13,0,0,1-4,4l-.45.37-.55.45c-1.17.93-2.2,1.66-3,2.18v-5a8.33,8.33,0,0,0,2.24-.72,6,6,0,0,0,.76-.44,5.57,5.57,0,0,0,1-.84c2-2.13,2.06-5.43,1.46-8.92-.35-2-.93-4.12-1.46-6.08-.26-.92-.58-2-1-3.2a46.79,46.79,0,0,0-2-4.84,3.52,3.52,0,0,0,2-.87,1.07,1.07,0,0,0,.16-.14c.85,1.26,1.29,3.71,2.84,8.05a43.67,43.67,0,0,0,2,5c1.32,2.71,1.74,2.73,2,4A6.86,6.86,0,0,1,965.35,362.7Z"/><path class="cls-5" d="M958.5,342.5v.09a3.52,3.52,0,0,1-2,.87c-.15-.31-.3-.63-.47-1Z"/><path class="cls-5" d="M959.5,340.5a2.74,2.74,0,0,1-.84,1.95,1.07,1.07,0,0,1-.16.14v-.09h-4v-1h-1.79a2.42,2.42,0,0,1-.21-1,3.54,3.54,0,0,1,7,0Z"/><path class="cls-5" d="M958.5,342.5v.09a3.52,3.52,0,0,1-2,.87c-.15-.31-.3-.63-.47-1Z"/><path class="cls-5" d="M924.5,358.5c0,7.73-4.7,14-10.5,14a9.15,9.15,0,0,1-7-3.52l.9.29,6.06,2c3.7-1.1,6.5-6.18,6.5-12.28,0-6.9-3.58-12.5-8-12.5l-2.58-.9a8.21,8.21,0,0,1,4.08-1.1C919.8,344.5,924.5,350.77,924.5,358.5Z"/><path class="cls-5" d="M914,371.28a5.39,5.39,0,0,1-1.5.22,6.24,6.24,0,0,1-4.56-2.23Z"/><path class="cls-5" d="M920.5,359c0,6.1-2.8,11.18-6.5,12.28l-6.06-2L907,369l-5.54-1.84-2-.66-9-3-.72-18-.28-7,10,3.48,2,.69,8.42,2.93,2.58.9C916.92,346.5,920.5,352.1,920.5,359Z"/><path class="cls-5" d="M889.5,311.5v64l-2,.22-34,3.78.15-9.89a16.47,16.47,0,0,0,8.85,5.89c2.27.53,1.43-.28,14-2a8.11,8.11,0,0,0,5-2,6.45,6.45,0,0,0,1.34-2,8.29,8.29,0,0,0,.51-1.72,9.92,9.92,0,0,0,.15-1.28l1-47.8,0-.77v-.6l0-.83-7-2a76.76,76.76,0,0,0-15,2c-2.46.58-4.76,1.25-6.88,2l-1.18-.16.06-3.8Z"/><path class="cls-5" d="M884.5,316.5l0,.83v.6l0,.77-1,47.8a9.92,9.92,0,0,1-.15,1.28l-5.21-12.72-.64-1.56-1-4.37-1-4.63,1-17,1.91-2.86-.91-3.14-21.88-3c2.12-.71,4.42-1.38,6.88-2a76.76,76.76,0,0,1,15-2Z"/><polygon class="cls-5" points="854.2 334.12 854.19 334.78 854.15 334.75 854.2 334.12"/><path class="cls-6" d="M878.14,355.06l-2.64,6.44-3,2h-10l-8.66-6.14-1.49-1.06-6.92-4.91-11.59-8.21L807.5,324.5l-6-1v-20l1.24-.11a6.94,6.94,0,0,0,3.76,1.11h10l-11,15,19-1,13,5,16.65,11.25,0,0,6.09,4.11,14.22,9.61,2,.63,1,4.37Z"/><path class="cls-7" d="M883.35,367.78a8.29,8.29,0,0,1-.51,1.72,6.45,6.45,0,0,1-1.34,2,8.11,8.11,0,0,1-5,2c-12.57,1.72-11.73,2.53-14,2a16.47,16.47,0,0,1-8.85-5.89,24.25,24.25,0,0,1-2.15-3.11l.85-10.2,1.49,1.06,8.66,6.14h10l3-2,2.64-6.44Z"/><path class="cls-5" d="M884.5,316.5l0,.83v.6l0,.77-1,47.8a9.92,9.92,0,0,1-.15,1.28l-5.21-12.72-.64-1.56-1-4.37-1-4.63,1-17,1.91-2.86-.91-3.14-21.88-3c2.12-.71,4.42-1.38,6.88-2a76.76,76.76,0,0,1,15-2Z"/><polygon class="cls-6" points="884.47 317.93 884.45 318.7 883.35 367.78 878.14 355.06 877.5 353.5 876.53 349.13 875.5 344.5 876.5 327.5 878.41 324.64 880.5 321.5 884.47 317.93"/><polygon class="cls-5" points="854.2 334.12 854.19 334.78 854.15 334.75 854.2 334.12"/><polygon class="cls-5" points="875.5 344.5 876.53 349.13 874.5 348.5 860.28 338.89 854.19 334.78 854.2 334.12 854.15 334.75 837.5 323.5 824.5 318.5 805.5 319.5 816.5 304.5 824.5 305.3 826.5 305.5 841.5 316.5 854.44 318.3 855.62 318.46 877.5 321.5 878.41 324.64 876.5 327.5 875.5 344.5"/><path class="cls-4" d="M824.5,301.5v3.8l-8-.8h-10a6.94,6.94,0,0,1-3.76-1.11l20.4-1.77Z"/><polygon class="cls-5" points="854.2 334.12 854.19 334.78 854.15 334.75 854.2 334.12"/><path class="cls-4" d="M823.53,301a6,6,0,0,1-.39.59l-20.4,1.77a4.19,4.19,0,0,1-.6-.44l1.36-.45-3.45-7.72a6.7,6.7,0,0,1,1-1.6,5.21,5.21,0,0,1,.54-.62,5,5,0,0,1,.61-.53l6.71-.49.62,0,7,10Z"/><path class="cls-7" d="M823.14,301.62a6.88,6.88,0,0,1-.7.82,7,7,0,0,1-4.94,2.06h-11a6.94,6.94,0,0,1-3.76-1.11Z"/><path class="cls-5" d="M826.31,269l-.18.06v0Z"/><path class="cls-7" d="M809.5,290a1.68,1.68,0,0,1-.07.5,2.34,2.34,0,0,1-.55,1l-6.71.49a5,5,0,0,0-.61.53,5.21,5.21,0,0,0-.54.62,6.46,6.46,0,0,1-2.09-.92h0A2.83,2.83,0,0,1,797.5,290c0-1.93,2.69-3.5,6-3.5S809.5,288.07,809.5,290Z"/><polygon class="cls-4" points="900.5 366.81 900.5 386.5 887.5 386.5 887.5 375.72 889.5 375.5 889.5 345.5 889.78 345.5 890.5 363.5 899.5 366.48 900.5 366.81"/><path class="cls-5" d="M901.5,380.36v7.14h-10v-1h9v-5A10.2,10.2,0,0,1,901.5,380.36Z"/><path class="cls-4" d="M831.32,266.11a.5.5,0,0,1,0,.21c-.18.78-2,1.7-4.85,2.61l-.12,0h0l-.19,0c-.37-1.53-.62-2.49-.62-2.49-10-1-20.76-1-32,5l0,.3c0,.33-.08.94-.14,1.72-4.08,0-7-.36-8.15-1a.9.9,0,0,1-.5-.6c-.24-1.92,10-4.77,22.89-6.36S831.08,264.19,831.32,266.11Z"/><path class="cls-5" d="M831.5,300.5l-8,.53-7,.47-7-10-.62,0a2.34,2.34,0,0,0,.55-1,1.68,1.68,0,0,0,.07-.5c0-1.93-2.69-3.5-6-3.5s-6,1.57-6,3.5a2.83,2.83,0,0,0,1.42,2.26h0a6.46,6.46,0,0,0,2.09.92,6.7,6.7,0,0,0-1,1.6l3.45,7.72-1.36.45-1.64.55-4-10-3-9c-.72-2-.4-7.87-.17-11,.06-.78.11-1.39.14-1.72l0-.3c11.24-6,22-6,32-5,0,0,.25,1,.62,2.49v0l.06.23.06.23c1.43,5.68,4.37,17.53,4.25,18Z"/><path class="cls-7" d="M703.5,256.5l-35.86,11.65-4.14,1.35-.18-6q-.41-13.49-.82-27v-2a3.48,3.48,0,0,0,3,1,3.39,3.39,0,0,0,2-2c1.27-2.48.28-5.22,0-6a9.64,9.64,0,0,0-1-2L681,219c5.26,5.72,21.08,30.81,21.46,31.55.11.21.24.43.37.66Z"/><path class="cls-5" d="M879.5,242.5a8.72,8.72,0,0,1-2,4,8,8,0,0,1-3,2l-7,1.4-3,.6-152,9-1.89-1.89a16.05,16.05,0,0,1-6.11-4.11,13.69,13.69,0,0,1-1.69-2.3c-.13-.23-.26-.45-.37-.66-.38-.74-16.2-25.83-21.46-31.55-.17-.18-.33-.35-.48-.49a34.08,34.08,0,0,0-3.86-3.22q-.63-.45-1.14-.78a52.23,52.23,0,0,0-18,8,51.46,51.46,0,0,0-5,4,69.05,69.05,0,0,0,0,8,67.2,67.2,0,0,0,1,8.35,97,97,0,0,0,4,14.28c1.52,4.39,3,8.41,4,12.37a18.15,18.15,0,0,0,1,3,20,20,0,0,0,2.86,4.71l-.86.29h-8a10.16,10.16,0,0,1-2-2,10.57,10.57,0,0,1-2-5l-14-34a22.3,22.3,0,0,1,2-8c2.43-5.26,6.29-8.07,9-10a40,40,0,0,1,21-7s193-12.48,194-12c1.34.69,1.82,2.49,2,4l12,29,1,3A14.16,14.16,0,0,1,879.5,242.5Z"/><path class="cls-6" d="M867.5,249.9v3.6a56.72,56.72,0,0,1-5,4,62.73,62.73,0,0,1-24,10c-3.39.67-11,1.91-12,2a.64.64,0,0,1-.25,0c-.11,0-.13-.11-.06-.23a1.31,1.31,0,0,1,.26-.33c2.89-.91,4.67-1.83,4.85-2.61l.07.05s0-.09,0-.26c-.24-1.92-10.87-2.18-23.75-.58s-23.13,4.44-22.89,6.36a.9.9,0,0,0,.5.6c-53.26,4.33-73.68,5-73.68,5-11.33.38-26.7.79-45,1-.34-.36-.73-.79-1.14-1.29a20,20,0,0,1-2.86-4.71,18.15,18.15,0,0,1-1-3c-1-4-2.52-8-4-12.37a97,97,0,0,1-4-14.28,67.2,67.2,0,0,1-1-8.35,69.05,69.05,0,0,1,0-8,51.46,51.46,0,0,1,5-4,52.23,52.23,0,0,1,18-8q.51.33,1.14.78a34.08,34.08,0,0,1,3.86,3.22c.15.14.31.31.48.49L666.5,225.5a9.64,9.64,0,0,1,1,2c.28.78,1.27,3.52,0,6a3.39,3.39,0,0,1-2,2,3.48,3.48,0,0,1-3-1v2q.4,13.49.82,27l.18,6,4.14-1.35L703.5,256.5l-.69-5.3a13.69,13.69,0,0,0,1.69,2.3,16.05,16.05,0,0,0,6.11,4.11l1.89,1.89,152-9Z"/><path class="cls-5" d="M848.5,477.5h-29c-2.22-1.37-5.7-3.49-10-6-11.79-6.87-19.24-10.47-22-12-12.47-6.91-25.34-24.64-27-45-2.07-25.43,14.3-43.47,20-49,12.36-12,27.09-16.18,37-19a110.93,110.93,0,0,1,16.34-3.32l11.59,8.21a92.41,92.41,0,0,0-11.93,1.11,98.2,98.2,0,0,0-16,4c-7.62,2.49-16,5.32-25,12a51.7,51.7,0,0,0-8,7,50,50,0,0,0-12,24,49.45,49.45,0,0,0,2,26c5.71,15.26,18.41,22.88,41,36A247.62,247.62,0,0,0,848.5,477.5Z"/><path class="cls-5" d="M944.5,377.5v4a56.63,56.63,0,0,0-6-2.59,52.76,52.76,0,0,0-9-2.41s-7.94-1.39-22,1a11.1,11.1,0,0,0-5,2,10.05,10.05,0,0,0-1,.86,10.2,10.2,0,0,0-1,1.14V366.81l1,.33L907,369a9.15,9.15,0,0,0,7,3.52c5.8,0,10.5-6.27,10.5-14s-4.7-14-10.5-14a8.21,8.21,0,0,0-4.08,1.1l-8.42-2.93-2-.69V340.5h35.73c1.09,1.66,2.19,3.22,3.27,4.68l1,1.32v31Z"/><path class="cls-4" d="M924.5,358.5c0,7.73-4.7,14-10.5,14a9.15,9.15,0,0,1-7-3.52l.9.29,6.06,2c3.7-1.1,6.5-6.18,6.5-12.28,0-6.9-3.58-12.5-8-12.5l-2.58-.9a8.21,8.21,0,0,1,4.08-1.1C919.8,344.5,924.5,350.77,924.5,358.5Z"/><path class="cls-5" d="M941.25,213.31l-1.75.19a10.89,10.89,0,0,0-1,.48l-.39.24-.26.17a8.53,8.53,0,0,0-.84.64c-.17.14-.34.3-.51.47-4,4-3.21,11.28-1,16a15.3,15.3,0,0,0,1,1.8,99.45,99.45,0,0,0-6,10.54A28.11,28.11,0,0,0,917,243a37.93,37.93,0,0,0-8.63,2.2l.13-35.7c.67-.12,3.9-.41,4.5-.5,6.84-1.06,14.94-2.23,24,1a9.66,9.66,0,0,1,1.5.68A9.56,9.56,0,0,1,941.25,213.31Z"/><path class="cls-5" d="M924.5,319.5a99.09,99.09,0,0,0,10.73,21H901.5V248.6a41.09,41.09,0,0,1,6.87-3.4A37.93,37.93,0,0,1,917,243a28.11,28.11,0,0,1,13.53.84,106.82,106.82,0,0,0-10,33.66C919.6,285.3,917.94,301.23,924.5,319.5Z"/><path class="cls-5" d="M939.5-119.5l-1,330.18A9.66,9.66,0,0,0,937,210c-9.06-3.23-17.16-2.06-24-1-.6.09-3.83.38-4.5.5l-7-1.5,1-327.5Z"/><path class="cls-5" d="M938.5,379.5V495h-37V381.25a10.65,10.65,0,0,1,1-1,10,10,0,0,1,5-2.42c14.06-2.89,22-1.21,22-1.21A45.72,45.72,0,0,1,938.5,379.5Z"/><path class="cls-5" d="M938.5,248.92v77.66c-.34-.68-.67-1.37-1-2.08a91.7,91.7,0,0,1-8-29C927.72,277,932.58,261,938.5,248.92Z"/></g><g id="Layer_3" data-name="Layer 3"><ellipse class="cls-8" cx="998.23" cy="299.68" rx="29.23" ry="27.68"/><ellipse class="cls-8" cx="1051" cy="426.5" rx="47" ry="44.5"/><ellipse class="cls-8" cx="855.5" cy="150.59" rx="20.5" ry="19.41"/><ellipse class="cls-8" cx="767.73" cy="104" rx="13.73" ry="13"/><ellipse class="cls-8" cx="705.36" cy="78.8" rx="7.93" ry="8.37" transform="translate(150.88 521.84) rotate(-45)"/><ellipse class="cls-8" cx="641.49" cy="36.51" rx="4.69" ry="4.95" transform="translate(162.07 464.29) rotate(-45)"/></g></svg>