<svg xmlns="http://www.w3.org/2000/svg" viewBox="0 0 1366 475"><defs><style>.cls-1{fill:#f7c319;}.cls-2{fill:none;stroke:#fff;stroke-miterlimit:10;stroke-width:0.5px;}</style></defs><title>Artboard 4</title><g id="Layer_7" data-name="Layer 7"><ellipse class="cls-1" cx="670.17" cy="69.64" rx="8.83" ry="8.36"/><ellipse class="cls-1" cx="763.17" cy="170.33" rx="21.83" ry="20.67"/><ellipse class="cls-1" cx="585.67" cy="374.92" rx="42.33" ry="40.08"/><ellipse class="cls-1" cx="697.26" cy="281.5" rx="26.93" ry="25.5"/><path class="cls-2" d="M391.58,1c-1.39,37-3,64.71-4.08,81.5-4.26,67.54-9.79,123.16-14,161"/><path class="cls-2" d="M438.17,1c3.25,81.1,7,174.7,11.33,282.5"/><path class="cls-2" d="M497.23-.62c1.39,73,3.13,155.93,5.27,250.12"/><path class="cls-2" d="M535.93-.62q-.25,108.08-2.43,216.12-.86,42.51-2,85"/><path class="cls-2" d="M525-.62q-2.87,93.29-8.52,185.12"/></g></svg>