<svg xmlns="http://www.w3.org/2000/svg" xmlns:xlink="http://www.w3.org/1999/xlink" viewBox="0 0 1366 475"><defs><style>.cls-1,.cls-2,.cls-3,.cls-4{fill:none;}.cls-2,.cls-4{stroke:#000;}.cls-2,.cls-3,.cls-4{stroke-miterlimit:10;}.cls-2{stroke-width:0.5px;}.cls-3{stroke:#09000e;stroke-width:2px;}.cls-5{fill:url(#line_shading);}.cls-6{fill:#f7c319;}</style><pattern id="line_shading" data-name="line shading" width="100" height="100" patternTransform="translate(-1728 -238)" patternUnits="userSpaceOnUse" viewBox="0 0 100 100"><rect class="cls-1" width="100" height="100"/><line class="cls-2" x1="99.88" y1="242.88" x2="259.78" y2="82.99"/><line class="cls-2" x1="88.48" y1="183.54" x2="190.51" y2="81.51"/><line class="cls-2" x1="83.27" y1="191.87" x2="192.95" y2="82.18"/><line class="cls-2" x1="85.07" y1="193.19" x2="197.35" y2="80.91"/><line class="cls-2" x1="78.68" y1="202.18" x2="203.26" y2="77.59"/><line class="cls-2" x1="80.99" y1="180.11" x2="182.55" y2="78.55"/><line class="cls-2" x1="75.78" y1="188.44" x2="185.47" y2="78.76"/><line class="cls-2" x1="77.58" y1="189.76" x2="189.86" y2="77.48"/><line class="cls-2" x1="71.19" y1="198.75" x2="195.77" y2="74.17"/><line class="cls-2" x1="89.78" y1="204.07" x2="216.65" y2="77.2"/><line class="cls-2" x1="82.65" y1="214.32" x2="223.42" y2="73.54"/><line class="cls-2" x1="84.52" y1="215.56" x2="228.62" y2="71.46"/><line class="cls-2" x1="75.95" y1="226.73" x2="235.84" y2="66.84"/><line class="cls-2" x1="81.71" y1="201.22" x2="208.59" y2="74.35"/><line class="cls-2" x1="74.58" y1="211.47" x2="215.36" y2="70.69"/><line class="cls-2" x1="76.45" y1="212.71" x2="220.56" y2="68.61"/><line class="cls-2" x1="67.88" y1="223.88" x2="227.78" y2="63.99"/><line class="cls-2" x1="92.81" y1="212.47" x2="233.58" y2="71.7"/><line class="cls-2" x1="94.68" y1="213.72" x2="238.78" y2="69.62"/><line class="cls-2" x1="86.1" y1="224.89" x2="246" y2="65"/><line class="cls-2" x1="17.07" y1="212.19" x2="129.35" y2="99.91"/><line class="cls-2" x1="10.68" y1="221.18" x2="135.26" y2="96.59"/><line class="cls-2" x1="12.99" y1="199.11" x2="114.55" y2="97.55"/><line class="cls-2" x1="7.78" y1="207.44" x2="117.47" y2="97.76"/><line class="cls-2" x1="9.58" y1="208.76" x2="121.86" y2="96.48"/><line class="cls-2" x1="3.19" y1="217.75" x2="127.77" y2="93.17"/><line class="cls-2" x1="21.78" y1="223.07" x2="148.65" y2="96.2"/><line class="cls-2" x1="14.65" y1="233.32" x2="155.42" y2="92.54"/><line class="cls-2" x1="16.52" y1="234.56" x2="160.62" y2="90.46"/><line class="cls-2" x1="7.95" y1="245.73" x2="167.84" y2="85.84"/><line class="cls-2" x1="13.71" y1="220.22" x2="140.59" y2="93.35"/><line class="cls-2" x1="6.58" y1="230.47" x2="147.36" y2="89.69"/><line class="cls-2" x1="8.45" y1="231.71" x2="152.56" y2="87.61"/><line class="cls-2" x1="-0.12" y1="242.88" x2="159.78" y2="82.99"/><line class="cls-2" x1="24.81" y1="231.47" x2="165.58" y2="90.7"/><line class="cls-2" x1="26.68" y1="232.72" x2="170.78" y2="88.62"/><line class="cls-2" x1="18.1" y1="243.89" x2="178" y2="84"/><line class="cls-2" x1="-11.52" y1="183.54" x2="90.51" y2="81.51"/><line class="cls-2" x1="-16.73" y1="191.87" x2="92.95" y2="82.18"/><line class="cls-2" x1="-14.93" y1="193.19" x2="97.35" y2="80.91"/><line class="cls-2" x1="-21.32" y1="202.18" x2="103.26" y2="77.59"/><line class="cls-2" x1="-19.01" y1="180.11" x2="82.55" y2="78.55"/><line class="cls-2" x1="-24.22" y1="188.44" x2="85.47" y2="78.76"/><line class="cls-2" x1="-22.42" y1="189.76" x2="89.86" y2="77.48"/><line class="cls-2" x1="-28.81" y1="198.75" x2="95.77" y2="74.17"/><line class="cls-2" x1="-10.22" y1="204.07" x2="116.65" y2="77.2"/><line class="cls-2" x1="-17.35" y1="214.32" x2="123.42" y2="73.54"/><line class="cls-2" x1="-15.48" y1="215.56" x2="128.62" y2="71.46"/><line class="cls-2" x1="-24.05" y1="226.73" x2="135.84" y2="66.84"/><line class="cls-2" x1="-18.29" y1="201.22" x2="108.59" y2="74.35"/><line class="cls-2" x1="-25.42" y1="211.47" x2="115.36" y2="70.69"/><line class="cls-2" x1="-23.55" y1="212.71" x2="120.56" y2="68.61"/><line class="cls-2" x1="-32.12" y1="223.88" x2="127.78" y2="63.99"/><line class="cls-2" x1="-7.19" y1="212.47" x2="133.58" y2="71.7"/><line class="cls-2" x1="-5.32" y1="213.72" x2="138.78" y2="69.62"/><line class="cls-2" x1="-13.9" y1="224.89" x2="146" y2="65"/><line class="cls-2" x1="-82.93" y1="212.19" x2="29.35" y2="99.91"/><line class="cls-2" x1="-89.32" y1="221.18" x2="35.26" y2="96.59"/><line class="cls-2" x1="-87.01" y1="199.11" x2="14.55" y2="97.55"/><line class="cls-2" x1="-92.22" y1="207.44" x2="17.47" y2="97.76"/><line class="cls-2" x1="-90.42" y1="208.76" x2="21.86" y2="96.48"/><line class="cls-2" x1="-96.81" y1="217.75" x2="27.77" y2="93.17"/><line class="cls-2" x1="-78.22" y1="223.07" x2="48.65" y2="96.2"/><line class="cls-2" x1="-85.35" y1="233.32" x2="55.42" y2="92.54"/><line class="cls-2" x1="-83.48" y1="234.56" x2="60.62" y2="90.46"/><line class="cls-2" x1="-92.05" y1="245.73" x2="67.84" y2="85.84"/><line class="cls-2" x1="-86.29" y1="220.22" x2="40.59" y2="93.35"/><line class="cls-2" x1="-93.42" y1="230.47" x2="47.36" y2="89.69"/><line class="cls-2" x1="-91.55" y1="231.71" x2="52.56" y2="87.61"/><line class="cls-2" x1="-100.12" y1="242.88" x2="59.78" y2="82.99"/><line class="cls-2" x1="-75.19" y1="231.47" x2="65.58" y2="90.7"/><line class="cls-2" x1="-73.32" y1="232.72" x2="70.78" y2="88.62"/><line class="cls-2" x1="-81.9" y1="243.89" x2="78" y2="84"/><line class="cls-2" x1="-121.32" y1="202.18" x2="3.26" y2="77.59"/><line class="cls-2" x1="-110.22" y1="204.07" x2="16.65" y2="77.2"/><line class="cls-2" x1="-117.35" y1="214.32" x2="23.42" y2="73.54"/><line class="cls-2" x1="-115.48" y1="215.56" x2="28.62" y2="71.46"/><line class="cls-2" x1="-124.05" y1="226.73" x2="35.84" y2="66.84"/><line class="cls-2" x1="-118.29" y1="201.22" x2="8.59" y2="74.35"/><line class="cls-2" x1="-125.42" y1="211.47" x2="15.36" y2="70.69"/><line class="cls-2" x1="-123.55" y1="212.71" x2="20.56" y2="68.61"/><line class="cls-2" x1="-132.12" y1="223.88" x2="27.78" y2="63.99"/><line class="cls-2" x1="-107.19" y1="212.47" x2="33.58" y2="71.7"/><line class="cls-2" x1="-105.32" y1="213.72" x2="38.78" y2="69.62"/><line class="cls-2" x1="-113.9" y1="224.89" x2="46" y2="65"/><line class="cls-2" x1="99.88" y1="142.88" x2="259.78" y2="-17.01"/><line class="cls-2" x1="88.48" y1="83.54" x2="190.51" y2="-18.49"/><line class="cls-2" x1="83.27" y1="91.87" x2="192.95" y2="-17.82"/><line class="cls-2" x1="85.07" y1="93.19" x2="197.35" y2="-19.09"/><line class="cls-2" x1="78.68" y1="102.18" x2="203.26" y2="-22.41"/><line class="cls-2" x1="80.99" y1="80.11" x2="182.55" y2="-21.45"/><line class="cls-2" x1="75.78" y1="88.44" x2="185.47" y2="-21.24"/><line class="cls-2" x1="77.58" y1="89.76" x2="189.86" y2="-22.52"/><line class="cls-2" x1="71.19" y1="98.75" x2="195.77" y2="-25.83"/><line class="cls-2" x1="89.78" y1="104.07" x2="216.65" y2="-22.8"/><line class="cls-2" x1="82.65" y1="114.32" x2="223.42" y2="-26.46"/><line class="cls-2" x1="84.52" y1="115.56" x2="228.62" y2="-28.54"/><line class="cls-2" x1="75.95" y1="126.73" x2="235.84" y2="-33.16"/><line class="cls-2" x1="81.71" y1="101.22" x2="208.59" y2="-25.65"/><line class="cls-2" x1="74.58" y1="111.47" x2="215.36" y2="-29.31"/><line class="cls-2" x1="76.45" y1="112.71" x2="220.56" y2="-31.39"/><line class="cls-2" x1="67.88" y1="123.88" x2="227.78" y2="-36.01"/><line class="cls-2" x1="92.81" y1="112.47" x2="233.58" y2="-28.3"/><line class="cls-2" x1="94.68" y1="113.72" x2="238.78" y2="-30.38"/><line class="cls-2" x1="86.1" y1="124.89" x2="246" y2="-35"/><line class="cls-2" x1="20.48" y1="102.54" x2="122.51" y2="0.51"/><line class="cls-2" x1="15.27" y1="110.87" x2="124.95" y2="1.18"/><line class="cls-2" x1="17.07" y1="112.19" x2="129.35" y2="-0.09"/><line class="cls-2" x1="10.68" y1="121.18" x2="135.26" y2="-3.41"/><line class="cls-2" x1="12.99" y1="99.11" x2="114.55" y2="-2.45"/><line class="cls-2" x1="7.78" y1="107.44" x2="117.47" y2="-2.24"/><line class="cls-2" x1="9.58" y1="108.76" x2="121.86" y2="-3.52"/><line class="cls-2" x1="3.19" y1="117.75" x2="127.77" y2="-6.83"/><line class="cls-2" x1="21.78" y1="123.07" x2="148.65" y2="-3.8"/><line class="cls-2" x1="14.65" y1="133.32" x2="155.42" y2="-7.46"/><line class="cls-2" x1="16.52" y1="134.56" x2="160.62" y2="-9.54"/><line class="cls-2" x1="7.95" y1="145.73" x2="167.84" y2="-14.16"/><line class="cls-2" x1="13.71" y1="120.22" x2="140.59" y2="-6.65"/><line class="cls-2" x1="6.58" y1="130.47" x2="147.36" y2="-10.31"/><line class="cls-2" x1="8.45" y1="131.71" x2="152.56" y2="-12.39"/><line class="cls-2" x1="-0.12" y1="142.88" x2="159.78" y2="-17.01"/><line class="cls-2" x1="24.81" y1="131.47" x2="165.58" y2="-9.3"/><line class="cls-2" x1="26.68" y1="132.72" x2="170.78" y2="-11.38"/><line class="cls-2" x1="18.1" y1="143.89" x2="178" y2="-16"/><line class="cls-2" x1="-11.52" y1="83.54" x2="90.51" y2="-18.49"/><line class="cls-2" x1="-16.73" y1="91.87" x2="92.95" y2="-17.82"/><line class="cls-2" x1="-14.93" y1="93.19" x2="97.35" y2="-19.09"/><line class="cls-2" x1="-21.32" y1="102.18" x2="103.26" y2="-22.41"/><line class="cls-2" x1="-19.01" y1="80.11" x2="82.55" y2="-21.45"/><line class="cls-2" x1="-24.22" y1="88.44" x2="85.47" y2="-21.24"/><line class="cls-2" x1="-22.42" y1="89.76" x2="89.86" y2="-22.52"/><line class="cls-2" x1="-28.81" y1="98.75" x2="95.77" y2="-25.83"/><line class="cls-2" x1="-10.22" y1="104.07" x2="116.65" y2="-22.8"/><line class="cls-2" x1="-17.35" y1="114.32" x2="123.42" y2="-26.46"/><line class="cls-2" x1="-15.48" y1="115.56" x2="128.62" y2="-28.54"/><line class="cls-2" x1="-24.05" y1="126.73" x2="135.84" y2="-33.16"/><line class="cls-2" x1="-18.29" y1="101.22" x2="108.59" y2="-25.65"/><line class="cls-2" x1="-25.42" y1="111.47" x2="115.36" y2="-29.31"/><line class="cls-2" x1="-23.55" y1="112.71" x2="120.56" y2="-31.39"/><line class="cls-2" x1="-32.12" y1="123.88" x2="127.78" y2="-36.01"/><line class="cls-2" x1="-7.19" y1="112.47" x2="133.58" y2="-28.3"/><line class="cls-2" x1="-5.32" y1="113.72" x2="138.78" y2="-30.38"/><line class="cls-2" x1="-13.9" y1="124.89" x2="146" y2="-35"/><line class="cls-2" x1="-79.52" y1="102.54" x2="22.51" y2="0.51"/><line class="cls-2" x1="-84.73" y1="110.87" x2="24.95" y2="1.18"/><line class="cls-2" x1="-82.93" y1="112.19" x2="29.35" y2="-0.09"/><line class="cls-2" x1="-89.32" y1="121.18" x2="35.26" y2="-3.41"/><line class="cls-2" x1="-87.01" y1="99.11" x2="14.55" y2="-2.45"/><line class="cls-2" x1="-92.22" y1="107.44" x2="17.47" y2="-2.24"/><line class="cls-2" x1="-90.42" y1="108.76" x2="21.86" y2="-3.52"/><line class="cls-2" x1="-96.81" y1="117.75" x2="27.77" y2="-6.83"/><line class="cls-2" x1="-78.22" y1="123.07" x2="48.65" y2="-3.8"/><line class="cls-2" x1="-85.35" y1="133.32" x2="55.42" y2="-7.46"/><line class="cls-2" x1="-83.48" y1="134.56" x2="60.62" y2="-9.54"/><line class="cls-2" x1="-92.05" y1="145.73" x2="67.84" y2="-14.16"/><line class="cls-2" x1="-86.29" y1="120.22" x2="40.59" y2="-6.65"/><line class="cls-2" x1="-93.42" y1="130.47" x2="47.36" y2="-10.31"/><line class="cls-2" x1="-91.55" y1="131.71" x2="52.56" y2="-12.39"/><line class="cls-2" x1="-100.12" y1="142.88" x2="59.78" y2="-17.01"/><line class="cls-2" x1="-75.19" y1="131.47" x2="65.58" y2="-9.3"/><line class="cls-2" x1="-73.32" y1="132.72" x2="70.78" y2="-11.38"/><line class="cls-2" x1="-81.9" y1="143.89" x2="78" y2="-16"/><line class="cls-2" x1="-121.32" y1="102.18" x2="3.26" y2="-22.41"/><line class="cls-2" x1="-110.22" y1="104.07" x2="16.65" y2="-22.8"/><line class="cls-2" x1="-117.35" y1="114.32" x2="23.42" y2="-26.46"/><line class="cls-2" x1="-115.48" y1="115.56" x2="28.62" y2="-28.54"/><line class="cls-2" x1="-124.05" y1="126.73" x2="35.84" y2="-33.16"/><line class="cls-2" x1="-118.29" y1="101.22" x2="8.59" y2="-25.65"/><line class="cls-2" x1="-125.42" y1="111.47" x2="15.36" y2="-29.31"/><line class="cls-2" x1="-123.55" y1="112.71" x2="20.56" y2="-31.39"/><line class="cls-2" x1="-132.12" y1="123.88" x2="27.78" y2="-36.01"/><line class="cls-2" x1="-107.19" y1="112.47" x2="33.58" y2="-28.3"/><line class="cls-2" x1="-105.32" y1="113.72" x2="38.78" y2="-30.38"/><line class="cls-2" x1="-113.9" y1="124.89" x2="46" y2="-35"/><line class="cls-2" x1="99.88" y1="42.88" x2="259.78" y2="-117.01"/><line class="cls-2" x1="78.68" y1="2.18" x2="203.26" y2="-122.41"/><line class="cls-2" x1="89.78" y1="4.07" x2="216.65" y2="-122.8"/><line class="cls-2" x1="82.65" y1="14.32" x2="223.42" y2="-126.46"/><line class="cls-2" x1="84.52" y1="15.56" x2="228.62" y2="-128.54"/><line class="cls-2" x1="75.95" y1="26.73" x2="235.84" y2="-133.16"/><line class="cls-2" x1="81.71" y1="1.22" x2="208.59" y2="-125.65"/><line class="cls-2" x1="74.58" y1="11.47" x2="215.36" y2="-129.31"/><line class="cls-2" x1="76.45" y1="12.71" x2="220.56" y2="-131.39"/><line class="cls-2" x1="67.88" y1="23.88" x2="227.78" y2="-136.01"/><line class="cls-2" x1="92.81" y1="12.47" x2="233.58" y2="-128.3"/><line class="cls-2" x1="94.68" y1="13.72" x2="238.78" y2="-130.38"/><line class="cls-2" x1="86.1" y1="24.89" x2="246" y2="-135"/><line class="cls-2" x1="20.48" y1="2.54" x2="122.51" y2="-99.49"/><line class="cls-2" x1="15.27" y1="10.87" x2="124.95" y2="-98.82"/><line class="cls-2" x1="17.07" y1="12.19" x2="129.35" y2="-100.09"/><line class="cls-2" x1="10.68" y1="21.18" x2="135.26" y2="-103.41"/><line class="cls-2" x1="7.78" y1="7.44" x2="117.47" y2="-102.24"/><line class="cls-2" x1="9.58" y1="8.76" x2="121.86" y2="-103.52"/><line class="cls-2" x1="3.19" y1="17.75" x2="127.77" y2="-106.83"/><line class="cls-2" x1="21.78" y1="23.07" x2="148.65" y2="-103.8"/><line class="cls-2" x1="14.65" y1="33.32" x2="155.42" y2="-107.46"/><line class="cls-2" x1="16.52" y1="34.56" x2="160.62" y2="-109.54"/><line class="cls-2" x1="7.95" y1="45.73" x2="167.84" y2="-114.16"/><line class="cls-2" x1="13.71" y1="20.22" x2="140.59" y2="-106.65"/><line class="cls-2" x1="6.58" y1="30.47" x2="147.36" y2="-110.31"/><line class="cls-2" x1="8.45" y1="31.71" x2="152.56" y2="-112.39"/><line class="cls-2" x1="-0.12" y1="42.88" x2="159.78" y2="-117.01"/><line class="cls-2" x1="24.81" y1="31.47" x2="165.58" y2="-109.3"/><line class="cls-2" x1="26.68" y1="32.72" x2="170.78" y2="-111.38"/><line class="cls-2" x1="18.1" y1="43.89" x2="178" y2="-116"/><line class="cls-2" x1="-21.32" y1="2.18" x2="103.26" y2="-122.41"/><line class="cls-2" x1="-10.22" y1="4.07" x2="116.65" y2="-122.8"/><line class="cls-2" x1="-17.35" y1="14.32" x2="123.42" y2="-126.46"/><line class="cls-2" x1="-15.48" y1="15.56" x2="128.62" y2="-128.54"/><line class="cls-2" x1="-24.05" y1="26.73" x2="135.84" y2="-133.16"/><line class="cls-2" x1="-18.29" y1="1.22" x2="108.59" y2="-125.65"/><line class="cls-2" x1="-25.42" y1="11.47" x2="115.36" y2="-129.31"/><line class="cls-2" x1="-23.55" y1="12.71" x2="120.56" y2="-131.39"/><line class="cls-2" x1="-32.12" y1="23.88" x2="127.78" y2="-136.01"/><line class="cls-2" x1="-7.19" y1="12.47" x2="133.58" y2="-128.3"/><line class="cls-2" x1="-5.32" y1="13.72" x2="138.78" y2="-130.38"/><line class="cls-2" x1="-13.9" y1="24.89" x2="146" y2="-135"/><line class="cls-2" x1="-79.52" y1="2.54" x2="22.51" y2="-99.49"/><line class="cls-2" x1="-84.73" y1="10.87" x2="24.95" y2="-98.82"/><line class="cls-2" x1="-82.93" y1="12.19" x2="29.35" y2="-100.09"/><line class="cls-2" x1="-89.32" y1="21.18" x2="35.26" y2="-103.41"/><line class="cls-2" x1="-92.22" y1="7.44" x2="17.47" y2="-102.24"/><line class="cls-2" x1="-90.42" y1="8.76" x2="21.86" y2="-103.52"/><line class="cls-2" x1="-96.81" y1="17.75" x2="27.77" y2="-106.83"/><line class="cls-2" x1="-78.22" y1="23.07" x2="48.65" y2="-103.8"/><line class="cls-2" x1="-85.35" y1="33.32" x2="55.42" y2="-107.46"/><line class="cls-2" x1="-83.48" y1="34.56" x2="60.62" y2="-109.54"/><line class="cls-2" x1="-92.05" y1="45.73" x2="67.84" y2="-114.16"/><line class="cls-2" x1="-86.29" y1="20.22" x2="40.59" y2="-106.65"/><line class="cls-2" x1="-93.42" y1="30.47" x2="47.36" y2="-110.31"/><line class="cls-2" x1="-91.55" y1="31.71" x2="52.56" y2="-112.39"/><line class="cls-2" x1="-100.12" y1="42.88" x2="59.78" y2="-117.01"/><line class="cls-2" x1="-75.19" y1="31.47" x2="65.58" y2="-109.3"/><line class="cls-2" x1="-73.32" y1="32.72" x2="70.78" y2="-111.38"/><line class="cls-2" x1="-81.9" y1="43.89" x2="78" y2="-116"/><line class="cls-2" x1="-121.32" y1="2.18" x2="3.26" y2="-122.41"/><line class="cls-2" x1="-110.22" y1="4.07" x2="16.65" y2="-122.8"/><line class="cls-2" x1="-117.35" y1="14.32" x2="23.42" y2="-126.46"/><line class="cls-2" x1="-115.48" y1="15.56" x2="28.62" y2="-128.54"/><line class="cls-2" x1="-124.05" y1="26.73" x2="35.84" y2="-133.16"/><line class="cls-2" x1="-118.29" y1="1.22" x2="8.59" y2="-125.65"/><line class="cls-2" x1="-125.42" y1="11.47" x2="15.36" y2="-129.31"/><line class="cls-2" x1="-123.55" y1="12.71" x2="20.56" y2="-131.39"/><line class="cls-2" x1="-132.12" y1="23.88" x2="27.78" y2="-136.01"/><line class="cls-2" x1="-107.19" y1="12.47" x2="33.58" y2="-128.3"/><line class="cls-2" x1="-105.32" y1="13.72" x2="38.78" y2="-130.38"/><line class="cls-2" x1="-113.9" y1="24.89" x2="46" y2="-135"/></pattern></defs><title>Artboard 3</title><g id="Layer_8" data-name="Layer 8"><path class="cls-3" d="M878,113l7-3c4.12,1.46,10.13,3.47,17.5,5.5a279.31,279.31,0,0,0,42,8c33.54,4.34,29.88,5.71,57,9,22.37,2.72,43.24,3.48,85,5,30.71,1.12,46.06,1.68,56,1,15.09-1,27.28-3,47-2,4.69.23,13.92.82,25,2,9.26,1,17.1,2.09,23,3a27.58,27.58,0,0,1,0,10c-.43,2.28-.87,2.87-2,7-1.22,4.46-1.87,6.84-2,9-.14,2.36.2,7,5,13a131.29,131.29,0,0,1,3,14,133.15,133.15,0,0,1,0,41,58,58,0,0,1,2,8,58.76,58.76,0,0,1,0,20,54.2,54.2,0,0,1,4,14,57.11,57.11,0,0,1-5,32l-33,24a242.57,242.57,0,0,1-41-5c-24.51-5.16-31.72-10.75-53-12a141.58,141.58,0,0,0-33,2c-17.79,3.22-20.91,7.4-37,11s-28.26,2.88-44,2a230.52,230.52,0,0,1-52-9l-77,2a183.18,183.18,0,0,0,4-22,186.64,186.64,0,0,0,1-32c-1.44-34.06,1.55-33.34,0-76-.72-19.79-1.83-32.6-2-60,0-5.9,0-10.76,0-14Z"/><path class="cls-4" d="M1084,192.5c-.38.65-.82,1.37-1.33,2.15l-.25.37-6.07,7.33,0,.06a48.12,48.12,0,0,1-7.07,5.76A45,45,0,0,1,1055,214.5c-4.64,1.15-14,3.47-23-1a30.77,30.77,0,0,1-3-1.62,13.11,13.11,0,0,1-6-7.38,13.39,13.39,0,0,1,1-9c2-4.6,5.84-6.77,8-8a24.31,24.31,0,0,1,10-3c1.56-.16,5,.23,12,1a57.52,57.52,0,0,1,11,2c1.27.38,2.3.74,3,1h3l-.5,1-5,2-2.5,2c-1-.29-2.34-.66-4-1a56.89,56.89,0,0,0-12-1c-6.15-.07-7.7.39-9,1-.82.39-4,1.88-4,4,0,1.13.9,2,2,3a14,14,0,0,0,5,3,16.58,16.58,0,0,0,10,0,21.38,21.38,0,0,0,8-5c1.61-1.42,1.67-1.79,3-3a22.65,22.65,0,0,1,6.29-4c.44-.19.91-.38,1.39-.56l.72-.25.6-.2a10.18,10.18,0,0,0,0-4c-.22-1-1.11-4.4-8-9a37.22,37.22,0,0,0-13-6c-12.32-2.81-22.78,2.28-26,4a6.56,6.56,0,0,1-7-2l11-4a4.88,4.88,0,0,0,2-4,4.81,4.81,0,0,0-5-4l-6.56-3.64L1016,155.5l4-3a29.1,29.1,0,0,1,11,0,29.55,29.55,0,0,1,14,7,46.68,46.68,0,0,1,13,3c3.35,1.3,16.61,6.47,23,20A35,35,0,0,1,1084,192.5Z"/><path class="cls-4" d="M1082.42,195a45.12,45.12,0,0,1-3.42,4.48c-.54.63-1.43,1.64-2.65,2.85Z"/><polygon class="cls-4" points="1018.5 161.5 1018.5 158.17 1021.5 159.83 1018.5 161.5"/><path class="cls-4" d="M1027.24,169.6a22.4,22.4,0,0,0-8.74-.1c-1.77.34-2.48.71-4,1a18.87,18.87,0,0,1-10-1l5,2h3a28.44,28.44,0,0,1,9-2,27.27,27.27,0,0,1,3,0Z"/><path class="cls-4" d="M1032.5,157.5c-.2-.69-.11-.91,0-1,.42-.32,1.46,1.13,3,1a2,2,0,0,1,1,0c.4.16.55.47,1,1a8.4,8.4,0,0,0,1,1l-2-1-4-1"/><path class="cls-4" d="M1069.26,225.9a39.15,39.15,0,0,1-7.75,5.76,43.89,43.89,0,0,0-8-.16c-3.13.23-9.7.71-15.44,3.35l-.56-.35a12.55,12.55,0,0,1-4-4.14c3.14-.62,6.78-1.24,11-1.86C1055.93,226.82,1063.14,225.77,1069.26,225.9Z"/><path class="cls-4" d="M1090.5,201.5a24.48,24.48,0,0,0-4-4,21.84,21.84,0,0,0-4.08-2.48l-6.07,7.33,0,.06a8.86,8.86,0,0,1,3.2,4.09,7.8,7.8,0,0,1,.37,3.48,65.66,65.66,0,0,0-10.64-1.81A45,45,0,0,1,1055,214.5c-4.64,1.15-14,3.47-23-1a30.77,30.77,0,0,1-3-1.62c-4.52,1.94-10.42,5.31-11.53,10.62a10.37,10.37,0,0,0,0,4,11.67,11.67,0,0,0,4.7,6.72c1,.82,2.18,1.57,3.3,2.28,2.3,1.47,4.34,2.77,6.16,3.9,6,3.77,9.7,5.72,12.84,6.1,6.33.75,11.55-1.83,22-7,2.81-1.39,5.32-2.63,7.55-3.79a54,54,0,0,0,9.78-6.14,22.3,22.3,0,0,0,5.67-7.07,27.26,27.26,0,0,0,2.25-6.23C1093.06,209.65,1092.51,204.19,1090.5,201.5Zm-16.13,18.82c-.66.79-1.29,1.52-1.87,2.18a45.69,45.69,0,0,1-3.24,3.4,39.15,39.15,0,0,1-7.75,5.76,35,35,0,0,1-10,3.84c-3.87.83-9,1.94-13.44-.65l-.56-.35a12.55,12.55,0,0,1-4-4.14,7.56,7.56,0,0,1-1-3.86c.12-5.05,5.52-7.77,6-8,1.55-.75,2.32-.65,7-1,9.6-.71,11-1.47,16-1,1.52.14,3,.43,6,1,3.13.59,5.72,1.09,7.87,1.58C1075,219.51,1074.7,219.92,1074.37,220.32Z"/><path class="cls-4" d="M1151.5,239.5v4a41.83,41.83,0,0,1-15,7c-7.63,1.81-13.59.85-25-1-5.3-.86-9.14-1.48-12.28-2.32a79.06,79.06,0,0,1-8.72,9.32,62.8,62.8,0,0,1-32,16c-6.75,1.19-20.8,3.67-34-4-3.28-1.91-14.63-8.5-15-19a17.26,17.26,0,0,1,3-10c1.41-2.08,3.49-4.18,9.7-6.28,1,.82,2.18,1.57,3.3,2.28,2.3,1.47,4.34,2.77,6.16,3.9a14.55,14.55,0,0,0-2.16,3.1c-.67,1.3-3,6.37-1,11,3.23,7.27,14.89,7.78,20,8,4,.17,13.6.45,23-6,2.52-1.73,9.76-7.2,12.82-16-1.13-.63-2.39-1.29-3.82-2-1.12-.54-3.65-1.76-6.45-2.79a54,54,0,0,0,9.78-6.14q1,.31,2,.66a14.86,14.86,0,0,0-.26-2.3,21.77,21.77,0,0,0,3.89-5.43,27.26,27.26,0,0,0,2.25-6.23c.59.39,1.17.8,1.75,1.23,4.21,3.13,9.72,7.23,11,14a16.09,16.09,0,0,1-.3,7.12,24.17,24.17,0,0,0,5.3,2.88c4.37,1.81,17.59,7.06,31,2a32.82,32.82,0,0,0,6-3Z"/><polyline class="cls-4" points="1079.91 208.57 1079.5 213.5 1074.66 219.97"/><polyline class="cls-4" points="1085.83 228.6 1086.5 231.5 1085.5 236.5 1083.76 240.94"/><polyline class="cls-4" points="1104.51 236.18 1103.5 240.5 1100.5 245.5 1098.73 247.81"/><path d="M944.77,277.4l2.67.15-.78,14.18-2.68-.15Zm.7,11.68,3.41.19a3,3,0,0,0,2.07-.52,2.28,2.28,0,0,0,.82-1.76l.23-4.17a2.3,2.3,0,0,0-.62-1.83,3,3,0,0,0-2-.75l-3.4-.19.14-2.57,3.35.18a7,7,0,0,1,3,.77,4.13,4.13,0,0,1,1.81,1.84,5.36,5.36,0,0,1,.5,2.78l-.22,4a5.42,5.42,0,0,1-.77,2.64,4.43,4.43,0,0,1-2,1.67,6.86,6.86,0,0,1-3.12.46l-3.33-.18Z"/><path d="M961.08,291.47a4.46,4.46,0,0,1-1.79-1.86,5.73,5.73,0,0,1-.61-2.76l.06-4a5.76,5.76,0,0,1,.69-2.74,4.54,4.54,0,0,1,1.85-1.81,5.61,5.61,0,0,1,2.73-.61,5.67,5.67,0,0,1,2.71.69,4.64,4.64,0,0,1,1.79,1.86,5.61,5.61,0,0,1,.6,2.76l-.06,4a5.59,5.59,0,0,1-.68,2.74,4.48,4.48,0,0,1-1.85,1.81,5.5,5.5,0,0,1-2.73.61A5.43,5.43,0,0,1,961.08,291.47Zm4-2.27a2.13,2.13,0,0,0,.85-.86,2.76,2.76,0,0,0,.32-1.31l.06-4.16a2.66,2.66,0,0,0-.28-1.31,2.1,2.1,0,0,0-.83-.89,2.46,2.46,0,0,0-1.26-.32,2.52,2.52,0,0,0-1.28.29,2.07,2.07,0,0,0-.85.86,2.72,2.72,0,0,0-.32,1.3l-.06,4.16a2.63,2.63,0,0,0,.28,1.31,2,2,0,0,0,.83.89,2.56,2.56,0,0,0,1.26.33A2.66,2.66,0,0,0,965.11,289.2Z"/><path d="M975.84,278.5l3.18.77,2.59,11.81-.28.19,2.6-10.82,2.49.6-3.32,13.79-3.2-.77-2.61-11.64.29-.2L975,292.9l-2.49-.6Z"/><path d="M989.34,282l10,2.87-.71,2.48-10-2.87Zm3.4,2.18,2.57.74-3.6,12.53-2.57-.74Z"/><path d="M1012.68,288.77l10.12,2.47-.62,2.51-10.11-2.47Zm3.48,2.05,2.6.63-3.09,12.67-2.6-.64Z"/><path d="M1024.29,291.42l2.67.09-.47,14.2-2.67-.09Zm.87,5.95,4.93.16a1.26,1.26,0,0,0,.73-.18,1.35,1.35,0,0,0,.51-.57,2.32,2.32,0,0,0,.21-.87,2.11,2.11,0,0,0-.15-.89,1.38,1.38,0,0,0-.46-.6,1.31,1.31,0,0,0-.72-.23l-4.94-.16.08-2.58,5.16.17a4,4,0,0,1,2,.6,3.61,3.61,0,0,1,1.33,1.53,5.37,5.37,0,0,1-.15,4.46,3.63,3.63,0,0,1-1.43,1.45,4.06,4.06,0,0,1-2.08.46l-5.15-.18Zm2.91,2.23,2.88-.35,3.6,6.73-3.24-.11Z"/><path d="M1037.88,291.42l2.66-.33,1.74,14.09-2.66.33Zm1-.12,8.48-1.05.32,2.56-8.48,1.05Zm.72,5.82,7.42-.92.31,2.56-7.41.91Zm.71,5.71,8.48-1,.31,2.56-8.48,1Z"/><path d="M1054.8,289l1.67-.3,7.83,13-2.84.5-5-9-1.65,10.15-2.84.5Zm-1.15,9.69,7.36-1.3.45,2.54-7.36,1.3Z"/><path d="M1064.56,286.85l2.6-.62,3.3,13.81-2.61.63Zm4,11,3.31-.79a2.94,2.94,0,0,0,1.84-1.09,2.25,2.25,0,0,0,.29-1.91l-1-4.07a2.26,2.26,0,0,0-1.12-1.58,3,3,0,0,0-2.13-.14l-3.31.79-.6-2.51,3.26-.78a7.09,7.09,0,0,1,3.08-.12,4.19,4.19,0,0,1,2.26,1.25,5.38,5.38,0,0,1,1.28,2.52l.93,3.92a5.45,5.45,0,0,1,0,2.75,4.26,4.26,0,0,1-1.42,2.16,6.86,6.86,0,0,1-2.86,1.34l-3.24.77Z"/><path d="M1097.26,294a4.6,4.6,0,0,1-2.12-1.49,5.77,5.77,0,0,1-1.12-2.59l-.71-4a5.75,5.75,0,0,1,.15-2.82,4.56,4.56,0,0,1,1.47-2.13,6,6,0,0,1,5.36-1,4.55,4.55,0,0,1,2.11,1.48,5.7,5.7,0,0,1,1.12,2.6l.71,4a5.53,5.53,0,0,1-.15,2.82,4.57,4.57,0,0,1-1.46,2.13,6.12,6.12,0,0,1-5.36,1Zm3.52-3a2.07,2.07,0,0,0,.67-1,2.83,2.83,0,0,0,.07-1.34l-.74-4.09a2.84,2.84,0,0,0-.52-1.24,2.19,2.19,0,0,0-1-.71,2.67,2.67,0,0,0-1.3-.08,2.54,2.54,0,0,0-1.2.53,2.14,2.14,0,0,0-.68,1,2.72,2.72,0,0,0-.06,1.34l.74,4.1a2.74,2.74,0,0,0,.52,1.23,2.07,2.07,0,0,0,1,.71,2.45,2.45,0,0,0,1.3.08A2.53,2.53,0,0,0,1100.78,291Z"/><path d="M1106.76,278.34l3.21-.59,7.17,9.75-.19.29-2-11,2.52-.46,2.56,13.95-3.24.6-7.11-9.59.19-.29,2,10.78-2.52.47Z"/><path d="M1154.21,277.14l3.51.35-1.39,14.13-2.42-.24,1.08-11,0,.63-3.56,8.51-2.35-.23-1.86-8.85.18-.8-1.08,11-2.42-.24,1.39-14.13,3.5.34,1.76,9.79Z"/><path d="M1163.07,278l2.63.46-2.44,14-2.64-.46Zm-1,11.61,8.42,1.47-.45,2.54-8.41-1.47Zm1-5.68,7.36,1.29-.44,2.54-7.36-1.29Zm1-5.77,8.42,1.47-.45,2.54-8.41-1.47Z"/><polygon class="cls-5" points="921.5 138.5 905.5 128.5 894.5 125.5 889.5 125.5 910.5 143.5 918.5 149.5 927.5 159.5 927.5 165.5 953.5 180.5 979.5 195.5 1002.5 205.5 1021.5 208.5 1041.5 220.5 1045.5 226.5 1060.5 224.5 1064.5 215.5 1057.5 195.5 1041.5 187.5 1019.5 186.5 993.5 184.5 970.5 167.5 956.5 161.5 946.5 159.5 953.5 169.5 955.5 173.5 948.5 170.5 938.5 165.5 932.5 161.5 932.5 157.5 940.5 159.5 936.5 153.5 929.5 149.5 927.5 144.5 931.5 144.5 921.5 138.5"/><polygon class="cls-5" points="910.5 121.5 917.5 129.5 905.5 123.5 940.5 146.5 953.5 149.5 974.5 161.5 996.5 176.5 1000.5 180.5 1004.5 182.5 1015.87 186.22 1035.44 187.22 1046.5 187.5 1073.5 191.5 1083.5 185.5 1087.5 171.5 1075.5 161.5 1060.5 156.5 1009.5 147.5 984.5 146.5 957.5 136.5 929.5 128.5 910.5 121.5"/><polygon class="cls-5" points="1085.5 189.5 1107.5 191.5 1126.5 200.5 1142.5 214.5 1151.5 225.5 1161.5 233.5 1173.5 228.5 1190.5 228.5 1199.5 221.5 1214.5 225.5 1227.5 232.5 1227.5 236.5 1235.5 236.5 1239.5 237.5 1239.5 230.5 1231.5 223.5 1232.5 210.5 1228.5 200.5 1217.5 187.5 1193.5 171.5 1176.5 169.5 1149.5 166.5 1124.5 161.5 1101.5 156.5 1089.5 148.5 1067.5 144.5 1044.5 142.5 1021.5 142.5 1041.5 146.5 1062.5 151.5 1086.5 159.5 1089.5 166.5 1087.5 171.5 1084.37 182.47 1085.5 189.5"/><polygon class="cls-5" points="1201.5 139.5 1182.5 146.5 1159.5 146.5 1153.5 149.5 1136.5 151.5 1118.5 150.5 1113.5 144.5 1130.5 147.5 1138.5 148.5 1146.5 148.5 1151.5 147.5 1130.5 142.5 1147.5 139.5 1168.5 139.5 1191.5 139.5 1201.5 139.5"/><polygon class="cls-5" points="1211.5 151.5 1233.5 151.5 1230.5 158.5 1211.5 151.5"/><polygon class="cls-5" points="1138.5 258.5 1138.01 259.72 1134.5 268.5 1153.5 268.5 1168.5 271.5 1172.5 273.5 1186.5 267.5 1198.5 266.5 1212.5 264.5 1179.5 266.5 1173.5 266.5 1179.5 258.5 1186.5 254.5 1157.5 264.5 1142.5 264.5 1138.5 258.5"/><polygon class="cls-5" points="1198.5 271.5 1176.5 277.5 1183.5 283.5 1193.5 279.5 1209.5 267.5 1198.5 271.5"/><polygon class="cls-5" points="1204.5 277.5 1203.02 278.09 1189.5 283.5 1199.5 293.5 1201.5 299.5 1225.5 283.5 1233.5 283.5 1233.5 280.5 1222.5 281.5 1212.5 277.5 1204.5 277.5"/><polygon class="cls-5" points="1199.5 316.5 1188.5 325.5 1159.5 322.5 1147.5 323.5 1130.5 318.5 1121.5 316.5 1129.5 309.5 1141.5 309.5 1159.5 306.5 1171.5 309.5 1185.5 311.5 1199.5 316.5"/><polygon class="cls-5" points="1115.5 316.5 1098.5 313.5 1077.5 316.5 1056.5 319.5 1046.5 321.5 1035.5 325.5 1056.5 325.5 1072.5 320.5 1083.5 318.5 1094.5 316.5 1115.5 316.5"/><path class="cls-5" d="M964.5,299.5l-8,3-4,4,6,4,11,6h-13l9,7,11,5,14-1,16-4,6-9,7-9v-11l4-17-27-2-1,15s-3,10-4,9S964.5,299.5,964.5,299.5Z"/><polygon class="cls-5" points="1229.5 299.5 1216.5 302.5 1232.5 309.5 1229.5 299.5"/><polygon class="cls-5" points="1234.5 288.5 1222.5 288.5 1216.5 291.5 1205.5 299.5 1226.5 296.5 1234.5 288.5"/><polygon class="cls-5" points="1110.5 264.5 1072.5 275.5 1110.5 294.5 1121.5 294.5 1110.5 264.5"/><polygon class="cls-5" points="1130.5 234.5 1096.5 226.5 1064.5 234.5 1027.5 240.5 981.5 228.5 1012.5 250.5 1048.5 254.5 1072.5 245.5 1118.5 240.5 1130.5 234.5"/><path class="cls-5" d="M1117.5,214.5l-28-3-23,6s26,1,27,1S1117.5,214.5,1117.5,214.5Z"/><polygon class="cls-5" points="891.5 203.5 916.5 228.5 937.5 242.5 960.5 255.5 927.5 267.5 898.5 247.5 889.5 218.5 891.5 203.5"/><polygon class="cls-3" points="858 72 873 74.03 873 482 857.5 482 858 72"/><line class="cls-4" x1="864.5" y1="73.5" x2="864.5" y2="73.48"/><line class="cls-4" x1="872.5" y1="89.5" x2="877.5" y2="112.5"/><line class="cls-4" x1="889.5" y1="324.5" x2="872.5" y2="352.5"/><path class="cls-4" d="M872.5,67.5a6,6,0,0,1-4.11,5.35,8.9,8.9,0,0,1-3.39.65,4.18,4.18,0,0,1-.5,0c-3.91-.2-7-2.8-7-6,0-2.59,2.06-4.81,5-5.64a9.12,9.12,0,0,1,3.95-.25C869.87,62.13,872.5,64.57,872.5,67.5Z"/><line class="cls-4" x1="868.5" y1="73.5" x2="868.39" y2="72.85"/><rect class="cls-5" x="857.5" y="82.61" width="4.5" height="398.97"/><path class="cls-5" d="M859.5,63.5c.75,0,1.1,5.3,3,6a4.31,4.31,0,0,0,.81.2,4.8,4.8,0,0,0,2.19-.2,9.19,9.19,0,0,0,3-2.08l1-.92h0s1.78,3.11,1,5c-.56,1.36-2.34,1.83-3,2-3.2.83-7.68-.65-9-4C857.39,66.68,858.91,63.47,859.5,63.5Z"/><ellipse class="cls-6" cx="770.5" cy="46.43" rx="17.5" ry="16.57"/><ellipse class="cls-6" cx="729" cy="157.17" rx="22" ry="20.83"/><ellipse class="cls-6" cx="657.67" cy="251.32" rx="12.33" ry="11.68"/><ellipse class="cls-6" cx="622.17" cy="373.64" rx="8.83" ry="8.36"/><ellipse class="cls-6" cx="626.67" cy="444.9" rx="4.33" ry="4.1"/><path class="cls-2" d="M388.25.5c-.43,22.82-.75,44.14-.75,68,0,82.88,3.91,71.7,6,179,1.82,93.51.22,171.82-1.92,228.5"/><path class="cls-2" d="M419.5.5c1.31,37.61,6.25,164.61,18.67,475.5"/><path class="cls-2" d="M494.5.5c-2.7,46.86-2.89,178,2.73,473.88"/><path class="cls-2" d="M527.94.5q8.56,237,8,473.88"/><path class="cls-2" d="M521,.5q11.6,241.25,4,473.88"/></g></svg>