<svg id="Layer_2" data-name="Layer 2" xmlns="http://www.w3.org/2000/svg" viewBox="0 0 1030.4 380.5"><defs><style>.cls-1{fill:none;stroke:#231f20;stroke-miterlimit:10;}.cls-2{fill:#f6c31c;}</style></defs><title>powerlines</title><path class="cls-1" d="M337.59,85.74c7.34-1.68,13-2.52,15.11-2.37a8.07,8.07,0,0,1,2.08.44,7.25,7.25,0,0,1,3,2.23q.48,32.92.82,65.85,1.26,124,.51,248.11H334Z" transform="translate(0.04 -20)"/><path class="cls-1" d="M390.19,79.37" transform="translate(0.04 -20)"/><polygon class="cls-1" points="390.22 59.37 357.95 106.48 358.04 127.22 398.07 69.74 398.07 59.37 390.22 59.37"/><polyline class="cls-1" points="390.22 64.11 390.22 67.52 395.8 67.52"/><polygon class="cls-1" points="337.16 107.07 320.3 127.22 323.26 132.85 337.04 118.19 337.16 107.07"/><path class="cls-1" d="M393,78.48l-.72-3.11h-4.45s-1.33-2.67,0-3.56A15.29,15.29,0,0,1,393,70c.76,0,5.06.29,5.06,1s.87,4.45.87,4.45l-4.13.15-.15,2.81Z" transform="translate(0.04 -20)"/><polygon class="cls-1" points="320.3 127.22 320.3 123.07 322.22 122.48 322.28 124.85 320.3 127.22"/><path class="cls-1" d="M337.25,116.26,334,115.07V78.48a3.35,3.35,0,0,1-2.67,0c-1.63-.59-2.68-3-2.68-3A6.14,6.14,0,0,1,333,72.7a12.43,12.43,0,0,1,5.22,0s2.22,1.19,2.07,1.56,1.64,1.55,0,2.44a12.47,12.47,0,0,1-3.15,1.19Z" transform="translate(0.04 -20)"/><path class="cls-1" d="M0,38.33c267.78,20,390.52,28.7,393.44,28a9.2,9.2,0,0,1,4.67,0,8.74,8.74,0,0,1,3.33,1.78C426.75,89.06,792,161.3,792,161.3c6.7,1.32,12.47,2.48,17,3.4" transform="translate(0.04 -20)"/><path class="cls-1" d="M0,52.26c226.52,12,333.09,17.48,334.78,17.18a8,8,0,0,1,2.89,0,7.87,7.87,0,0,1,2,.67C388.59,94,791.53,181.44,791.53,181.44l24.58,5.34" transform="translate(0.04 -20)"/><path class="cls-1" d="M0,135.22q73.46,4.86,151.22,7.56c56.26,1.9,116,2.73,169,2.67" transform="translate(0.04 -20)"/><path class="cls-1" d="M357.91,148.85c26.88,7.48,66.37,18.36,114.22,31.11,181.31,48.32,274,72.72,371.56,84.23a1352.75,1352.75,0,0,0,186.67,8.88" transform="translate(0.04 -20)"/><circle class="cls-2" cx="202.26" cy="188.44" r="7"/><circle class="cls-2" cx="546.37" cy="251.28" r="8.19"/><circle class="cls-2" cx="99.7" cy="58.59" r="2.67"/><circle class="cls-2" cx="605.63" cy="271.07" r="5.14"/><circle class="cls-2" cx="478.65" cy="238.06" r="11.72"/><circle class="cls-2" cx="401.09" cy="229.28" r="7"/><circle class="cls-2" cx="321.26" cy="223.3" r="5.97"/><circle class="cls-2" cx="264.01" cy="215.7" r="5.97"/><circle class="cls-2" cx="136.98" cy="110.57" r="3.5"/><circle class="cls-2" cx="66.88" cy="1.33" r="1.33"/><circle class="cls-2" cx="749.07" cy="336.52" r="2.67"/><circle class="cls-2" cx="660.74" cy="289.74" r="3.62"/></svg>